SplineFontDB: 3.0
FontName: IranianSerifWeb-Regular
FullName: IranianSerif Web Regular
FamilyName: Iranian Serif 
Weight: Regular
Copyright: Copyright (c) 2014, font-store.ir <http://font-store.ir|info@font-store.ir>,with Reserved Font Name Iranian Sans .\n\nThis Font Software is licensed under the SIL Open Font License, Version 1.1.\nThis license is copied below, and is also available with a FAQ at:\nhttp://scripts.sil.org/OFL
Version: 5.0.2 build 3/9/1393
ItalicAngle: 0
UnderlinePosition: -71
UnderlineWidth: 64
Ascent: 760
Descent: 240
InvalidEm: 0
sfntRevision: 0x00010000
LayerCount: 2
Layer: 0 0 "Back" 1
Layer: 1 0 "Fore" 0
XUID: [1021 107 -802105209 13616]
FSType: 0
OS2Version: 3
OS2_WeightWidthSlopeOnly: 0
OS2_UseTypoMetrics: 1
CreationTime: 1159090200
ModificationTime: 1416859303
PfmFamily: 81
TTFWeight: 400
TTFWidth: 5
LineGap: 0
VLineGap: 0
Panose: 1 0 5 0 0 0 0 2 0 2
OS2TypoAscent: 760
OS2TypoAOffset: 0
OS2TypoDescent: -240
OS2TypoDOffset: 0
OS2TypoLinegap: 0
OS2WinAscent: 928
OS2WinAOffset: 0
OS2WinDescent: 236
OS2WinDOffset: 0
HheadAscent: 928
HheadAOffset: 0
HheadDescent: -236
HheadDOffset: 0
OS2SubXSize: 650
OS2SubYSize: 699
OS2SubXOff: 121
OS2SubYOff: 140
OS2SupXSize: 650
OS2SupYSize: 699
OS2SupXOff: -414
OS2SupYOff: 479
OS2StrikeYSize: 49
OS2StrikeYPos: 258
OS2CapHeight: 0
OS2XHeight: 0
OS2Vendor: 'RITA'
OS2CodePages: 00000040.20080000
OS2UnicodeRanges: 80002003.80002042.00000008.00000000
Lookup: 4 1 0 "'ccmp' Glyph Composition/Decomposition in Arabic lookup 0" { "'ccmp' Glyph Composition/Decomposition in Arabic lookup 0 subtable"  } ['ccmp' ('arab' <'ARA ' 'dflt' > ) ]
Lookup: 4 1 1 "'rlig' Required Ligatures in Arabic lookup 1" { "'rlig' Required Ligatures in Arabic lookup 1 subtable"  } ['rlig' ('arab' <'dflt' > ) ]
Lookup: 4 9 1 "'rlig' Required Ligatures in Arabic lookup 2" { "'rlig' Required Ligatures in Arabic lookup 2 subtable"  } ['rlig' ('arab' <'ARA ' 'dflt' > ) ]

StartChar: .notdef
Encoding: 65536 -1 0
Width: 600
VWidth: 952
GlyphClass: 2
Flags: MW
LayerCount: 2
Back
Fore
SplineSet
494 -169 m 1
 494 601 l 1
 106 601 l 1
 106 -169 l 1
 494 -169 l 1
550 -225 m 1
 50 -225 l 1
 50 657 l 1
 550 657 l 1
 550 -225 l 1
EndSplineSet
Validated: 1
EndChar

StartChar: exclam
Encoding: 33 33 4
Width: 401
VWidth: 952
GlyphClass: 2
Flags: MW
LayerCount: 2
Back
Fore
SplineSet
231 157 m 1
 171 157 l 1
 171 280 l 1
 138 681 l 1
 264 681 l 1
 231 280 l 1
 231 157 l 1
201 68 m 0
 237 68 266 39 266 3 c 0
 266 -33 237 -62 201 -62 c 0
 163 -62 136 -35 136 3 c 0
 136 40 164 68 201 68 c 0
EndSplineSet
Validated: 1
Substitution2: "'calt' Contextual Alternates in Arabic lookup 9 subtable" exclam.fa
EndChar

StartChar: quotedbl
Encoding: 34 34 5
Width: 459
VWidth: 952
GlyphClass: 2
Flags: MW
LayerCount: 2
Back
Fore
SplineSet
362 410 m 1
 284 410 l 1
 284 681 l 1
 362 681 l 1
 362 410 l 1
176 410 m 1
 98 410 l 1
 98 681 l 1
 176 681 l 1
 176 410 l 1
EndSplineSet
Validated: 1
EndChar

StartChar: numbersign
Encoding: 35 35 6
Width: 837
VWidth: 952
GlyphClass: 2
Flags: MW
LayerCount: 2
Back
Fore
SplineSet
705 154 m 1
 533 154 l 1
 483 -48 l 1
 399 -48 l 1
 450 154 l 1
 312 154 l 1
 261 -48 l 1
 178 -48 l 1
 228 154 l 1
 77 154 l 1
 77 229 l 1
 247 229 l 1
 287 392 l 1
 133 392 l 1
 133 467 l 1
 306 467 l 1
 357 670 l 1
 440 670 l 1
 390 467 l 1
 528 467 l 1
 578 670 l 1
 662 670 l 1
 611 467 l 1
 761 467 l 1
 761 392 l 1
 592 392 l 1
 552 229 l 1
 705 229 l 1
 705 154 l 1
469 229 m 1
 509 392 l 1
 371 392 l 1
 330 229 l 1
 469 229 l 1
EndSplineSet
Validated: 1
EndChar

StartChar: dollar
Encoding: 36 36 7
Width: 636
VWidth: 952
GlyphClass: 2
Flags: MW
LayerCount: 2
Back
Fore
SplineSet
553 123 m 0
 553 2 458 -54 337 -63 c 1
 337 -195 l 1
 288 -195 l 1
 288 -63 l 1
 209 -60 149 -40 86 -13 c 1
 86 122 l 1
 139 122 l 1
 141 30 194 -13 288 -15 c 1
 288 222 l 1
 213 243 160 267 130 294 c 0
 100 321 85 357 85 402 c 0
 85 518 173 574 288 581 c 1
 288 712 l 1
 337 712 l 1
 337 581 l 1
 407 575 467 557 521 533 c 1
 521 405 l 1
 468 405 l 1
 460 479 413 526 337 532 c 1
 337 311 l 1
 417 289 473 264 505 236 c 0
 537 208 553 170 553 123 c 0
288 532 m 1
 227 528 182 496 182 434 c 0
 182 408 191 386 208 369 c 0
 225 352 251 338 288 327 c 1
 288 532 l 1
337 -15 m 1
 403 -10 450 23 450 90 c 0
 450 159 398 190 337 206 c 1
 337 -15 l 1
EndSplineSet
Validated: 1
EndChar

StartChar: percent
Encoding: 37 37 8
Width: 950
VWidth: 952
GlyphClass: 2
Flags: MW
LayerCount: 2
Back
Fore
SplineSet
392 496 m 0
 392 381 334 297 223 297 c 0
 112 297 55 382 55 496 c 0
 55 609 114 694 223 694 c 0
 331 694 392 609 392 496 c 0
284 -62 m 1
 210 -62 l 1
 666 694 l 1
 740 694 l 1
 284 -62 l 1
895 136 m 0
 895 23 836 -62 727 -62 c 0
 618 -62 558 23 558 136 c 0
 558 250 616 335 727 335 c 0
 836 335 895 250 895 136 c 0
636 136 m 0
 636 59 659 -17 727 -17 c 0
 794 -17 817 60 817 136 c 0
 817 213 795 291 727 291 c 0
 658 291 636 214 636 136 c 0
133 495 m 0
 133 419 157 341 224 341 c 0
 292 341 314 418 314 495 c 0
 314 572 292 649 224 649 c 0
 155 649 133 573 133 495 c 0
EndSplineSet
Validated: 1
EndChar

StartChar: ampersand
Encoding: 38 38 9
Width: 890
VWidth: 952
GlyphClass: 2
Flags: MW
LayerCount: 2
Back
Fore
SplineSet
741 314 m 1
 730 223 694 150 644 93 c 1
 728 4 l 1
 843 4 l 1
 843 -48 l 1
 647 -48 l 1
 580 23 l 1
 520 -28 447 -62 345 -62 c 0
 186 -62 72 23 72 177 c 0
 72 220 84 260 109 298 c 0
 134 336 171 371 222 404 c 1
 195 436 174 474 174 525 c 0
 174 637 265 694 382 694 c 0
 445 694 499 679 558 661 c 1
 558 535 l 1
 503 535 l 1
 493 602 454 642 380 642 c 0
 317 642 267 604 267 543 c 0
 267 523 273 504 284 484 c 0
 295 464 318 436 353 399 c 2
 605 133 l 1
 646 179 675 239 682 314 c 1
 594 314 l 1
 594 366 l 1
 825 366 l 1
 825 314 l 1
 741 314 l 1
256 364 m 1
 209 322 171 268 171 188 c 0
 171 134 190 89 227 52 c 0
 264 15 311 -3 367 -3 c 0
 442 -3 499 26 540 65 c 1
 256 364 l 1
EndSplineSet
Validated: 1
EndChar

StartChar: quotesingle
Encoding: 39 39 10
Width: 274
VWidth: 952
GlyphClass: 2
Flags: MW
LayerCount: 2
Back
Fore
SplineSet
176 410 m 1
 98 410 l 1
 98 681 l 1
 176 681 l 1
 176 410 l 1
EndSplineSet
Validated: 1
EndChar

StartChar: parenleft
Encoding: 40 40 11
Width: 390
VWidth: 952
GlyphClass: 2
Flags: MW
LayerCount: 2
Back
Fore
SplineSet
178 254 m 0
 178 49 206 -77 319 -156 c 1
 319 -204 l 1
 160 -134 79 24 79 254 c 0
 79 484 160 642 319 712 c 1
 319 664 l 1
 206 585 178 459 178 254 c 0
EndSplineSet
Validated: 1
EndChar

StartChar: parenright
Encoding: 41 41 12
Width: 390
VWidth: 952
GlyphClass: 2
Flags: MW
LayerCount: 2
Back
Fore
SplineSet
71 712 m 1
 230 642 311 484 311 254 c 0
 311 25 229 -134 71 -204 c 1
 71 -156 l 1
 184 -77 212 49 212 254 c 0
 212 459 184 585 71 664 c 1
 71 712 l 1
EndSplineSet
Validated: 1
EndChar

StartChar: asterisk
Encoding: 42 42 13
Width: 500
VWidth: 952
GlyphClass: 2
Flags: MW
LayerCount: 2
Back
Fore
SplineSet
447 319 m 1
 277 425 l 1
 283 239 l 1
 217 239 l 1
 223 425 l 1
 53 319 l 1
 16 377 l 1
 207 466 l 1
 16 556 l 1
 53 614 l 1
 223 508 l 1
 217 694 l 1
 283 694 l 1
 277 508 l 1
 447 614 l 1
 484 556 l 1
 293 467 l 1
 484 377 l 1
 447 319 l 1
EndSplineSet
Validated: 1
EndChar

StartChar: plus
Encoding: 43 43 14
Width: 837
VWidth: 952
GlyphClass: 2
Flags: MW
LayerCount: 2
Back
Fore
SplineSet
732 226 m 1
 458 226 l 1
 458 -48 l 1
 380 -48 l 1
 380 226 l 1
 106 226 l 1
 106 305 l 1
 380 305 l 1
 380 579 l 1
 458 579 l 1
 458 305 l 1
 732 305 l 1
 732 226 l 1
EndSplineSet
Validated: 1
EndChar

StartChar: comma
Encoding: 44 44 15
Width: 317
VWidth: 952
GlyphClass: 2
Flags: MW
LayerCount: 2
Back
Fore
SplineSet
36 -145 m 1
 94 -102 125 -51 125 45 c 2
 125 63 l 1
 221 63 l 1
 214 -61 161 -131 75 -184 c 1
 36 -145 l 1
EndSplineSet
Validated: 1
EndChar

StartChar: hyphenminus
Encoding: 45 45 16
Width: 337
VWidth: 952
GlyphClass: 2
Flags: MW
LayerCount: 2
Back
Fore
SplineSet
294 182 m 1
 44 182 l 1
 44 258 l 1
 294 258 l 1
 294 182 l 1
EndSplineSet
Validated: 1
EndChar

StartChar: period
Encoding: 46 46 17
Width: 317
VWidth: 952
GlyphClass: 2
Flags: MW
LayerCount: 2
Back
Fore
SplineSet
159 68 m 0
 195 68 224 39 224 3 c 0
 224 -33 195 -62 159 -62 c 0
 121 -62 94 -35 94 3 c 0
 94 40 122 68 159 68 c 0
EndSplineSet
Validated: 1
Substitution2: "'calt' Contextual Alternates in Arabic lookup 9 subtable" period.fa
EndChar

StartChar: slash
Encoding: 47 47 18
Width: 336
VWidth: 952
GlyphClass: 2
Flags: MW
LayerCount: 2
Back
Fore
SplineSet
78 -141 m 1
 0 -141 l 1
 259 681 l 1
 337 681 l 1
 78 -141 l 1
EndSplineSet
Validated: 1
EndChar

StartChar: colon
Encoding: 58 58 19
Width: 336
VWidth: 952
GlyphClass: 2
Flags: MW
LayerCount: 2
Back
Fore
SplineSet
169 386 m 0
 207 386 234 359 234 321 c 0
 234 283 207 256 169 256 c 0
 133 256 104 285 104 321 c 0
 104 357 133 386 169 386 c 0
234 3 m 0
 234 -31 207 -62 173 -62 c 2
 169 -62 l 2
 131 -62 104 -35 104 3 c 0
 104 39 133 68 169 68 c 0
 205 68 234 39 234 3 c 0
EndSplineSet
Validated: 1
Substitution2: "'calt' Contextual Alternates in Arabic lookup 9 subtable" colon.fa
EndChar

StartChar: semicolon
Encoding: 59 59 20
Width: 336
VWidth: 952
GlyphClass: 2
Flags: MW
LayerCount: 2
Back
Fore
SplineSet
171 386 m 0
 207 386 236 357 236 321 c 0
 236 285 207 256 171 256 c 0
 135 256 106 285 106 321 c 0
 106 357 135 386 171 386 c 0
36 -145 m 1
 94 -102 125 -51 125 45 c 2
 125 63 l 1
 221 63 l 1
 214 -61 161 -131 75 -184 c 1
 36 -145 l 1
EndSplineSet
Validated: 1
EndChar

StartChar: less
Encoding: 60 60 21
Width: 837
VWidth: 952
GlyphClass: 2
Flags: MW
LayerCount: 2
Back
Fore
SplineSet
732 -2 m 1
 106 225 l 1
 106 306 l 1
 732 533 l 1
 732 450 l 1
 225 265 l 1
 732 81 l 1
 732 -2 l 1
EndSplineSet
Validated: 1
EndChar

StartChar: equal
Encoding: 61 61 22
Width: 837
VWidth: 952
GlyphClass: 2
Flags: MW
LayerCount: 2
Back
Fore
SplineSet
732 127 m 1
 106 127 l 1
 106 205 l 1
 732 205 l 1
 732 127 l 1
732 326 m 1
 106 326 l 1
 106 404 l 1
 732 404 l 1
 732 326 l 1
EndSplineSet
Validated: 1
EndChar

StartChar: greater
Encoding: 62 62 23
Width: 837
VWidth: 952
GlyphClass: 2
Flags: MW
LayerCount: 2
Back
Fore
SplineSet
732 225 m 1
 106 -2 l 1
 106 81 l 1
 613 265 l 1
 106 450 l 1
 106 533 l 1
 732 306 l 1
 732 225 l 1
EndSplineSet
Validated: 1
EndChar

StartChar: question
Encoding: 63 63 24
Width: 536
VWidth: 952
GlyphClass: 2
Flags: MW
LayerCount: 2
Back
Fore
SplineSet
488 501 m 0
 488 360 396 299 271 270 c 1
 271 146 l 1
 211 146 l 1
 211 306 l 1
 311 331 385 386 385 502 c 0
 385 588 337 646 252 646 c 0
 170 646 128 595 115 522 c 1
 68 522 l 1
 68 649 l 1
 125 674 183 694 254 694 c 0
 387 694 488 628 488 501 c 0
241 68 m 0
 277 68 306 39 306 3 c 0
 306 -33 277 -62 241 -62 c 0
 203 -62 176 -35 176 3 c 0
 176 40 204 68 241 68 c 0
EndSplineSet
Validated: 1
EndChar

StartChar: at
Encoding: 64 64 25
Width: 1000
VWidth: 952
GlyphClass: 2
Flags: MW
LayerCount: 2
Back
Fore
SplineSet
507 51 m 0
 584 51 632 111 632 189 c 2
 632 240 l 2
 632 318 583 377 506 377 c 0
 419 377 381 306 381 214 c 0
 381 121 419 51 507 51 c 0
528 -171 m 0
 621 -171 692 -142 747 -97 c 1
 773 -131 l 1
 709 -186 621 -222 507 -222 c 0
 372 -222 267 -168 194 -97 c 0
 119 -24 66 78 66 217 c 0
 66 353 120 456 194 528 c 0
 268 602 379 656 519 656 c 0
 673 656 784 591 854 499 c 0
 898 443 929 371 929 278 c 0
 929 99 812 -4 632 -6 c 1
 632 73 l 1
 600 28 555 -6 486 -6 c 0
 367 -6 294 92 294 214 c 0
 294 337 366 434 486 434 c 0
 555 434 600 400 632 355 c 1
 632 424 l 1
 708 424 l 1
 708 47 l 1
 814 70 883 152 883 279 c 0
 883 360 856 423 817 471 c 0
 755 547 658 605 529 605 c 0
 462 605 406 590 357 567 c 0
 235 511 149 388 149 217 c 0
 149 102 186 9 244 -52 c 0
 306 -121 404 -171 528 -171 c 0
EndSplineSet
Validated: 1
EndChar

StartChar: bracketleft
Encoding: 91 91 26
Width: 390
VWidth: 952
GlyphClass: 2
Flags: MW
LayerCount: 2
Back
Fore
SplineSet
313 -180 m 1
 86 -180 l 1
 86 712 l 1
 313 712 l 1
 313 660 l 1
 179 660 l 1
 179 -128 l 1
 313 -128 l 1
 313 -180 l 1
EndSplineSet
Validated: 1
EndChar

StartChar: backslash
Encoding: 92 92 27
Width: 336
VWidth: 952
GlyphClass: 2
Flags: MW
LayerCount: 2
Back
Fore
SplineSet
337 -141 m 1
 259 -141 l 1
 0 681 l 1
 78 681 l 1
 337 -141 l 1
EndSplineSet
Validated: 1
EndChar

StartChar: bracketright
Encoding: 93 93 28
Width: 390
VWidth: 952
GlyphClass: 2
Flags: MW
LayerCount: 2
Back
Fore
SplineSet
304 -180 m 1
 77 -180 l 1
 77 -128 l 1
 211 -128 l 1
 211 660 l 1
 77 660 l 1
 77 712 l 1
 304 712 l 1
 304 -180 l 1
EndSplineSet
Validated: 1
EndChar

StartChar: asciicircum
Encoding: 94 94 29
Width: 837
VWidth: 952
GlyphClass: 2
Flags: MW
LayerCount: 2
Back
Fore
SplineSet
732 409 m 1
 657 409 l 1
 419 595 l 1
 181 409 l 1
 106 409 l 1
 371 681 l 1
 467 681 l 1
 732 409 l 1
EndSplineSet
Validated: 1
EndChar

StartChar: underscore
Encoding: 95 95 30
Width: 500
VWidth: 952
GlyphClass: 2
Flags: MW
LayerCount: 2
Back
Fore
SplineSet
500 -284 m 1
 0 -284 l 1
 0 -245 l 1
 500 -245 l 1
 500 -284 l 1
EndSplineSet
Validated: 1
EndChar

StartChar: grave
Encoding: 96 96 31
Width: 500
VWidth: 952
GlyphClass: 2
Flags: MW
LayerCount: 2
Back
Fore
SplineSet
306 567 m 1
 249 567 l 1
 83 751 l 1
 179 751 l 1
 306 567 l 1
EndSplineSet
Validated: 1
EndChar

StartChar: braceleft
Encoding: 123 123 32
Width: 636
VWidth: 952
GlyphClass: 2
Flags: MW
LayerCount: 2
Back
Fore
SplineSet
255 251 m 1
 340 229 367 197 367 92 c 2
 367 -48 l 2
 367 -94 374 -124 388 -138 c 0
 402 -152 432 -160 478 -160 c 2
 511 -160 l 1
 511 -211 l 1
 481 -211 l 2
 400 -211 345 -199 318 -175 c 0
 291 -151 277 -103 277 -31 c 2
 277 95 l 2
 277 190 248 225 155 225 c 2
 125 225 l 1
 125 276 l 1
 155 276 l 2
 249 276 277 310 277 406 c 2
 277 532 l 2
 277 604 291 652 318 676 c 0
 345 700 400 712 481 712 c 2
 511 712 l 1
 511 661 l 1
 478 661 l 2
 385 661 367 642 367 549 c 2
 367 409 l 2
 367 306 340 269 255 251 c 1
EndSplineSet
Validated: 1
EndChar

StartChar: bar
Encoding: 124 124 33
Width: 336
VWidth: 952
GlyphClass: 2
Flags: MW
LayerCount: 2
Back
Fore
SplineSet
208 -284 m 1
 129 -284 l 1
 129 716 l 1
 208 716 l 1
 208 -284 l 1
EndSplineSet
Validated: 1
EndChar

StartChar: braceright
Encoding: 125 125 34
Width: 636
VWidth: 952
GlyphClass: 2
Flags: MW
LayerCount: 2
Back
Fore
SplineSet
481 225 m 2
 388 225 359 190 359 95 c 2
 359 -31 l 2
 359 -103 345 -151 318 -175 c 0
 291 -199 237 -211 156 -211 c 2
 125 -211 l 1
 125 -160 l 1
 159 -160 l 2
 204 -160 234 -152 248 -138 c 0
 262 -124 269 -94 269 -48 c 2
 269 92 l 2
 269 197 296 229 381 251 c 1
 297 271 269 306 269 409 c 2
 269 549 l 2
 269 642 252 661 159 661 c 2
 125 661 l 1
 125 712 l 1
 156 712 l 2
 237 712 291 700 318 676 c 0
 345 652 359 604 359 532 c 2
 359 406 l 2
 359 310 387 276 481 276 c 2
 511 276 l 1
 511 225 l 1
 481 225 l 2
EndSplineSet
Validated: 1
EndChar

StartChar: asciitilde
Encoding: 126 126 35
Width: 837
VWidth: 952
GlyphClass: 2
Flags: MW
LayerCount: 2
Back
Fore
SplineSet
558 273 m 0
 633 273 685 306 732 346 c 1
 732 274 l 1
 699 245 668 224 639 210 c 0
 610 196 580 190 550 190 c 0
 518 190 448 208 397 230 c 0
 349 249 310 258 279 258 c 0
 249 258 220 252 192 240 c 0
 164 228 135 210 106 185 c 1
 106 259 l 1
 139 287 169 308 198 321 c 0
 227 334 257 341 288 341 c 0
 318 341 370 329 425 307 c 2
 440 301 l 2
 487 282 527 273 558 273 c 0
EndSplineSet
Validated: 1
EndChar

StartChar: currency
Encoding: 164 164 36
Width: 636
VWidth: 952
GlyphClass: 2
Flags: MW
LayerCount: 2
Back
Fore
SplineSet
188 266 m 0
 188 192 245 134 319 134 c 0
 393 134 450 193 450 266 c 0
 450 339 392 396 319 396 c 0
 246 396 188 339 188 266 c 0
527 265 m 0
 527 212 511 179 485 146 c 1
 586 45 l 1
 539 -1 l 1
 438 99 l 1
 406 74 370 57 319 57 c 0
 269 57 231 75 197 97 c 1
 97 -3 l 1
 51 43 l 1
 151 144 l 1
 129 178 111 215 111 265 c 0
 111 318 127 352 153 385 c 1
 52 486 l 1
 98 532 l 1
 199 431 l 1
 230 455 268 473 319 473 c 0
 369 473 407 455 440 433 c 1
 542 534 l 1
 588 488 l 1
 486 386 l 1
 510 354 527 316 527 265 c 0
EndSplineSet
Validated: 1
EndChar

StartChar: section
Encoding: 167 167 37
Width: 500
VWidth: 952
GlyphClass: 2
Flags: MW
LayerCount: 2
Back
Fore
SplineSet
238 -143 m 0
 176 -143 126 -133 78 -116 c 1
 78 -14 l 1
 123 -14 l 1
 125 -72 166 -93 229 -93 c 0
 291 -93 339 -64 339 -4 c 0
 339 33 302 72 228 113 c 0
 221 117 216 120 212 122 c 0
 142 162 97 194 76 218 c 0
 55 242 45 271 45 303 c 0
 45 374 96 412 156 429 c 1
 111 455 77 490 77 553 c 0
 77 645 159 694 256 694 c 0
 314 694 360 683 405 667 c 1
 405 568 l 1
 360 568 l 1
 358 618 320 644 265 644 c 0
 205 644 160 614 160 556 c 0
 160 525 200 487 280 442 c 0
 289 437 295 434 299 431 c 0
 362 396 404 366 424 342 c 0
 444 318 455 289 455 256 c 0
 455 181 409 150 348 127 c 1
 392 100 422 64 422 -2 c 0
 422 -96 337 -143 238 -143 c 0
185 409 m 1
 151 386 125 366 125 320 c 0
 125 277 184 223 302 157 c 2
 318 148 l 1
 337 161 350 175 360 190 c 0
 370 205 375 222 375 241 c 0
 375 266 364 288 341 310 c 0
 318 332 266 365 185 409 c 1
EndSplineSet
Validated: 1
EndChar

StartChar: guillemotleft
Encoding: 171 171 38
Width: 611
VWidth: 952
GlyphClass: 2
Flags: MW
LayerCount: 2
Back
Fore
SplineSet
306 21 m 1
 77 225 l 1
 77 265 l 1
 306 469 l 1
 306 413 l 1
 161 245 l 1
 306 77 l 1
 306 21 l 1
518 21 m 1
 289 225 l 1
 289 265 l 1
 518 469 l 1
 518 413 l 1
 373 245 l 1
 518 77 l 1
 518 21 l 1
EndSplineSet
Validated: 1
Substitution2: "'calt' Contextual Alternates in Arabic lookup 9 subtable" guillemotleft.fa
EndChar

StartChar: logicalnot
Encoding: 172 172 39
Width: 837
VWidth: 952
GlyphClass: 2
Flags: MW
LayerCount: 2
Back
Fore
SplineSet
732 92 m 1
 654 92 l 1
 654 294 l 1
 106 294 l 1
 106 373 l 1
 732 373 l 1
 732 92 l 1
EndSplineSet
Validated: 1
EndChar

StartChar: degree
Encoding: 176 176 40
Width: 500
VWidth: 952
GlyphClass: 2
Flags: MW
LayerCount: 2
Back
Fore
SplineSet
95 538 m 0
 95 624 165 694 250 694 c 0
 322 694 372 650 394 598 c 0
 402 579 405 559 405 538 c 0
 405 452 335 384 249 384 c 0
 161 384 95 450 95 538 c 0
250 451 m 0
 300 451 336 490 338 538 c 0
 338 587 298 627 250 627 c 0
 200 627 162 588 162 538 c 0
 162 488 200 451 250 451 c 0
EndSplineSet
Validated: 1
EndChar

StartChar: paragraph
Encoding: 182 182 41
Width: 636
VWidth: 952
GlyphClass: 2
Flags: MW
LayerCount: 2
Back
Fore
SplineSet
77 475 m 0
 77 604 176 681 309 681 c 2
 572 681 l 1
 572 629 l 1
 514 629 l 1
 514 -144 l 1
 462 -144 l 1
 462 629 l 1
 349 629 l 1
 349 -144 l 1
 297 -144 l 1
 297 269 l 1
 169 278 77 344 77 475 c 0
EndSplineSet
Validated: 1
EndChar

StartChar: periodcentered
Encoding: 183 183 42
Width: 317
VWidth: 952
GlyphClass: 2
Flags: MW
LayerCount: 2
Back
Fore
SplineSet
158 364 m 0
 194 364 223 335 223 299 c 0
 223 263 194 234 158 234 c 0
 121 234 93 262 93 299 c 0
 93 335 122 364 158 364 c 0
EndSplineSet
Validated: 1
EndChar

StartChar: guillemotright
Encoding: 187 187 43
Width: 611
VWidth: 952
GlyphClass: 2
Flags: MW
LayerCount: 2
Back
Fore
SplineSet
323 225 m 1
 94 21 l 1
 94 77 l 1
 239 245 l 1
 94 413 l 1
 94 469 l 1
 323 265 l 1
 323 225 l 1
535 225 m 1
 306 21 l 1
 306 77 l 1
 451 245 l 1
 306 413 l 1
 306 469 l 1
 535 265 l 1
 535 225 l 1
EndSplineSet
Validated: 1
Substitution2: "'calt' Contextual Alternates in Arabic lookup 9 subtable" guillemotright.fa
EndChar

StartChar: divide
Encoding: 247 247 44
Width: 837
VWidth: 952
GlyphClass: 2
Flags: MW
LayerCount: 2
Back
Fore
SplineSet
732 226 m 1
 106 226 l 1
 106 305 l 1
 732 305 l 1
 732 226 l 1
419 150 m 0
 455 150 484 121 484 85 c 0
 484 49 455 20 419 20 c 0
 381 20 354 47 354 85 c 0
 354 121 383 150 419 150 c 0
419 511 m 0
 455 511 484 482 484 446 c 0
 484 410 455 381 419 381 c 0
 382 381 354 409 354 446 c 0
 354 482 383 511 419 511 c 0
EndSplineSet
Validated: 1
EndChar

StartChar: emdash
Encoding: 8212 8212 45
Width: 1000
VWidth: 952
GlyphClass: 2
Flags: MW
LayerCount: 2
Back
Fore
SplineSet
1000 185 m 1
 0 185 l 1
 0 250 l 1
 1000 250 l 1
 1000 185 l 1
EndSplineSet
Validated: 1
EndChar

StartChar: bullet
Encoding: 8226 8226 46
Width: 589
VWidth: 952
GlyphClass: 2
Flags: MW
LayerCount: 2
Back
Fore
SplineSet
440 324 m 0
 438 243 375 180 295 178 c 0
 214 178 150 243 150 324 c 0
 150 405 215 468 296 468 c 0
 376 468 440 404 440 324 c 0
EndSplineSet
Validated: 1
EndChar

StartChar: ellipsis
Encoding: 8230 8230 47
Width: 1000
VWidth: 952
GlyphClass: 2
Flags: MW
LayerCount: 2
Back
Fore
SplineSet
167 68 m 0
 203 68 232 39 232 3 c 0
 232 -33 203 -62 167 -62 c 0
 129 -62 102 -35 102 3 c 0
 102 39 131 68 167 68 c 0
500 68 m 0
 536 68 565 39 565 3 c 0
 565 -33 536 -62 500 -62 c 0
 463 -62 435 -34 435 3 c 0
 435 39 464 68 500 68 c 0
833 68 m 0
 869 68 898 39 898 3 c 0
 898 -33 869 -62 833 -62 c 0
 795 -62 768 -35 768 3 c 0
 768 39 797 68 833 68 c 0
EndSplineSet
Validated: 1
Substitution2: "'calt' Contextual Alternates in Arabic lookup 9 subtable" ellipsis.fa
EndChar

StartChar: multiply
Encoding: 215 215 49
Width: 837
VWidth: 952
GlyphClass: 2
Flags: MW
LayerCount: 2
Back
Fore
SplineSet
700 40 m 1
 644 -15 l 1
 419 210 l 1
 194 -15 l 1
 138 40 l 1
 363 265 l 1
 138 491 l 1
 194 546 l 1
 419 321 l 1
 644 546 l 1
 700 491 l 1
 474 265 l 1
 700 40 l 1
EndSplineSet
Validated: 1
EndChar

StartChar: uni200C
Encoding: 8204 8204 50
Width: 0
VWidth: 952
GlyphClass: 2
Flags: MW
LayerCount: 2
Back
Fore
SplineSet
22 -439 m 1
 0 -439 l 1
 0 561 l 1
 22 561 l 1
 22 -439 l 1
EndSplineSet
Validated: 1
EndChar

StartChar: uni200D
Encoding: 8205 8205 51
Width: 0
VWidth: 952
GlyphClass: 2
Flags: MW
LayerCount: 2
Back
Fore
SplineSet
21 -439 m 1
 0 -439 l 1
 0 468 l 1
 -42 427 l 1
 -56 442 l 1
 -4 494 l 1
 -56 546 l 1
 -42 561 l 1
 11 509 l 1
 63 561 l 1
 78 546 l 1
 25 494 l 1
 78 442 l 1
 63 427 l 1
 21 469 l 1
 21 -439 l 1
EndSplineSet
Validated: 1
EndChar

StartChar: uni200E
Encoding: 8206 8206 52
Width: 0
VWidth: 952
GlyphClass: 2
Flags: MW
LayerCount: 2
Back
Fore
SplineSet
22 -439 m 1
 0 -439 l 1
 0 500 l 1
 106 500 l 1
 66 540 l 1
 81 556 l 1
 148 489 l 1
 81 421 l 1
 66 436 l 1
 108 478 l 1
 22 478 l 1
 22 -439 l 1
EndSplineSet
Validated: 1
EndChar

StartChar: uni200F
Encoding: 8207 8207 53
Width: 0
VWidth: 952
GlyphClass: 2
Flags: MW
LayerCount: 2
Back
Fore
SplineSet
22 -439 m 1
 0 -439 l 1
 0 478 l 1
 -86 478 l 1
 -44 436 l 1
 -59 421 l 1
 -126 489 l 1
 -59 556 l 1
 -44 540 l 1
 -84 500 l 1
 22 500 l 1
 22 -439 l 1
EndSplineSet
Validated: 1
EndChar

StartChar: hyphen
Encoding: 8208 8208 54
Width: 337
VWidth: 952
GlyphClass: 2
Flags: MW
LayerCount: 2
Back
Fore
SplineSet
294 182 m 1
 44 182 l 1
 44 258 l 1
 294 258 l 1
 294 182 l 1
EndSplineSet
Validated: 1
EndChar

StartChar: Euro
Encoding: 8364 8364 55
Width: 636
VWidth: 952
GlyphClass: 2
Flags: MW
LayerCount: 2
Back
Fore
SplineSet
347 -14 m 0
 436 -14 477 60 490 145 c 1
 555 145 l 1
 531 30 465 -62 337 -62 c 0
 276 -62 222 -37 178 12 c 0
 134 61 104 129 89 215 c 1
 -4 215 l 1
 18 266 l 1
 84 266 l 1
 84 276 82 311 82 316 c 2
 82 344 l 2
 82 352 83 360 84 367 c 1
 -4 367 l 1
 18 418 l 1
 89 418 l 1
 104 504 134 571 178 620 c 0
 222 669 275 694 337 694 c 0
 369 694 402 689 434 679 c 0
 466 669 502 653 543 630 c 1
 543 463 l 1
 491 463 l 1
 480 558 442 646 347 646 c 0
 303 646 267 627 240 588 c 0
 213 549 197 493 190 418 c 1
 436 418 l 1
 413 367 l 1
 187 367 l 1
 187 356 185 321 185 316 c 0
 185 313 186 306 186 295 c 2
 186 266 l 1
 369 266 l 1
 346 215 l 1
 190 215 l 1
 197 140 214 83 241 44 c 0
 268 5 303 -14 347 -14 c 0
EndSplineSet
Validated: 1
EndChar

StartChar: minus
Encoding: 8722 8722 56
Width: 837
VWidth: 952
GlyphClass: 2
Flags: MW
LayerCount: 2
Back
Fore
SplineSet
732 226 m 1
 106 226 l 1
 106 305 l 1
 732 305 l 1
 732 226 l 1
EndSplineSet
Validated: 1
EndChar

StartChar: uni2219
Encoding: 8729 8729 57
Width: 317
VWidth: 952
GlyphClass: 2
Flags: MW
LayerCount: 2
Back
Fore
SplineSet
158 364 m 0
 194 364 223 335 223 299 c 0
 223 263 194 234 158 234 c 0
 121 234 93 262 93 299 c 0
 93 335 122 364 158 364 c 0
EndSplineSet
Validated: 1
EndChar

StartChar: uni25CC
Encoding: 9676 9676 58
Width: 745
VWidth: 952
GlyphClass: 2
Flags: MW
AnchorPoint: "Anchor-5" 374 -238 basechar 0
AnchorPoint: "Anchor-4" 359 626 basechar 0
LayerCount: 2
Back
Fore
SplineSet
320 514 m 1
 337 516 354 518 372 518 c 0
 390 518 408 516 423 514 c 1
 417 466 l 1
 395 468 l 2
 388 469 380 469 372 469 c 0
 358 469 341 468 328 466 c 1
 320 514 l 1
634 289 m 1
 624 317 608 343 590 365 c 1
 627 396 l 1
 649 369 666 339 679 307 c 1
 634 289 l 1
652 189 m 0
 652 206 650 219 648 234 c 1
 697 240 l 1
 700 224 701 207 701 189 c 0
 701 172 700 155 697 138 c 1
 648 147 l 1
 650 160 651 174 652 189 c 0
679 72 m 1
 665 40 649 9 627 -17 c 1
 590 14 l 1
 609 37 623 62 634 90 c 1
 679 72 l 1
473 -71 m 1
 502 -61 526 -45 548 -27 c 1
 578 -66 l 1
 553 -87 522 -105 490 -117 c 1
 473 -71 l 1
372 -90 m 0
 388 -90 402 -88 416 -86 c 1
 423 -135 l 1
 406 -137 391 -139 372 -139 c 0
 363 -139 354 -139 346 -138 c 0
 338 -137 330 -136 322 -135 c 1
 328 -86 l 1
 342 -88 358 -90 372 -90 c 0
254 -117 m 1
 222 -104 193 -87 166 -66 c 1
 197 -27 l 1
 220 -46 245 -60 271 -70 c 1
 254 -117 l 1
117 -17 m 1
 95 10 78 40 65 72 c 1
 112 89 l 1
 123 62 137 37 156 14 c 1
 117 -17 l 1
93 189 m 0
 93 173 95 160 97 145 c 1
 48 139 l 1
 46 156 44 170 44 189 c 0
 44 208 46 225 48 242 c 1
 97 233 l 1
 96 226 95 219 94 212 c 0
 93 205 93 197 93 189 c 0
156 365 m 1
 137 342 123 316 112 289 c 1
 65 307 l 1
 79 339 96 371 117 396 c 1
 156 365 l 1
272 451 m 1
 243 441 217 424 196 406 c 1
 166 445 l 1
 193 467 223 484 255 497 c 1
 272 451 l 1
547 408 m 1
 525 426 502 440 473 450 c 1
 490 496 l 1
 524 482 555 466 581 444 c 1
 547 408 l 1
EndSplineSet
Validated: 1
EndChar

StartChar: uni060C
Encoding: 1548 1548 59
Width: 317
VWidth: 952
GlyphClass: 2
Flags: MW
LayerCount: 2
Back
Fore
SplineSet
221 159 m 1
 165 116 136 44 131 -48 c 1
 36 -48 l 1
 36 -3 49 35 66 70 c 0
 93 123 129 165 181 199 c 1
 221 159 l 1
EndSplineSet
Validated: 1
Substitution2: "'calt' Contextual Alternates in Arabic lookup 9 subtable" uni060C.fa
EndChar

StartChar: uni061B
Encoding: 1563 1563 60
Width: 336
VWidth: 952
GlyphClass: 2
Flags: MW
LayerCount: 2
Back
Fore
SplineSet
51 262 m 1
 51 340 86 401 124 448 c 0
 142 470 167 490 196 509 c 1
 236 468 l 1
 179 424 151 357 146 262 c 1
 51 262 l 1
101 68 m 0
 140 68 166 42 166 3 c 0
 166 -28 149 -45 128 -56 c 0
 120 -60 111 -62 101 -62 c 0
 65 -62 36 -33 36 3 c 0
 36 42 62 68 101 68 c 0
EndSplineSet
Validated: 1
Substitution2: "'calt' Contextual Alternates in Arabic lookup 9 subtable" uni061B.fa
EndChar

StartChar: uni061F
Encoding: 1567 1567 61
Width: 536
VWidth: 952
GlyphClass: 2
Flags: MW
LayerCount: 2
Back
Fore
SplineSet
443 524 m 1
 434 595 386 644 308 644 c 0
 223 644 178 589 178 504 c 0
 178 446 198 406 226 374 c 0
 255 341 297 318 348 308 c 1
 348 148 l 1
 283 148 l 1
 283 268 l 1
 199 295 122 340 86 415 c 0
 74 440 68 470 68 504 c 0
 68 607 135 659 216 682 c 0
 244 690 273 694 303 694 c 0
 355 694 411 680 452 667 c 0
 468 662 479 656 488 649 c 1
 488 524 l 1
 443 524 l 1
318 68 m 0
 358 68 383 43 383 3 c 0
 383 -28 366 -45 345 -56 c 0
 337 -60 328 -62 318 -62 c 0
 282 -62 253 -33 253 3 c 0
 253 42 279 68 318 68 c 0
EndSplineSet
Validated: 1
EndChar

StartChar: uni0621
Encoding: 1569 1569 62
Width: 375
VWidth: 952
GlyphClass: 2
Flags: MW
AnchorPoint: "Anchor-1" 183 -19 basechar 0
AnchorPoint: "Anchor-0" 176 428 basechar 0
LayerCount: 2
Back
Fore
SplineSet
250 225 m 1
 236 239 217 253 192 253 c 0
 164 253 149 239 134 224 c 0
 128 218 123 211 119 204 c 1
 121 163 171 141 215 136 c 1
 250 149 297 159 336 167 c 1
 328 141 320 119 312 93 c 1
 231 86 160 60 100 30 c 0
 78 19 57 7 39 -6 c 1
 43 24 l 2
 44 34 46 44 47 55 c 1
 73 72 106 90 137 100 c 1
 137 103 l 1
 98 114 62 134 62 178 c 0
 62 186 64 201 66 209 c 1
 97 240 119 264 148 290 c 0
 165 305 180 316 208 316 c 0
 259 316 278 296 306 271 c 1
 288 255 269 239 250 225 c 1
EndSplineSet
Validated: 1
Substitution2: "'isol' Isolated Forms in Arabic lookup 6 subtable" uni0621.isol
EndChar

StartChar: uni0640
Encoding: 1600 1600 63
Width: 343
VWidth: 952
GlyphClass: 2
Flags: MW
AnchorPoint: "Anchor-1" 146 -102 basechar 0
AnchorPoint: "Anchor-0" 154 440 basechar 0
LayerCount: 2
Back
Fore
SplineSet
0 -1 m 2
 -13 -1 -34 4 -34 16 c 2
 -34 93 l 1
 344 93 l 1
 344 -1 l 1
 0 -1 l 2
EndSplineSet
Validated: 1
EndChar

StartChar: uni0660
Encoding: 1632 1632 64
Width: 636
VWidth: 952
GlyphClass: 2
Flags: MW
LayerCount: 2
Back
Fore
SplineSet
454 331 m 1
 415 304 381 259 354 218 c 0
 344 203 337 190 332 178 c 1
 306 216 264 252 224 278 c 0
 209 288 195 295 182 300 c 1
 194 307 206 317 217 328 c 0
 251 362 281 401 300 449 c 1
 337 400 393 355 454 331 c 1
EndSplineSet
Validated: 1
EndChar

StartChar: uni0661
Encoding: 1633 1633 65
Width: 636
VWidth: 952
GlyphClass: 2
Flags: MW
LayerCount: 2
Back
Fore
SplineSet
392 -90 m 1
 392 -65 l 2
 392 61 379 162 348 258 c 0
 306 387 244 493 177 606 c 1
 199 645 218 686 240 725 c 1
 312 598 373 482 419 343 c 0
 450 251 459 152 459 30 c 2
 459 1 l 1
 392 -90 l 1
EndSplineSet
Validated: 1
EndChar

StartChar: uni0662
Encoding: 1634 1634 66
Width: 636
VWidth: 952
GlyphClass: 2
Flags: MW
LayerCount: 2
Back
Fore
SplineSet
360 462 m 0
 323 462 286 475 262 491 c 0
 261 491 260 490 260 490 c 1
 260 489 l 1
 290 425 307 334 324 255 c 0
 336 200 347 141 354 86 c 0
 357 63 359 46 359 35 c 0
 359 -24 316 -55 291 -90 c 1
 291 -63 l 2
 288 59 277 163 245 258 c 0
 202 387 145 494 76 606 c 1
 87 625 97 645 108 665 c 2
 140 725 l 1
 160 693 179 667 196 647 c 0
 213 627 230 611 247 600 c 0
 278 580 307 570 354 570 c 0
 426 570 461 602 486 652 c 0
 496 672 507 697 516 728 c 1
 530 710 544 694 560 678 c 1
 547 614 524 559 490 519 c 0
 461 484 421 462 360 462 c 0
EndSplineSet
Validated: 1
EndChar

StartChar: uni0663
Encoding: 1635 1635 67
Width: 636
VWidth: 952
GlyphClass: 2
Flags: MW
LayerCount: 2
Back
Fore
SplineSet
479 484 m 0
 422 484 398 520 389 567 c 1
 387 567 l 1
 384 539 376 517 360 500 c 0
 343 481 319 466 284 466 c 0
 260 466 246 471 228 479 c 1
 240 452 251 416 259 382 c 0
 280 298 300 207 314 116 c 0
 317 96 318 78 320 62 c 0
 322 46 323 35 323 26 c 0
 323 2 310 -18 299 -34 c 0
 285 -53 269 -72 255 -90 c 1
 255 -70 l 2
 255 -30 245 12 236 54 c 0
 207 189 160 324 114 446 c 0
 93 503 68 560 40 606 c 1
 63 645 81 683 103 723 c 1
 128 674 151 633 188 604 c 0
 210 587 235 575 268 575 c 0
 337 575 357 644 357 715 c 1
 405 715 l 1
 405 661 417 612 450 592 c 0
 460 586 471 582 483 582 c 0
 525 582 536 619 542 659 c 0
 545 678 547 703 548 733 c 1
 572 717 l 2
 580 712 588 706 596 700 c 1
 596 628 588 571 564 530 c 0
 547 501 521 484 479 484 c 0
EndSplineSet
Validated: 1
EndChar

StartChar: uni0664
Encoding: 1636 1636 68
Width: 636
VWidth: 952
GlyphClass: 2
Flags: MW
LayerCount: 2
Back
Fore
SplineSet
395 598 m 1
 354 588 311 566 280 544 c 0
 266 534 248 520 248 501 c 0
 248 480 273 467 289 458 c 0
 312 445 343 430 366 418 c 0
 381 411 408 398 408 382 c 0
 408 360 391 339 379 323 c 0
 364 302 342 280 328 259 c 0
 321 250 314 238 305 226 c 0
 289 205 273 180 262 157 c 0
 257 147 255 140 255 136 c 0
 255 125 261 116 274 108 c 0
 324 77 406 63 479 52 c 1
 464 15 450 -14 438 -50 c 0
 435 -58 430 -64 430 -70 c 1
 337 -52 263 -34 202 2 c 0
 180 15 166 30 158 44 c 0
 150 58 145 73 145 90 c 0
 145 128 164 163 180 189 c 0
 205 229 240 269 272 301 c 0
 279 308 282 313 282 316 c 0
 282 326 257 338 247 343 c 0
 213 360 177 384 157 415 c 0
 150 426 147 438 147 452 c 0
 147 500 168 534 190 564 c 0
 241 635 325 687 424 709 c 1
 395 598 l 1
EndSplineSet
Validated: 1
EndChar

StartChar: uni0665
Encoding: 1637 1637 69
Width: 636
VWidth: 952
GlyphClass: 2
Flags: MW
LayerCount: 2
Back
Fore
SplineSet
465 235 m 0
 465 252 458 269 446 286 c 0
 434 303 416 321 391 340 c 0
 342 377 300 396 265 396 c 0
 237 396 217 369 205 348 c 0
 193 326 178 294 178 264 c 0
 178 211 235 184 350 184 c 0
 427 184 465 201 465 235 c 0
479 138 m 0
 445 85 380 59 283 58 c 0
 215 58 151 81 122 121 c 0
 112 135 106 151 106 170 c 0
 106 261 127 341 170 408 c 0
 213 475 259 509 306 509 c 2
 308 509 l 2
 373 509 414 480 456 446 c 0
 505 405 530 360 530 311 c 0
 530 248 513 191 479 138 c 0
EndSplineSet
Validated: 1
EndChar

StartChar: uni0666
Encoding: 1638 1638 70
Width: 636
VWidth: 952
GlyphClass: 2
Flags: MW
LayerCount: 2
Back
Fore
SplineSet
104 659 m 1
 143 614 199 596 284 596 c 0
 342 596 405 611 460 625 c 1
 445 558 438 495 438 437 c 0
 438 298 447 207 466 164 c 0
 484 123 501 90 541 71 c 1
 519 -78 l 1
 438 -26 384 58 380 187 c 0
 378 244 376 297 376 350 c 2
 376 479 l 1
 342 472 312 465 272 465 c 2
 238 465 l 2
 203 465 177 484 154 500 c 0
 118 526 91 570 83 624 c 1
 89 636 97 648 104 659 c 1
EndSplineSet
Validated: 1
EndChar

StartChar: uni0667
Encoding: 1639 1639 71
Width: 636
VWidth: 952
GlyphClass: 2
Flags: MW
LayerCount: 2
Back
Fore
SplineSet
297 -57 m 1
 275 148 222 325 133 460 c 0
 106 501 78 537 47 568 c 1
 92 725 l 1
 192 621 254 463 292 293 c 0
 306 231 316 167 321 100 c 1
 323 100 l 1
 341 300 395 479 477 615 c 0
 503 658 530 695 559 725 c 1
 589 566 l 1
 528 512 484 434 448 344 c 0
 401 228 368 92 346 -57 c 1
 297 -57 l 1
EndSplineSet
Validated: 1
EndChar

StartChar: uni0668
Encoding: 1640 1640 72
Width: 636
VWidth: 952
GlyphClass: 2
Flags: MW
LayerCount: 2
Back
Fore
SplineSet
340 716 m 1
 371 454 443 235 589 93 c 1
 546 -67 l 1
 445 34 382 191 345 359 c 0
 331 422 321 487 316 555 c 1
 314 555 l 1
 296 355 243 178 161 43 c 0
 135 0 108 -37 79 -67 c 1
 47 92 l 1
 72 113 96 142 120 178 c 0
 176 263 214 370 246 490 c 0
 264 558 279 633 291 716 c 1
 340 716 l 1
EndSplineSet
Validated: 1
EndChar

StartChar: uni0669
Encoding: 1641 1641 73
Width: 636
VWidth: 952
GlyphClass: 2
Flags: MW
LayerCount: 2
Back
Fore
SplineSet
138 500 m 1
 164 472 195 455 243 455 c 0
 278 455 319 463 340 479 c 1
 334 537 301 582 257 601 c 0
 243 607 229 610 216 610 c 0
 201 610 182 609 171 605 c 1
 151 587 139 549 137 512 c 1
 138 500 l 1
230 340 m 0
 157 340 106 379 70 423 c 1
 70 556 104 660 179 719 c 0
 189 723 210 725 225 725 c 0
 333 725 382 647 403 556 c 0
 411 521 415 483 415 440 c 0
 415 343 428 262 454 195 c 0
 477 136 513 93 566 67 c 1
 556 21 544 -20 534 -66 c 1
 476 -33 433 11 406 76 c 0
 371 161 359 267 354 386 c 1
 335 364 298 352 264 344 c 0
 251 341 240 340 230 340 c 0
EndSplineSet
Validated: 1
EndChar

StartChar: uni066A
Encoding: 1642 1642 74
Width: 623
VWidth: 952
GlyphClass: 2
Flags: MW
LayerCount: 2
Back
Fore
SplineSet
583 10 m 1
 575 5 566 -4 556 -14 c 0
 536 -34 513 -62 496 -87 c 0
 487 -100 479 -113 474 -125 c 1
 451 -89 415 -62 380 -38 c 0
 368 -30 356 -25 345 -20 c 1
 356 -12 366 -2 376 8 c 0
 404 36 430 73 445 113 c 1
 453 102 462 92 473 82 c 0
 505 53 539 27 583 10 c 1
101 -148 m 1
 40 -148 l 1
 526 778 l 1
 587 778 l 1
 101 -148 l 1
277 651 m 1
 257 638 237 614 220 594 c 0
 202 572 181 543 168 517 c 1
 139 562 91 600 40 623 c 1
 51 630 61 640 71 650 c 0
 100 679 123 715 141 755 c 1
 166 721 202 693 239 670 c 0
 252 662 264 656 277 651 c 1
EndSplineSet
Validated: 1
EndChar

StartChar: uni066B
Encoding: 1643 1643 75
Width: 317
VWidth: 952
GlyphClass: 2
Flags: MW
LayerCount: 2
Back
Fore
SplineSet
6 -250 m 1
 -54 -250 l 1
 237 515 l 1
 301 515 l 1
 6 -250 l 1
EndSplineSet
Validated: 1
Substitution2: "'calt' Contextual Alternates in Arabic lookup 10 subtable" uni066B.ar
EndChar

StartChar: uni066C
Encoding: 1644 1644 76
Width: 317
VWidth: 952
GlyphClass: 2
Flags: MW
LayerCount: 2
Back
Fore
SplineSet
180 153 m 0
 227 153 250 118 250 68 c 0
 250 19 229 -20 205 -51 c 0
 174 -90 130 -125 82 -149 c 1
 42 -119 l 1
 86 -101 127 -70 155 -38 c 0
 173 -17 197 12 197 43 c 2
 197 48 l 1
 189 43 180 39 169 39 c 0
 138 39 115 64 115 95 c 0
 115 132 143 153 180 153 c 0
EndSplineSet
Validated: 1
Substitution2: "'calt' Contextual Alternates in Arabic lookup 10 subtable" uni066C.ar
EndChar

StartChar: uni066B.ar
Encoding: 65537 -1 77
Width: 317
VWidth: 952
GlyphClass: 2
Flags: MW
LayerCount: 2
Back
Fore
SplineSet
93 30 m 0
 93 75 127 109 172 109 c 0
 218 109 248 79 264 45 c 0
 271 30 275 11 275 -11 c 0
 275 -59 261 -95 240 -126 c 0
 212 -168 173 -198 129 -228 c 1
 81 -200 l 1
 128 -175 162 -149 183 -124 c 0
 204 -99 215 -74 215 -51 c 0
 215 -48 214 -44 214 -41 c 0
 214 -38 214 -35 213 -32 c 1
 202 -41 189 -49 172 -49 c 0
 126 -49 93 -16 93 30 c 0
EndSplineSet
Validated: 1
EndChar

StartChar: uni066C.ar
Encoding: 65538 -1 78
Width: 317
VWidth: 952
GlyphClass: 2
Flags: MW
LayerCount: 2
Back
Fore
SplineSet
172 296 m 0
 172 326 195 349 225 349 c 0
 256 349 275 329 286 306 c 0
 291 296 293 284 293 269 c 0
 293 240 285 214 270 191 c 0
 255 168 231 146 196 123 c 1
 164 141 l 1
 195 158 218 176 232 193 c 0
 246 210 253 227 253 243 c 2
 253 248 l 2
 253 250 253 252 252 254 c 1
 244 248 236 244 225 244 c 0
 195 244 172 266 172 296 c 0
EndSplineSet
Validated: 1
EndChar

StartChar: uni06F4
Encoding: 1780 1780 83
Width: 636
VWidth: 952
GlyphClass: 2
Flags: MW
LayerCount: 2
Back
Fore
SplineSet
388 427 m 0
 341 427 289 440 257 456 c 1
 252 456 l 2
 250 456 250 455 249 455 c 1
 298 357 330 252 335 110 c 0
 336 83 336 54 336 25 c 2
 336 1 l 1
 269 -90 l 1
 269 -69 l 2
 269 -52 268 -37 268 -22 c 0
 268 44 261 107 249 165 c 0
 214 341 137 466 49 603 c 1
 71 645 93 683 115 725 c 1
 153 674 185 634 224 595 c 0
 248 571 270 554 300 542 c 1
 296 559 291 581 291 600 c 2
 291 603 l 2
 291 690 336 748 423 748 c 0
 457 748 489 739 511 726 c 1
 521 697 532 670 542 640 c 1
 513 653 475 664 433 664 c 0
 386 664 352 650 341 616 c 1
 350 573 373 546 408 530 c 0
 419 525 432 523 445 523 c 0
 468 523 496 533 516 540 c 0
 540 548 569 561 587 572 c 1
 582 556 577 540 572 524 c 0
 567 508 562 493 557 477 c 1
 540 463 505 452 480 444 c 0
 453 436 419 427 388 427 c 0
EndSplineSet
Validated: 1
EndChar

StartChar: uni06F5
Encoding: 1781 1781 84
Width: 636
VWidth: 952
GlyphClass: 2
Flags: MW
LayerCount: 2
Back
Fore
SplineSet
147 145 m 0
 147 91 167 52 219 52 c 0
 245 52 265 71 276 89 c 0
 289 109 299 141 299 173 c 1
 348 173 l 1
 348 124 360 80 390 62 c 0
 400 56 411 52 424 52 c 0
 460 52 481 76 492 104 c 0
 497 117 500 135 500 156 c 0
 500 189 494 222 484 256 c 0
 451 370 380 465 301 535 c 1
 242 440 186 340 158 222 c 0
 151 193 147 168 147 145 c 0
319 48 m 1
 309 2 274 -30 236 -48 c 0
 223 -54 209 -57 196 -57 c 0
 134 -57 99 -13 84 36 c 0
 78 55 74 75 74 98 c 0
 74 152 90 217 120 294 c 0
 150 371 196 461 257 564 c 0
 254 566 251 568 247 572 c 2
 235 584 l 2
 231 588 226 590 222 594 c 0
 218 598 214 602 210 605 c 1
 263 726 l 1
 358 643 437 559 494 452 c 0
 537 371 562 284 562 169 c 0
 562 77 539 -4 484 -40 c 0
 467 -51 448 -57 426 -57 c 0
 382 -57 352 -29 336 1 c 0
 329 14 324 30 321 48 c 1
 319 48 l 1
EndSplineSet
Validated: 1
EndChar

StartChar: uni06F6
Encoding: 1782 1782 85
Width: 636
VWidth: 952
GlyphClass: 2
Flags: MW
LayerCount: 2
Back
Fore
SplineSet
489 587 m 1
 447 610 398 628 336 628 c 0
 259 628 210 584 177 538 c 1
 184 506 216 475 242 458 c 0
 273 438 317 422 366 422 c 0
 400 422 435 433 466 442 c 0
 509 454 555 470 592 489 c 1
 518 351 l 1
 474 340 432 320 390 292 c 0
 247 197 141 54 43 -90 c 1
 43 39 l 1
 61 73 89 110 113 143 c 0
 152 196 197 251 242 296 c 0
 255 309 266 319 275 326 c 1
 208 338 152 374 124 424 c 0
 115 440 110 456 109 473 c 1
 124 537 147 603 179 651 c 1
 215 695 265 725 337 725 c 0
 358 725 381 719 399 714 c 0
 419 709 442 702 458 693 c 1
 489 587 l 1
EndSplineSet
Validated: 1
EndChar

StartChar: As
Encoding: 65539 -1 89
Width: 351
VWidth: 952
GlyphClass: 2
Flags: MW
LayerCount: 2
Back
Fore
SplineSet
214 248 m 2
 214 224 212 198 212 174 c 0
 212 161 211 149 210 137 c 0
 209 109 208 80 207 50 c 1
 140 -29 l 1
 116 -7 l 1
 149 55 l 1
 149 204 l 2
 149 302 145 383 125 456 c 0
 120 474 115 493 110 510 c 1
 189 588 l 1
 202 515 214 452 214 364 c 2
 214 248 l 2
EndSplineSet
Validated: 1
EndChar

StartChar: uniFE8D
Encoding: 65165 65165 90
Width: 296
VWidth: 952
GlyphClass: 2
Flags: MW
AnchorPoint: "Anchor-1" 146 -102 basechar 0
AnchorPoint: "Anchor-0" 117 831 basechar 0
LayerCount: 2
Back
Fore
SplineSet
110 -29 m 1
 86 -7 l 1
 120 55 l 1
 120 309 l 2
 120 421 113 533 95 626 c 0
 90 652 86 675 81 692 c 1
 159 770 l 1
 172 688 181 608 184 514 c 0
 185 478 185 435 185 386 c 0
 185 355 184 324 184 294 c 0
 184 210 180 129 177 50 c 1
 110 -29 l 1
EndSplineSet
Validated: 1
EndChar

StartChar: Af
Encoding: 65540 -1 91
Width: 383
VWidth: 952
GlyphClass: 2
Flags: MW
LayerCount: 2
Back
Fore
SplineSet
202 588 m 1
 212 553 214 511 214 467 c 0
 214 379 214 291 214 203 c 0
 214 123 250 93 329 93 c 2
 384 93 l 1
 384 -1 l 1
 314 -1 l 2
 244 -1 207 14 182 58 c 0
 153 109 152 185 152 273 c 2
 152 318 l 2
 152 330.222222222 152.049382716 341.851851852 152.049382716 353.031550069 c 0
 152.049382716 392.160493827 151.444444444 425.777777778 146 460 c 1
 118 452 l 1
 102 473 l 1
 202 588 l 1
EndSplineSet
Validated: 1
EndChar

StartChar: uniFE8E
Encoding: 65166 65166 92
Width: 322
VWidth: 952
GlyphClass: 2
Flags: MW
AnchorPoint: "Anchor-1" 146 -102 basechar 0
AnchorPoint: "Anchor-0" 110 831 basechar 0
LayerCount: 2
Back
Fore
SplineSet
159 770 m 1
 169 735 171 695 171 649 c 0
 171 500 171 352 171 203 c 0
 171 144 189 108 236 98 c 0
 250 95 266 93 284 93 c 2
 322 93 l 1
 322 -1 l 1
 270 -1 l 2
 201 -1 161 13 138 58 c 0
 110 111 109 185 109 273 c 2
 109 500 l 2
 109 512.222222222 109.049382716 523.851851852 109.049382716 535.042524005 c 0
 109.049382716 574.209876543 108.444444444 608 103 643 c 1
 75 634 l 1
 59 655 l 1
 159 770 l 1
EndSplineSet
Validated: 1
EndChar

StartChar: Bs
Encoding: 65541 -1 93
Width: 1078
VWidth: 952
GlyphClass: 2
Flags: MW
LayerCount: 2
Back
Fore
SplineSet
195 352 m 1
 172 313 144 274 144 213 c 0
 144 164 172 136 208 116 c 0
 230 104 258 96 292 90 c 0
 326 84 367 80 415 80 c 0
 531 80 644 94 744 109 c 0
 817 120 891 135 953 154 c 1
 941 190 926 229 910 262 c 2
 896 290 l 2
 892 298 887 305 884 309 c 1
 937 407 l 1
 968 353 984 281 1004 216 c 0
 1007 206 1008 199 1008 194 c 0
 1004 176 992 150 984 132 c 0
 975 112 964 86 952 72 c 0
 945 69 932 66 911 60 c 0
 791 26 642 0 500 -14 c 0
 459 -18 421 -19 384 -19 c 0
 282 -19 200 -5 142 32 c 0
 99 59 70 98 70 161 c 0
 70 207 82 242 95 276 c 0
 109 313 131 342 149 376 c 1
 195 352 l 1
EndSplineSet
Validated: 1
EndChar

StartChar: Bf
Encoding: 65542 -1 94
Width: 1141
VWidth: 952
GlyphClass: 2
Flags: MW
LayerCount: 2
Back
Fore
SplineSet
988 160 m 0
 988 95 1045 93 1110 93 c 2
 1142 93 l 1
 1142 -1 l 1
 1096 -1 l 2
 1056 -1 1027 12 1002 28 c 0
 975 46 955 73 949 112 c 1
 942 99 927 86 906 74 c 0
 832 31 722 12 616 -2 c 0
 544 -11 461 -19 384 -19 c 0
 282 -19 200 -5 142 32 c 0
 99 59 70 98 70 161 c 0
 70 207 82 242 95 276 c 0
 109 313 131 342 149 376 c 1
 195 352 l 1
 172 313 144 274 144 213 c 0
 144 164 172 136 208 116 c 0
 230 104 258 96 292 90 c 0
 326 84 368 80 415 80 c 0
 555 80 691 96 804 124 c 0
 844 134 887 148 910 173 c 0
 930 195 944 224 954 255 c 0
 959 270 964 286 970 301 c 1
 1018 284 l 1
 1008 258 997 218 992 187 c 0
 990 175 988 166 988 160 c 0
EndSplineSet
Validated: 1
EndChar

StartChar: Bi
Encoding: 65543 -1 95
Width: 317
VWidth: 952
GlyphClass: 2
Flags: MW
LayerCount: 2
Back
Fore
SplineSet
41 93 m 2
 113 93 167 105 192 150 c 1
 189 195 163 238 142 267 c 0
 134 278 127 286 121 292 c 1
 176 399 l 1
 211 349 232 279 245 209 c 0
 247 198 249 188 250 179 c 0
 239 109 200 49 150 16 c 0
 132 4 111 -1 88 -1 c 2
 0 -1 l 2
 -13 -1 -34 4 -34 16 c 2
 -34 93 l 1
 41 93 l 2
EndSplineSet
Validated: 1
EndChar

StartChar: Bm
Encoding: 65544 -1 96
Width: 343
VWidth: 952
GlyphClass: 2
Flags: MW
LayerCount: 2
Back
Fore
SplineSet
19 93 m 2
 97 93 148 125 148 204 c 2
 148 281 l 1
 200 281 l 1
 201 203 l 2
 201 123 236 93 315 93 c 2
 344 93 l 1
 344 -1 l 1
 301 -1 l 2
 249 -1 209 26 188 56 c 0
 181 66 177 76 176 85 c 0
 175 85 173 84 170 82 c 0
 159 39 122 17 78 6 c 0
 62 2 45 -1 27 -1 c 2
 0 -1 l 2
 -13 -1 -34 4 -34 16 c 2
 -34 93 l 1
 19 93 l 2
EndSplineSet
Validated: 1
EndChar

StartChar: Js
Encoding: 65545 -1 97
Width: 736
VWidth: 952
GlyphClass: 2
Flags: MW
LayerCount: 2
Back
Fore
SplineSet
154 36 m 0
 154 -109 275 -161 434 -161 c 0
 512 -161 576 -153 641 -139 c 1
 636 -148 l 2
 628 -163 619 -186 612 -201 c 1
 594 -206 574 -210 552 -214 c 0
 530 -218 508 -223 485 -226 c 0
 446 -231 403 -236 363 -236 c 0
 276 -236 199 -214 146 -176 c 0
 94 -139 54 -76 54 10 c 0
 54 73 78 120 108 157 c 0
 172 236 273 295 401 309 c 1
 381 316 358 333 339 346 c 0
 327 354 314 360 301 368 c 0
 277 383 252 396 223 405 c 0
 210 409 198 411 187 411 c 0
 175 411 163 400 156 393 c 2
 99 342 l 1
 79 362 l 1
 135 458 l 2
 146 478 168 496 198 496 c 0
 236 496 272 476 302 461 c 0
 362 431 422 394 488 371 c 0
 508 364 527 361 545 361 c 2
 592 361 l 2
 613 361 631 361 648 364 c 0
 654 365 660 366 666 367 c 1
 662 352 656 339 653 324 c 2
 642 283 l 1
 511 281 l 2
 409 281 327 247 264 206 c 0
 222 179 188 143 168 98 c 0
 159 78 154 57 154 36 c 0
EndSplineSet
Validated: 1
EndChar

StartChar: Jf
Encoding: 65546 -1 98
Width: 736
VWidth: 952
GlyphClass: 2
Flags: MW
LayerCount: 2
Back
Fore
SplineSet
154 36 m 0
 154 -109 275 -161 434 -161 c 0
 512 -161 576 -153 641 -139 c 1
 636 -148 l 2
 628 -163 619 -186 612 -201 c 1
 594 -206 574 -210 552 -214 c 0
 530 -218 508 -223 485 -226 c 0
 446 -231 403 -236 363 -236 c 0
 276 -236 199 -214 146 -176 c 0
 94 -139 54 -76 54 10 c 0
 54 73 78 120 108 157 c 0
 172 236 273 295 401 309 c 1
 381 316 358 333 339 346 c 0
 327 354 314 360 301 368 c 0
 277 383 252 396 223 405 c 0
 210 409 198 411 187 411 c 0
 175 411 163 400 156 393 c 2
 99 342 l 1
 79 362 l 1
 135 458 l 2
 146 478 168 496 198 496 c 0
 236 496 272 476 302 461 c 0
 362 431 422 394 488 371 c 0
 508 364 527 361 545 361 c 0
 559.666666667 361 574.444444444 360.777777778 588.851851852 360.777777778 c 0
 617.666666667 360.777777778 645 361.666666667 667 367 c 1
 665 358 660 350 658 340 c 0
 657 335 655 329 653 324 c 2
 641 283 l 1
 573 284 l 1
 587 202 613 132 675 103 c 0
 690 96 706 93 722 93 c 2
 736 93 l 1
 736 -1 l 1
 722 -1 l 2
 667 -1 630 33 602 69 c 0
 562 120 538 195 529 281 c 1
 511 281 l 2
 408 281 328 247 264 206 c 0
 222 179 188 143 168 98 c 0
 159 78 154 57 154 36 c 0
EndSplineSet
Validated: 1
EndChar

StartChar: Ji
Encoding: 65547 -1 99
Width: 736
VWidth: 952
GlyphClass: 2
Flags: MW
LayerCount: 2
Back
Fore
SplineSet
0 -1 m 2
 -13 -1 -34 4 -34 16 c 2
 -34 93 l 1
 201 93 l 2
 255 93 301 109 341 126 c 0
 383 143 429 165 456 195 c 1
 422 208 389 227 358 244 c 0
 314 269 272 298 224 317 c 0
 211 322 198 324 187 324 c 0
 182 324 177 322 172 318 c 0
 167 314 161 311 156 306 c 2
 100 255 l 1
 79 274 l 1
 136 371 l 2
 148 392 167 409 199 409 c 0
 244 409 282 387 315 369 c 0
 375 336 430 293 495 266 c 0
 514 258 533 255 552 255 c 2
 578 255 l 2
 612 255 644 259 673 265 c 1
 649 181 l 1
 605 181 548 178 518 163 c 0
 435 113 373 33 268 7 c 0
 248 2 227 -1 204 -1 c 2
 0 -1 l 2
EndSplineSet
Validated: 1
EndChar

StartChar: Jm
Encoding: 65548 -1 100
Width: 751
VWidth: 952
GlyphClass: 2
Flags: MW
LayerCount: 2
Back
Fore
SplineSet
563 175 m 1
 576 104 638 93 723 93 c 2
 751 93 l 1
 751 -1 l 1
 709 -1 l 2
 628 -1 572 40 541 92 c 0
 529 112 522 137 520 164 c 1
 470 134 427 94 379 60 c 0
 346 37 310 20 268 8 c 0
 248 2 227 -1 204 -1 c 2
 0 -1 l 2
 -13 -1 -34 4 -34 16 c 2
 -34 93 l 1
 201 93 l 2
 255 93 301 109 341 126 c 0
 383 143 429 165 456 195 c 1
 422 208 389 227 358 244 c 0
 314 269 272 298 224 317 c 0
 211 322 198 324 187 324 c 0
 170 324 163 318 152 305 c 2
 96 254 l 1
 75 273 l 1
 132 370 l 1
 141 395 166 409 199 409 c 0
 244 409 282 387 315 369 c 0
 375 336 430 293 495 266 c 0
 514 258 533 255 552 255 c 2
 578 255 l 2
 612 255 644 259 673 265 c 1
 649 181 l 1
 644 181 638 180 631 180 c 2
 610 180 l 2
 594 180 577 177 563 175 c 1
EndSplineSet
Validated: 1
EndChar

StartChar: Ds
Encoding: 65549 -1 101
Width: 562
VWidth: 952
GlyphClass: 2
Flags: MW
LayerCount: 2
Back
Fore
SplineSet
116 119 m 1
 132 82 168 75 222 75 c 0
 269 75 312 84 350 94 c 0
 390 105 429 121 450 149 c 1
 432 203 412 247 384 290 c 0
 353 337 319 376 278 417 c 1
 333 501 l 1
 372 467 404 425 430 380 c 0
 459 329 482 272 490 205 c 0
 492 189 494 175 494 164 c 2
 494 136 l 2
 494 112 486 90 479 70 c 1
 448 41 401 23 354 8 c 0
 313 -5 263 -15 214 -15 c 0
 174 -15 134 -11 110 -1 c 1
 68 100 l 1
 116 119 l 1
EndSplineSet
Validated: 1
EndChar

StartChar: Df
Encoding: 65550 -1 102
Width: 658
VWidth: 952
GlyphClass: 2
Flags: MW
LayerCount: 2
Back
Fore
SplineSet
659 -1 m 1
 601 -1 l 2
 573 -1 551 11 533 26 c 0
 502 52 479 91 459 136 c 1
 459 120 l 2
 459 113 458 105 458 97 c 0
 458 83 457 64 455 52 c 1
 426 31 378 15 338 4 c 0
 301 -6 256 -14 213 -14 c 0
 180 -14 148 -12 124 -4 c 0
 118 -2 113 -1 109 0 c 2
 67 101 l 1
 116 120 l 1
 123 104 128 94 144 86 c 0
 164 76 188 76 221 76 c 0
 286 76 347 89 392 110 c 0
 414 120 437 132 449 150 c 1
 443 165 435 181 426 200 c 0
 417 219 408 241 396 264 c 0
 368 317 343 373 316 432 c 1
 351 517 l 1
 404 402 448 296 502 192 c 0
 514 169 528 151 540 136 c 0
 559 112 582 93 620 93 c 2
 659 93 l 1
 659 -1 l 1
EndSplineSet
Validated: 1
EndChar

StartChar: Rs
Encoding: 65551 -1 103
Width: 526
VWidth: 952
GlyphClass: 2
Flags: MW
LayerCount: 2
Back
Fore
SplineSet
394 341 m 1
 420 287 439 236 450 171 c 0
 453 153 455 133 458 110 c 1
 455 36 439 -17 408 -64 c 0
 396 -82 380 -99 361 -117 c 0
 313 -162 255 -200 188 -236 c 1
 134 -232 76 -223 32 -208 c 0
 17 -203 7 -198 0 -193 c 1
 122 -161 226 -124 308 -59 c 0
 351 -25 383 14 391 78 c 1
 388 90 385 102 382 114 c 0
 379 126 375 137 370 150 c 0
 357 185 343 211 322 244 c 1
 394 341 l 1
EndSplineSet
Validated: 1
EndChar

StartChar: Rf
Encoding: 65552 -1 104
Width: 613
VWidth: 952
GlyphClass: 2
Flags: MW
LayerCount: 2
Back
Fore
SplineSet
397 107 m 0
 390 156 377 199 357 240 c 1
 436 326 l 1
 460 202 l 2
 471 149 483 104 536 96 c 0
 550 94 566 93 585 93 c 2
 613 93 l 1
 613 -1 l 1
 571 -1 l 2
 511 -1 486 27 458 61 c 1
 454 61 l 1
 442 -48 382 -105 308 -160 c 0
 276 -184 236 -209 188 -236 c 1
 134 -232 76 -223 32 -208 c 0
 17 -203 7 -198 0 -193 c 1
 59 -177 109 -161 151 -144 c 0
 244 -106 323 -69 368 7 c 0
 378 24 384 40 388 57 c 0
 392 74 396 90 397 107 c 0
EndSplineSet
Validated: 1
EndChar

StartChar: Ss
Encoding: 65553 -1 105
Width: 1251
VWidth: 952
GlyphClass: 2
Flags: MW
LayerCount: 2
Back
Fore
SplineSet
132 -11 m 0
 132 -102 206 -136 302 -136 c 0
 358 -136 417 -122 466 -108 c 0
 521 -93 580 -68 620 -40 c 1
 620 -3 613 24 602 52 c 0
 587 91 569 121 546 157 c 1
 559 180 576 206 590 230 c 0
 596 240 599 247 604 256 c 1
 619 223 632 195 644 174 c 0
 669 130 690 93 752 93 c 0
 801 93 824 118 842 148 c 0
 854 167 858 189 862 216 c 0
 864 228 865 239 865 250 c 1
 917 247 l 1
 916 242 916 234 916 224 c 2
 916 177 l 2
 916 137 941 113 970 100 c 0
 981 95 993 93 1006 93 c 0
 1056 93 1088 99 1110 125 c 0
 1116 132 1121 141 1126 150 c 1
 1123 195 1097 238 1076 267 c 0
 1068 278 1061 286 1055 292 c 1
 1110 399 l 1
 1132 368 1148 328 1160 287 c 0
 1170 253 1180 217 1184 179 c 1
 1169 100 1141 42 1078 12 c 0
 1059 3 1036 -1 1010 -1 c 0
 964 -1 922 22 900 49 c 0
 891 60 885 72 883 86 c 1
 881 86 l 1
 866 38 828 -1 765 -1 c 0
 724 -1 701 5 681 25 c 1
 681 -39 653 -87 630 -128 c 1
 603 -151 563 -169 526 -184 c 0
 456 -212 374 -235 280 -235 c 0
 157 -235 59 -188 59 -65 c 0
 59 3 81 63 104 115 c 0
 115 140 127 165 142 190 c 1
 188 166 l 1
 163 128 146 80 136 29 c 0
 133 14 132 1 132 -11 c 0
EndSplineSet
Validated: 1
EndChar

StartChar: Sf
Encoding: 65554 -1 106
Width: 1306
VWidth: 952
GlyphClass: 2
Flags: MW
LayerCount: 2
Back
Fore
SplineSet
132 -11 m 0
 132 -102 206 -136 302 -136 c 0
 358 -136 417 -122 466 -108 c 0
 521 -93 580 -68 620 -40 c 1
 620 -3 613 24 602 52 c 0
 587 91 569 121 546 157 c 1
 559 180 576 206 590 230 c 0
 596 240 599 247 604 256 c 1
 619 223 632 195 644 174 c 0
 669 130 690 93 752 93 c 0
 801 93 824 118 842 148 c 0
 854 167 858 189 862 216 c 0
 864 228 865 239 865 250 c 1
 917 247 l 1
 916 242 916 234 916 224 c 2
 916 177 l 2
 916 137 941 113 970 100 c 0
 981 95 993 93 1006 93 c 0
 1085 93 1107 173 1110 250 c 1
 1162 247 l 1
 1161 242 1161 234 1161 224 c 2
 1161 177 l 2
 1161 139 1187 112 1214 100 c 0
 1225 95 1238 93 1251 93 c 2
 1307 93 l 1
 1307 -1 l 1
 1255 -1 l 2
 1226 -1 1198 10 1178 22 c 0
 1156 35 1132 56 1128 86 c 1
 1126 86 l 1
 1111 37 1073 -1 1010 -1 c 0
 964 -1 922 22 900 49 c 0
 891 60 885 72 883 86 c 1
 881 86 l 1
 866 38 828 -1 765 -1 c 0
 724 -1 701 5 681 25 c 1
 681 -39 653 -87 630 -128 c 1
 603 -151 563 -169 526 -184 c 0
 456 -212 374 -235 280 -235 c 0
 157 -235 59 -188 59 -65 c 0
 59 3 81 63 104 115 c 0
 115 140 127 165 142 190 c 1
 188 166 l 1
 163 128 146 80 136 29 c 0
 133 14 132 1 132 -11 c 0
EndSplineSet
Validated: 1
EndChar

StartChar: Si
Encoding: 65555 -1 107
Width: 929
VWidth: 952
GlyphClass: 2
Flags: MW
LayerCount: 2
Back
Fore
SplineSet
861 179 m 0
 843 82 801 -1 688 -1 c 0
 642 -1 599 22 577 49 c 0
 568 60 562 72 560 86 c 1
 558 86 l 1
 543 37 505 -1 442 -1 c 0
 396 -1 354 22 332 49 c 0
 323 60 317 72 315 86 c 1
 313 86 l 1
 296 32 235 -1 165 -1 c 2
 0 -1 l 2
 -13 -1 -34 4 -34 16 c 2
 -34 93 l 1
 161 93 l 2
 229 93 267 137 286 188 c 0
 293 207 296 228 297 250 c 1
 349 247 l 1
 348 242 348 234 348 224 c 2
 348 177 l 2
 348 137 373 113 402 100 c 0
 413 95 425 93 438 93 c 0
 497 93 522 140 535 188 c 0
 540 207 542 228 542 250 c 1
 594 247 l 1
 593 242 593 234 593 224 c 2
 593 177 l 2
 593 139 619 112 646 100 c 0
 657 95 670 93 683 93 c 0
 733 93 766 99 788 125 c 0
 794 132 799 141 804 150 c 1
 801 195 775 238 754 267 c 0
 746 278 739 286 732 292 c 1
 787 399 l 1
 822 349 843 281 856 209 c 0
 858 198 860 188 861 179 c 0
EndSplineSet
Validated: 1
EndChar

StartChar: Sm
Encoding: 65556 -1 108
Width: 983
VWidth: 952
GlyphClass: 2
Flags: MW
LayerCount: 2
Back
Fore
SplineSet
0 -1 m 2
 -13 -1 -34 4 -34 16 c 2
 -34 93 l 1
 161 93 l 2
 229 93 267 137 286 188 c 0
 293 207 296 228 297 250 c 1
 349 247 l 1
 348 242 348 234 348 224 c 2
 348 177 l 2
 348 137 373 113 402 100 c 0
 413 95 425 93 438 93 c 0
 497 93 522 140 535 188 c 0
 540 207 542 228 542 250 c 1
 594 247 l 1
 593 242 593 234 593 224 c 2
 593 177 l 2
 593 139 619 112 646 100 c 0
 657 95 670 93 683 93 c 0
 762 93 785 173 788 250 c 1
 839 247 l 1
 838 242 838 234 838 224 c 2
 838 177 l 2
 838 137 863 113 892 100 c 0
 903 95 915 93 928 93 c 2
 984 93 l 1
 984 -1 l 1
 933 -1 l 2
 903 -1 876 11 855 22 c 0
 831 35 811 56 805 86 c 1
 803 86 l 1
 788 37 751 -1 688 -1 c 0
 642 -1 599 22 577 49 c 0
 568 60 562 72 560 86 c 1
 558 86 l 1
 543 37 505 -1 442 -1 c 0
 396 -1 354 22 332 49 c 0
 323 60 317 72 315 86 c 1
 313 86 l 1
 296 32 235 -1 165 -1 c 2
 0 -1 l 2
EndSplineSet
Validated: 1
EndChar

StartChar: Zs
Encoding: 65557 -1 109
Width: 1333
VWidth: 952
GlyphClass: 2
Flags: MW
LayerCount: 2
Back
Fore
SplineSet
968 93 m 2
 1023 93 1069 102 1110 114 c 0
 1147 125 1175 143 1200 163 c 1
 1200 197 1182 235 1166 256 c 0
 1149 278 1121 301 1086 301 c 0
 1066 301 1046 296 1026 286 c 0
 976 261 936 221 896 178 c 0
 873 153 849 124 824 93 c 1
 968 93 l 2
132 -11 m 0
 132 -102 206 -136 302 -136 c 0
 358 -136 417 -122 466 -108 c 0
 521 -93 580 -68 620 -40 c 1
 620 -3 613 24 602 52 c 0
 587 91 569 121 546 157 c 1
 559 180 576 206 590 230 c 0
 596 240 599 247 604 256 c 1
 619 221 633 193 645 172 c 0
 657 151 669 134 680 122 c 0
 701 99 720 93 761 93 c 1
 821 178 878 255 950 314 c 0
 997 353 1047 385 1120 385 c 0
 1199 385 1243 323 1264 264 c 0
 1272 242 1275 221 1275 200 c 1
 1215 97 1141 28 1002 8 c 0
 960 2 912 -1 857 -1 c 2
 765 -1 l 2
 724 -1 701 5 681 25 c 1
 681 -39 653 -87 630 -128 c 1
 603 -151 563 -169 526 -184 c 0
 456 -212 374 -235 280 -235 c 0
 157 -235 59 -188 59 -65 c 0
 59 3 81 63 104 115 c 0
 115 140 127 165 142 190 c 1
 188 166 l 1
 163 128 146 80 136 29 c 0
 133 14 132 1 132 -11 c 0
EndSplineSet
Validated: 1
EndChar

StartChar: Zf
Encoding: 65558 -1 110
Width: 1366
VWidth: 952
GlyphClass: 2
Flags: MW
LayerCount: 2
Back
Fore
SplineSet
968 93 m 2
 1023 93 1069 102 1110 114 c 0
 1147 125 1175 143 1200 163 c 1
 1200 197 1182 235 1166 256 c 0
 1149 278 1121 301 1086 301 c 0
 1066 301 1046 296 1026 286 c 0
 976 261 936 221 896 178 c 0
 873 153 849 124 824 93 c 1
 968 93 l 2
1195 101 m 1
 1207 94 1226 93 1244 93 c 2
 1367 93 l 1
 1367 -1 l 1
 1271 -1 l 2
 1241 -1 1214 1 1186 6 c 0
 1150 12 1113 22 1082 35 c 1
 1016 9 950 -1 857 -1 c 2
 765 -1 l 2
 724 -1 701 5 681 25 c 1
 681 -39 653 -87 630 -128 c 1
 603 -151 563 -169 526 -184 c 0
 456 -212 374 -235 280 -235 c 0
 157 -235 59 -188 59 -65 c 0
 59 3 81 63 104 115 c 0
 115 140 127 165 142 190 c 1
 188 166 l 1
 163 128 146 80 136 29 c 0
 133 14 132 1 132 -11 c 0
 132 -102 206 -136 302 -136 c 0
 358 -136 417 -122 466 -108 c 0
 521 -93 580 -68 620 -40 c 1
 620 -3 613 24 602 52 c 0
 587 91 569 121 546 157 c 1
 559 180 576 206 590 230 c 0
 596 240 599 247 604 256 c 1
 619 221 633 193 645 172 c 0
 657 151 669 134 680 122 c 0
 701 99 720 93 761 93 c 1
 821 178 878 255 950 314 c 0
 997 353 1047 385 1120 385 c 0
 1199 385 1243 323 1264 264 c 0
 1272 242 1275 221 1275 200 c 1
 1252 161 1227 129 1195 101 c 1
EndSplineSet
Validated: 1
EndChar

StartChar: Zi
Encoding: 65559 -1 111
Width: 896
VWidth: 952
GlyphClass: 2
Flags: MW
LayerCount: 2
Back
Fore
SplineSet
530 93 m 2
 629 93 710 117 762 163 c 1
 762 197 744 235 728 256 c 0
 711 278 684 301 649 301 c 0
 596 301 560 272 526 244 c 0
 475 202 432 149 387 93 c 1
 530 93 l 2
0 -1 m 2
 -13 -1 -34 4 -34 16 c 2
 -34 93 l 1
 53 93 l 2
 97 93 129 115 150 140 c 0
 173 167 187 209 189 255 c 1
 241 252 l 1
 240 247 240 239 240 227 c 2
 240 177 l 2
 240 122 267 93 323 93 c 1
 383 179 441 254 513 314 c 0
 560 353 609 385 682 385 c 0
 734 385 770 355 794 324 c 0
 818 293 836 249 838 200 c 1
 778 96 703 28 564 8 c 0
 522 2 474 -1 419 -1 c 2
 367 -1 l 2
 303 -1 252 13 226 49 c 0
 218 60 213 72 208 86 c 1
 205 86 l 1
 188 32 127 -1 57 -1 c 2
 0 -1 l 2
EndSplineSet
Validated: 1
EndChar

StartChar: Zm
Encoding: 65560 -1 112
Width: 929
VWidth: 952
GlyphClass: 2
Flags: MW
LayerCount: 2
Back
Fore
SplineSet
530 93 m 2
 629 93 710 117 762 163 c 1
 762 197 744 235 728 256 c 0
 711 278 684 301 649 301 c 0
 596 301 560 272 526 244 c 0
 475 202 432 149 387 93 c 1
 530 93 l 2
757 101 m 1
 769 94 788 93 807 93 c 2
 929 93 l 1
 929 -1 l 1
 833 -1 l 2
 803 -1 775 1 748 6 c 0
 714 12 677 22 646 35 c 1
 580 9 512 -1 419 -1 c 2
 367 -1 l 2
 303 -1 252 13 226 49 c 0
 218 60 213 72 208 86 c 1
 205 86 l 1
 188 32 127 -1 57 -1 c 2
 0 -1 l 2
 -13 -1 -34 4 -34 16 c 2
 -34 93 l 1
 53 93 l 2
 97 93 129 115 150 140 c 0
 173 167 187 209 189 255 c 1
 241 252 l 1
 240 247 240 239 240 227 c 2
 240 177 l 2
 240 122 267 93 323 93 c 1
 383 179 441 254 513 314 c 0
 560 353 609 385 682 385 c 0
 734 385 770 355 794 324 c 0
 818 293 836 249 838 200 c 1
 815 162 789 129 757 101 c 1
EndSplineSet
Validated: 1
EndChar

StartChar: Ts
Encoding: 65561 -1 113
Width: 781
VWidth: 952
GlyphClass: 2
Flags: MW
LayerCount: 2
Back
Fore
SplineSet
377 93 m 2
 434 93 492 103 538 114 c 0
 579 124 621 142 647 163 c 1
 647 200 629 234 612 256 c 0
 595 278 569 301 534 301 c 0
 514 301 492 296 468 286 c 0
 409 261 359 222 312 178 c 0
 285 153 259 124 234 93 c 1
 377 93 l 2
96 112 m 1
 123 106 150 93 182 93 c 1
 182 274 175 458 151 610 c 0
 145 648 138 675 131 692 c 1
 142 705 153 719 164 732 c 0
 175 745 186 757 196 770 c 1
 279 603 l 1
 258 588 l 1
 220 611 l 1
 227 523 233 419 236 326 c 0
 238 274 239 218 239 168 c 1
 298 238 352 294 422 338 c 0
 465 365 508 385 567 385 c 0
 618 385 656 355 680 324 c 0
 704 293 721 248 723 200 c 1
 661 91 565 28 417 8 c 0
 372 2 322 -1 267 -1 c 2
 227 -1 l 2
 214 -1 202 -1 189 0 c 1
 165 12 142 34 122 52 c 0
 101 71 79 92 64 114 c 1
 96 112 l 1
EndSplineSet
Validated: 1
EndChar

StartChar: Tf
Encoding: 65562 -1 114
Width: 814
VWidth: 952
GlyphClass: 2
Flags: MW
LayerCount: 2
Back
Fore
SplineSet
376 93 m 2
 433 93 491 103 536 114 c 0
 578 125 619 141 646 163 c 1
 646 198 627 235 611 256 c 0
 594 278 567 301 532 301 c 0
 512 301 490 296 466 286 c 0
 407 261 357 222 310 178 c 0
 283 153 257 124 232 93 c 1
 376 93 l 2
638 99 m 1
 656 93 671 91 692 91 c 2
 815 91 l 1
 815 -1 l 1
 719 -1 l 2
 645 -1 582 14 528 36 c 1
 452 7 370 -1 265 -1 c 2
 226 -1 l 2
 214 -1 201 -1 188 0 c 1
 164 12 140 33 120 52 c 0
 100 70 74 92 62 114 c 1
 94 112 l 1
 121 106 148 93 180 93 c 1
 180 273 174 459 150 610 c 0
 144 648 137 675 130 692 c 1
 152 718 173 744 195 770 c 1
 278 603 l 1
 256 588 l 1
 219 611 l 1
 220 599 220 582 222 562 c 0
 232 463 233 347 237 242 c 0
 238 215 238 190 238 168 c 1
 273 209 305 244 335 271 c 0
 384 315 433 356 496 374 c 0
 520 381 543 385 565 385 c 0
 644 385 689 323 710 264 c 0
 718 242 721 221 721 200 c 1
 707 168 686 141 662 120 c 0
 654 113 646 106 638 99 c 1
EndSplineSet
Validated: 1
EndChar

StartChar: Ti
Encoding: 65563 -1 115
Width: 716
VWidth: 952
GlyphClass: 2
Flags: MW
LayerCount: 2
Back
Fore
SplineSet
312 93 m 2
 369 93 427 103 473 114 c 0
 515 124 556 141 582 163 c 1
 582 197 564 235 548 256 c 0
 531 278 504 301 469 301 c 0
 449 301 426 296 402 286 c 0
 343 261 294 222 247 178 c 0
 220 153 194 124 169 93 c 1
 312 93 l 2
0 -1 m 2
 -13 -1 -34 4 -34 16 c 2
 -34 93 l 1
 117 93 l 1
 117 274 110 458 86 610 c 0
 80 648 73 675 66 692 c 1
 88 718 111 744 131 770 c 1
 214 603 l 1
 193 588 l 1
 155 611 l 1
 160 549 166 480 168 412 c 0
 171 331 174 248 174 168 c 1
 209 209 241 244 271 271 c 0
 320 315 369 355 433 374 c 0
 457 381 480 385 502 385 c 0
 554 385 590 355 614 324 c 0
 638 293 656 249 658 200 c 1
 596 92 499 28 352 8 c 0
 307 2 257 -1 202 -1 c 2
 0 -1 l 2
EndSplineSet
Validated: 1
EndChar

StartChar: Tm
Encoding: 65564 -1 116
Width: 751
VWidth: 952
GlyphClass: 2
Flags: MW
LayerCount: 2
Back
Fore
SplineSet
312 93 m 2
 369 93 427 103 473 114 c 0
 515 124 556 141 582 163 c 1
 582 197 564 235 548 256 c 0
 531 278 504 301 469 301 c 0
 449 301 426 296 402 286 c 0
 343 261 294 222 247 178 c 0
 220 153 194 124 169 93 c 1
 312 93 l 2
574 101 m 1
 592 94 608 93 629 93 c 2
 751 93 l 1
 751 -1 l 1
 656 -1 l 2
 582 -1 519 14 465 36 c 1
 390 8 306 -1 202 -1 c 2
 0 -1 l 2
 -13 -1 -34 4 -34 16 c 2
 -34 93 l 1
 117 93 l 1
 117 274 110 458 86 610 c 0
 80 648 73 675 66 692 c 1
 88 718 111 744 131 770 c 1
 214 603 l 1
 193 588 l 1
 155 611 l 1
 160 549 166 480 168 412 c 0
 171 331 174 248 174 168 c 1
 209 209 241 244 271 271 c 0
 320 315 369 355 433 374 c 0
 457 381 480 385 502 385 c 0
 554 385 590 355 614 324 c 0
 638 293 656 249 658 200 c 1
 653 189 648 178 642 169 c 0
 630 151 614 136 598 122 c 0
 590 115 582 108 574 101 c 1
EndSplineSet
Validated: 1
EndChar

StartChar: Is
Encoding: 65565 -1 117
Width: 613
VWidth: 952
GlyphClass: 2
Flags: MW
LayerCount: 2
Back
Fore
SplineSet
451 467 m 1
 427 475 400 480 369 480 c 2
 337 480 l 2
 281 480 226 459 193 433 c 1
 193 399 210 372 226 351 c 0
 246 325 275 307 312 297 c 1
 346 304 383 317 418 326 c 0
 444 333 474 345 499 352 c 0
 510 355 519 358 524 360 c 1
 489 264 l 1
 387 251 297 221 233 174 c 0
 185 139 141 89 141 15 c 0
 141 -54 180 -94 229 -120 c 0
 287 -151 369 -166 459 -166 c 0
 492 -166 525 -162 548 -152 c 1
 538 -170 532 -184 524 -200 c 0
 520 -208 516 -216 512 -222 c 1
 484 -233 436 -233 398 -235 c 0
 381 -236 364 -236 349 -236 c 0
 221 -236 120 -201 76 -118 c 0
 62 -92 55 -62 55 -27 c 0
 55 37 83 84 112 124 c 0
 145 169 190 209 237 238 c 1
 173 265 132 309 132 392 c 1
 148 441 176 484 208 514 c 0
 232 536 264 557 303 557 c 0
 371 557 420 512 451 467 c 1
EndSplineSet
Validated: 1
EndChar

StartChar: If
Encoding: 65566 -1 118
Width: 613
VWidth: 952
GlyphClass: 2
Flags: MW
LayerCount: 2
Back
Fore
SplineSet
364 277 m 1
 347 317 318 333 262 333 c 2
 254 333 l 2
 251 333 249 333 247 332 c 1
 261 358 267 383 281 409 c 1
 316 428 350 438 402 438 c 0
 443 438 475 433 500 418 c 0
 508 413 514 407 521 400 c 1
 521 371 508 342 494 321 c 0
 476 293 450 265 417 251 c 1
 432 196 451 155 474 130 c 0
 497 105 525 93 558 93 c 2
 613 93 l 1
 613 -1 l 1
 574 -1 l 2
 517 -1 474 32 446 68 c 0
 412 112 388 169 376 234 c 1
 312 213 257 176 217 132 c 0
 189 101 157 61 157 12 c 0
 157 -97 236 -137 332 -155 c 0
 370 -162 414 -165 463 -165 c 0
 499 -165 524 -162 553 -160 c 1
 546 -172 541 -183 536 -193 c 0
 534 -197 532 -201 530 -205 c 0
 526 -212 522 -219 518 -225 c 1
 507 -228 488 -230 462 -232 c 0
 436 -234 407 -235 372 -235 c 0
 245 -235 143 -206 94 -127 c 0
 78 -101 70 -69 70 -31 c 0
 70 -5 77 23 90 52 c 0
 103 81 123 110 148 138 c 0
 202 198 275 248 364 277 c 1
EndSplineSet
Validated: 1
EndChar

StartChar: Ii
Encoding: 65567 -1 119
Width: 562
VWidth: 952
GlyphClass: 2
Flags: MW
LayerCount: 2
Back
Fore
SplineSet
0 -1 m 0
 -13 -1 -34 4 -34 16 c 2
 -34 93 l 1
 0 93 l 2
 52 93 109 95 153 102 c 0
 166 104 175 105 181 107 c 1
 181 109 l 1
 135 119 108 160 94 203 c 0
 89 218 87 234 87 249 c 0
 87 264 88 282 92 294 c 0
 117 335 147 371 184 396 c 0
 210 414 237 429 276 429 c 0
 354 429 402 380 432 329 c 1
 403 341 362 350 325 350 c 0
 253 350 203 337 153 315 c 1
 152 310 152 306 152 302 c 0
 152 298 153 294 152 290 c 0
 152 253 171 222 190 200 c 0
 214 172 246 148 288 138 c 1
 337 148 392 168 440 182 c 0
 461 188 485 199 503 203 c 1
 484 168 480 135 462 99 c 1
 350 71 248 31 128 10 c 0
 88 3 45 -1 0 -1 c 0
EndSplineSet
Validated: 1
EndChar

StartChar: Im
Encoding: 65568 -1 120
Width: 437
VWidth: 952
GlyphClass: 2
Flags: MW
LayerCount: 2
Back
Fore
SplineSet
242 336 m 0
 298 336 333 326 361 298 c 1
 361 271 348 244 337 223 c 0
 323 197 301 171 281 151 c 1
 294 136 308 120 328 111 c 0
 352 100 379 93 415 93 c 2
 438 93 l 1
 438 -1 l 1
 416 -1 l 2
 322 -1 271 48 229 101 c 1
 205 77 178 52 149 33 c 0
 123 15 95 -1 54 -1 c 2
 0 -1 l 2
 -13 -1 -34 4 -34 16 c 2
 -34 93 l 1
 50 93 l 2
 94 93 129 111 158 128 c 0
 170 135 180 143 189 152 c 1
 163 189 145 226 85 226 c 2
 70 226 l 1
 84 252 91 277 105 303 c 1
 150 325 185 336 242 336 c 0
EndSplineSet
Validated: 1
EndChar

StartChar: Fs
Encoding: 65569 -1 121
Width: 1030
VWidth: 952
GlyphClass: 2
Flags: MW
LayerCount: 2
Back
Fore
SplineSet
805 284 m 0
 852 284 883 285 908 306 c 1
 904 355 870 388 831 404 c 0
 816 410 799 414 780 414 c 1
 757 392 735 368 735 327 c 0
 735 322 736 318 736 313 c 0
 736 308 736 303 737 297 c 1
 759 289 778 284 805 284 c 0
916 222 m 1
 888 204 852 193 808 193 c 0
 764 193 722 199 691 212 c 1
 682 239 679 270 679 303 c 0
 679 374 707 425 740 466 c 0
 753 482 769 495 787 508 c 1
 902 496 962 404 962 279 c 0
 962 189 951 123 927 56 c 1
 859 30 768 15 679 3 c 0
 578 -11 460 -19 345 -19 c 0
 257 -19 186 1 138 36 c 0
 101 63 70 103 70 161 c 0
 70 232 106 298 136 349 c 1
 182 326 l 1
 166 300 153 268 146 236 c 0
 144 227 144 220 144 213 c 0
 144 168 172 139 204 120 c 0
 247 94 303 80 375 80 c 0
 452 80 530 83 600 89 c 0
 689 97 776 106 852 122 c 0
 871 126 885 130 896 134 c 1
 907 157 916 191 916 222 c 1
EndSplineSet
Validated: 1
EndChar

StartChar: Ff
Encoding: 65570 -1 122
Width: 1030
VWidth: 952
GlyphClass: 2
Flags: MW
LayerCount: 2
Back
Fore
SplineSet
743 106 m 1
 712 129 687 171 687 222 c 0
 687 302 733 351 782 385 c 0
 802 399 825 411 851 420 c 1
 886 396 912 369 928 339 c 0
 944 309 952 279 952 248 c 0
 952 221 943 197 933 177 c 0
 921 152 903 129 882 112 c 1
 911 99 953 93 993 93 c 2
 1030 93 l 1
 1030 -1 l 1
 996 -1 l 2
 924 -1 859 24 817 56 c 1
 783 25 709 14 644 3 c 0
 558 -11 447 -19 345 -19 c 0
 257 -19 186 1 138 36 c 0
 101 63 70 103 70 161 c 0
 70 232 106 298 136 349 c 1
 182 326 l 1
 166 300 153 268 146 236 c 0
 144 227 144 220 144 213 c 0
 144 168 172 139 204 120 c 0
 247 94 303 80 375 80 c 0
 471 80 568 88 655 96 c 0
 687 99 718 102 743 106 c 1
835 317 m 1
 782 305 751 267 737 216 c 1
 742 197 759 179 772 166 c 0
 785 153 801 138 818 132 c 1
 853 143 879 168 889 202 c 0
 892 212 894 221 894 230 c 0
 894 270 867 300 835 317 c 1
EndSplineSet
Validated: 1
EndChar

StartChar: Fi
Encoding: 65571 -1 123
Width: 437
VWidth: 952
GlyphClass: 2
Flags: MW
LayerCount: 2
Back
Fore
SplineSet
212 284 m 0
 259 284 290 285 315 306 c 1
 311 355 278 389 238 404 c 0
 222 410 206 414 187 414 c 1
 164 392 142 368 142 327 c 2
 142 313 l 2
 142 308 143 303 144 297 c 1
 166 289 185 284 212 284 c 0
323 222 m 1
 295 204 259 193 215 193 c 0
 181 193 150 198 122 204 c 0
 113 206 105 209 99 212 c 1
 90 239 86 269 86 303 c 0
 86 373 114 426 147 466 c 0
 160 482 176 495 194 508 c 1
 285 499 337 441 358 362 c 0
 365 336 369 308 369 279 c 0
 369 258 369 237 368 218 c 0
 365 160 354 109 337 62 c 1
 289 28 215 18 144 6 c 0
 114 1 80 -1 47 -1 c 2
 0 -1 l 2
 -13 -1 -34 4 -34 16 c 2
 -34 93 l 1
 50 93 l 2
 116 93 185 100 240 111 c 0
 263 116 291 122 303 134 c 1
 314 157 323 191 323 222 c 1
EndSplineSet
Validated: 1
EndChar

StartChar: Fm
Encoding: 65572 -1 124
Width: 437
VWidth: 952
GlyphClass: 2
Flags: MW
LayerCount: 2
Back
Fore
SplineSet
236 317 m 1
 186 305 151 264 138 216 c 1
 143 198 159 177 172 164 c 0
 185 151 201 136 218 130 c 1
 259 143 295 179 295 230 c 0
 295 244 290 259 281 275 c 0
 272 291 257 305 236 317 c 1
283 113 m 1
 312 100 355 93 396 93 c 2
 438 93 l 1
 438 -1 l 1
 397 -1 l 2
 344 -1 296 14 258 32 c 0
 243 39 230 47 219 56 c 1
 174 18 112 -1 29 -1 c 2
 0 -1 l 2
 -13 -1 -34 4 -34 16 c 2
 -34 93 l 1
 30 93 l 2
 73 93 116 95 144 107 c 1
 114 130 88 169 88 218 c 0
 88 264 102 304 131 338 c 0
 160 372 200 400 251 419 c 1
 284 395 310 369 327 342 c 0
 344 315 353 286 353 253 c 0
 353 188 320 144 283 113 c 1
EndSplineSet
Validated: 1
EndChar

StartChar: Gs
Encoding: 65573 -1 125
Width: 768
VWidth: 952
GlyphClass: 2
Flags: MW
LayerCount: 2
Back
Fore
SplineSet
502 292 m 1
 479 271 458 245 458 205 c 2
 458 190 l 2
 458 185 458 180 459 175 c 1
 481 166 499 161 527 161 c 0
 551 161 570 162 588 166 c 0
 606 171 615 174 628 184 c 1
 612 247 580 292 502 292 c 1
639 100 m 1
 611 81 575 71 530 71 c 0
 487 71 445 77 414 90 c 1
 405 117 401 147 401 181 c 0
 401 225 413 261 429 293 c 0
 438 311 448 328 462 344 c 0
 476 360 492 373 509 386 c 1
 587 366 635 325 666 260 c 0
 690 210 700 150 700 77 c 0
 700 0 690 -81 659 -128 c 0
 642 -150 605 -166 574 -179 c 0
 492 -212 388 -236 274 -236 c 0
 150 -236 55 -189 55 -65 c 0
 55 3 77 63 100 115 c 0
 111 140 123 164 138 189 c 1
 184 165 l 1
 159 127 143 79 132 28 c 0
 129 14 128 1 128 -11 c 0
 128 -102 202 -136 298 -136 c 0
 364 -136 426 -131 482 -118 c 0
 545 -103 599 -77 644 -41 c 0
 645 -38 646 -34 646 -30 c 2
 646 47 l 2
 646 67 644 86 639 100 c 1
EndSplineSet
Validated: 1
EndChar

StartChar: Gf
Encoding: 65574 -1 126
Width: 806
VWidth: 952
GlyphClass: 2
Flags: MW
LayerCount: 2
Back
Fore
SplineSet
532 264 m 1
 501 240 483 209 483 155 c 1
 503 127 560 117 600 108 c 0
 617 104 633 101 648 99 c 1
 645 166 627 220 585 250 c 0
 571 260 553 264 532 264 c 1
127 -11 m 0
 127 -101 202 -136 297 -136 c 0
 448 -136 564 -107 648 -40 c 0
 649 -37 650 -33 650 -29 c 0
 650 -18 650 -6 650 5 c 1
 629 8 606 11 582 16 c 0
 539 25 495 39 460 54 c 0
 444 61 432 68 426 75 c 1
 424 91 422 107 422 124 c 0
 422 208 451 266 492 312 c 0
 508 330 528 345 551 357 c 1
 636 332 681 275 694 181 c 0
 698 153 701 124 702 94 c 1
 722 94 l 2
 731 94 741 93 752 93 c 2
 807 93 l 1
 807 -1 l 1
 752 -1 l 2
 742 -1 732 0 723 0 c 2
 702 0 l 1
 699 -54 685 -89 659 -128 c 0
 642 -150 605 -166 574 -179 c 0
 491 -212 388 -236 273 -236 c 0
 173 -236 104 -205 70 -140 c 0
 59 -119 54 -94 54 -65 c 0
 54 -27 63 11 74 45 c 0
 90 95 112 145 138 189 c 1
 183 165 l 1
 158 126 142 79 131 28 c 0
 128 14 127 1 127 -11 c 0
EndSplineSet
Validated: 1
EndChar

StartChar: Qs
Encoding: 65575 -1 127
Width: 781
VWidth: 952
GlyphClass: 2
Flags: MW
LayerCount: 2
Back
Fore
SplineSet
316 297 m 0
 342 297 385 299 385 317 c 0
 385 326 356 332 348 336 c 0
 334 343 312 354 312 374 c 0
 312 395 327 418 338 433 c 0
 352 452 375 474 401 480 c 1
 406 443 l 1
 395 443 382 431 376 425 c 0
 370 419 356 407 356 397 c 0
 356 388 368 383 376 380 c 0
 392 375 413 367 424 356 c 0
 428 352 430 348 430 343 c 0
 430 341 430 340 429 339 c 0
 422 300 407 272 376 259 c 0
 369 256 361 255 353 255 c 0
 323 255 297 271 282 286 c 0
 278 290 276 293 276 296 c 0
 276 297 276 298 277 299 c 0
 291 298 304 298 316 297 c 0
720 604 m 1
 698 588 l 1
 662 611 l 1
 672 501 674 380 678 265 c 0
 679 239 679 215 679 194 c 0
 679 136 666 85 643 52 c 0
 626 27 602 2 571 -3 c 0
 503 -10 423 -14 347 -14 c 0
 287 -14 223 -12 168 -6 c 0
 117 0 73 10 64 56 c 1
 76 121 l 1
 98 104 141 97 178 92 c 0
 223 86 280 82 332 82 c 0
 419 82 510 87 580 102 c 0
 612 109 615 110 620 141 c 0
 622 154 622 171 622 192 c 0
 622 350 615 501 590 628 c 0
 584 658 579 679 573 692 c 1
 571 692 l 1
 637 771 l 1
 720 604 l 1
EndSplineSet
Validated: 1
EndChar

StartChar: Qf
Encoding: 65576 -1 128
Width: 823
VWidth: 952
GlyphClass: 2
Flags: MW
LayerCount: 2
Back
Fore
SplineSet
823 -1 m 1
 786 -1 l 2
 735 -1 693 26 672 56 c 0
 665 66 662 76 661 85 c 1
 657 85 l 1
 645 53 622 20 593 6 c 0
 574 -4 558 -4 530 -6 c 0
 474 -10 410 -14 347 -14 c 0
 287 -14 223 -12 168 -6 c 0
 117 0 73 10 64 56 c 1
 76 121 l 1
 98 104 141 97 178 92 c 0
 223 86 280 82 332 82 c 0
 419 82 510 87 580 102 c 0
 612 109 615 110 620 141 c 0
 622 154 622 171 622 192 c 0
 622 350 615 501 590 628 c 0
 584 658 579 679 573 692 c 1
 571 692 l 1
 637 771 l 1
 720 604 l 1
 698 588 l 1
 662 611 l 1
 674 481 674 339 680 202 c 0
 680 122 715 93 793 93 c 2
 823 93 l 1
 823 -1 l 1
316 297 m 0
 342 297 385 299 385 317 c 0
 385 326 356 332 348 336 c 0
 334 343 312 354 312 374 c 0
 312 395 327 418 338 433 c 0
 352 452 375 474 401 480 c 1
 406 443 l 1
 395 443 382 431 376 425 c 0
 370 419 356 407 356 397 c 0
 356 388 368 383 376 380 c 0
 392 375 413 367 424 356 c 0
 428 352 430 348 430 343 c 0
 430 341 430 340 429 339 c 0
 422 300 407 272 376 259 c 0
 369 256 361 255 353 255 c 0
 323 255 297 271 282 286 c 0
 278 290 276 293 276 296 c 0
 276 297 276 298 277 299 c 0
 291 298 304 298 316 297 c 0
EndSplineSet
Validated: 1
EndChar

StartChar: Ks
Encoding: 65577 -1 129
Width: 1078
VWidth: 952
GlyphClass: 2
Flags: MW
LayerCount: 2
Back
Fore
SplineSet
1018 591 m 1
 998 596 l 2
 998 600 998 604 998 608 c 0
 998 617 996 633 987 633 c 0
 953 619 916 601 882 582 c 0
 844 561 800 538 764 516 c 0
 734 498 702 479 678 460 c 1
 743 425 795 390 842 346 c 0
 874 316 900 284 910 240 c 1
 905 196 900 148 891 107 c 1
 860 68 808 41 753 24 c 0
 648 -9 520 -19 384 -19 c 0
 282 -19 200 -5 142 32 c 0
 99 59 70 98 70 161 c 0
 70 232 106 298 136 349 c 1
 182 326 l 1
 166 300 153 268 146 236 c 0
 144 227 144 220 144 213 c 0
 144 164 172 136 208 116 c 0
 230 104 258 96 292 90 c 0
 326 84 368 80 415 80 c 0
 524 80 623 87 708 105 c 0
 746 113 777 123 802 134 c 0
 827 145 845 157 855 170 c 1
 854 187 849 204 842 220 c 0
 835 236 824 253 807 271 c 0
 760 321 702 354 630 393 c 1
 630 403 633 417 634 430 c 0
 636 449 638 473 640 490 c 0
 641 499 641 508 642 514 c 0
 643 520 644 523 644 524 c 0
 661 536 680 549 702 564 c 0
 724 579 749 593 774 608 c 0
 822 637 876 669 926 694 c 0
 966 714 1009 736 1049 749 c 1
 1018 591 l 1
EndSplineSet
Validated: 1
EndChar

StartChar: Kf
Encoding: 65578 -1 130
Width: 1141
VWidth: 952
GlyphClass: 2
Flags: MW
LayerCount: 2
Back
Fore
SplineSet
627 392 m 1
 631 436 636 482 642 523 c 1
 641 524 l 1
 680 552 725 581 770 608 c 0
 840 650 917 691 991 726 c 0
 1012 736 1031 744 1046 749 c 1
 1015 591 l 1
 995 595 l 1
 995 608 l 2
 995 617 993 633 984 633 c 0
 951 619 914 600 880 581 c 0
 860 570 840 559 820 548 c 0
 771 521 716 492 675 460 c 1
 738 421 797 383 854 338 c 0
 890 309 933 273 962 238 c 0
 985 210 1003 181 1022 153 c 0
 1043 121 1065 93 1116 93 c 2
 1142 93 l 1
 1142 -1 l 1
 1117 -1 l 2
 1069 -1 1038 20 1014 46 c 0
 977 86 952 143 922 190 c 0
 913 204 903 215 892 224 c 1
 889 222 l 1
 892 207 894 189 894 173 c 0
 894 151 890 123 885 107 c 1
 822 28 691 1 563 -11 c 0
 507 -16 444 -19 384 -19 c 0
 282 -19 200 -5 142 32 c 0
 99 59 70 98 70 161 c 0
 70 232 106 298 136 349 c 1
 182 326 l 1
 166 300 153 268 146 236 c 0
 144 227 144 220 144 213 c 0
 144 164 172 136 208 116 c 0
 230 104 258 96 292 90 c 0
 326 84 368 80 415 80 c 0
 523 80 620 87 704 105 c 0
 763 118 820 134 847 169 c 1
 844 213 827 243 801 272 c 0
 785 290 763 308 735 328 c 0
 707 348 671 369 627 392 c 1
EndSplineSet
Validated: 1
EndChar

StartChar: Ki
Encoding: 65579 -1 131
Width: 498
VWidth: 952
GlyphClass: 2
Flags: MW
LayerCount: 2
Back
Fore
SplineSet
54 93 m 2
 155 93 223 116 268 170 c 1
 265 214 248 242 222 271 c 0
 177 322 120 354 47 393 c 1
 47 424 55 461 58 490 c 0
 59 502 61 515 61 524 c 1
 124 569 198 612 268 653 c 0
 315 680 363 704 411 727 c 0
 432 737 451 744 466 749 c 1
 435 591 l 1
 415 596 l 1
 415 608 l 2
 415 618 414 633 404 633 c 0
 348 609 293 577 239 549 c 0
 201 529 164 506 130 485 c 0
 115 476 104 467 95 460 c 1
 168 419 224 381 262 345 c 0
 300 309 324 274 332 240 c 1
 327 196 322 148 313 108 c 1
 249 37 167 -1 33 -1 c 2
 0 -1 l 2
 -13 -1 -34 4 -34 16 c 2
 -34 93 l 1
 54 93 l 2
EndSplineSet
Validated: 1
EndChar

StartChar: Km
Encoding: 65580 -1 132
Width: 562
VWidth: 952
GlyphClass: 2
Flags: MW
LayerCount: 2
Back
Fore
SplineSet
49 93 m 2
 151 93 224 115 267 169 c 1
 264 212 245 243 220 272 c 0
 204 290 181 308 153 328 c 0
 125 348 89 369 45 392 c 1
 49 437 53 481 59 524 c 1
 98 552 143 581 188 608 c 0
 236 637 291 667 340 693 c 0
 364 706 388 716 409 726 c 0
 430 736 449 744 464 749 c 1
 433 591 l 1
 413 595 l 2
 413 599 412 604 412 608 c 0
 412 617 410 633 402 633 c 0
 347 609 291 576 237 548 c 0
 198 528 161 506 128 484 c 0
 113 474 102 467 93 460 c 1
 156 421 215 384 272 338 c 0
 308 309 351 273 380 238 c 0
 403 210 421 181 440 153 c 0
 461 121 483 93 534 93 c 2
 562 93 l 1
 562 -1 l 1
 535 -1 l 2
 487 -1 456 20 432 46 c 0
 419 60 406 75 396 92 c 0
 369 137 348 192 309 224 c 1
 307 222 l 1
 310 207 312 189 312 173 c 0
 312 153 307 124 303 107 c 1
 284 86 264 70 244 56 c 0
 188 17 124 -1 28 -1 c 2
 0 -1 l 2
 -13 -1 -34 4 -34 16 c 2
 -34 93 l 1
 49 93 l 2
EndSplineSet
Validated: 1
EndChar

StartChar: Ls
Encoding: 65581 -1 133
Width: 773
VWidth: 952
GlyphClass: 2
Flags: MW
LayerCount: 2
Back
Fore
SplineSet
128 -11 m 0
 128 -102 202 -136 298 -136 c 0
 391 -136 478 -108 546 -78 c 0
 573 -66 596 -54 616 -41 c 1
 613 110 607 269 598 413 c 0
 593 492 586 570 576 636 c 0
 571 662 566 681 562 692 c 1
 628 770 l 1
 711 603 l 1
 690 588 l 1
 654 611 l 1
 657 563 661 507 663 454 c 0
 667 328 672 194 672 66 c 2
 672 16 l 2
 669 5 666 -6 662 -18 c 0
 658 -30 656 -43 652 -56 c 0
 644 -82 636 -106 626 -129 c 1
 598 -152 560 -170 522 -185 c 0
 483 -201 438 -212 394 -222 c 0
 357 -230 316 -236 276 -236 c 0
 208 -236 156 -222 116 -194 c 0
 79 -168 55 -125 55 -65 c 0
 55 3 77 63 100 115 c 0
 111 140 123 164 138 189 c 1
 184 165 l 1
 159 127 143 79 132 28 c 0
 129 14 128 1 128 -11 c 0
EndSplineSet
Validated: 1
EndChar

StartChar: Lf
Encoding: 65582 -1 134
Width: 823
VWidth: 952
GlyphClass: 2
Flags: MW
LayerCount: 2
Back
Fore
SplineSet
615 111 m 2
 615 302 600 484 588 665 c 1
 654 770 l 1
 659 598 664 408 675 236 c 0
 677 182 686 143 710 117 c 0
 725 100 749 93 777 93 c 2
 823 93 l 1
 823 -1 l 1
 772 -1 l 2
 725 -1 690 25 675 59 c 1
 672 59 l 1
 672 16 l 1
 659 -33 645 -87 626 -129 c 1
 598 -152 560 -170 522 -185 c 0
 483 -201 438 -212 394 -222 c 0
 357 -230 316 -236 276 -236 c 0
 208 -236 156 -222 116 -194 c 0
 79 -168 55 -125 55 -65 c 0
 55 3 77 63 100 115 c 0
 111 140 123 164 138 189 c 1
 184 165 l 1
 159 127 143 79 132 28 c 0
 129 14 128 1 128 -11 c 0
 128 -102 202 -136 298 -136 c 0
 391 -136 478 -108 546 -78 c 0
 573 -66 596 -54 616 -41 c 1
 616 -36 l 2
 616 -33 615 -26 615 -15 c 2
 615 111 l 2
EndSplineSet
Validated: 1
EndChar

StartChar: Li
Encoding: 65583 -1 135
Width: 317
VWidth: 952
GlyphClass: 2
Flags: MW
LayerCount: 2
Back
Fore
SplineSet
73 93 m 2
 107 93 143 111 159 129 c 1
 159 257 153 384 144 496 c 0
 140 545 134 587 128 620 c 0
 122 653 116 677 110 692 c 1
 108 692 l 1
 173 770 l 1
 256 603 l 1
 235 588 l 1
 199 611 l 1
 209 491 210 352 215 226 c 0
 216 199 216 176 216 157 c 0
 216 115 193 86 173 60 c 0
 148 26 108 -1 50 -1 c 2
 0 -1 l 2
 -13 -1 -34 4 -34 16 c 2
 -34 93 l 1
 73 93 l 2
EndSplineSet
Validated: 1
EndChar

StartChar: Lm
Encoding: 65584 -1 136
Width: 343
VWidth: 952
GlyphClass: 2
Flags: MW
LayerCount: 2
Back
Fore
SplineSet
128 133 m 1
 116 315 104 492 88 665 c 1
 156 770 l 1
 157 748 157 722 158 693 c 0
 164 523 172 343 183 177 c 0
 186 118 210 93 271 93 c 2
 344 93 l 1
 344 -1 l 1
 271 -1 l 2
 207 -1 169 34 153 83 c 1
 136 52 118 31 100 18 c 0
 82 5 61 -1 39 -1 c 2
 0 -1 l 2
 -13 -1 -34 4 -34 16 c 2
 -34 93 l 1
 41 93 l 2
 80 93 112 109 128 133 c 1
EndSplineSet
Validated: 1
EndChar

StartChar: Ms
Encoding: 65585 -1 137
Width: 628
VWidth: 952
GlyphClass: 2
Flags: MW
LayerCount: 2
Back
Fore
SplineSet
376 449 m 1
 342 430 317 396 317 344 c 2
 317 333 l 2
 317 329 317 325 318 321 c 1
 351 321 388 315 418 310 c 0
 449 305 483 296 509 289 c 1
 485 364 445 420 376 449 c 1
523 198 m 1
 459 211 399 228 323 228 c 0
 282 228 241 224 208 218 c 0
 179 213 154 206 134 196 c 1
 137 166 145 124 148 86 c 0
 155 -8 167 -107 167 -204 c 1
 157 -227 143 -251 126 -268 c 0
 120 -274 114 -279 109 -284 c 1
 109 -242 105 -192 102 -145 c 0
 96 -52 88 46 78 134 c 0
 75 161 73 184 70 202 c 1
 110 278 l 2
 113 282 121 286 133 291 c 0
 176 309 240 317 297 320 c 1
 270 341 l 1
 267 357 265 373 265 388 c 0
 265 475 323 515 393 541 c 1
 442 523 485 486 514 448 c 0
 537 417 561 378 561 333 c 0
 561 277 545 231 523 198 c 1
EndSplineSet
Validated: 1
EndChar

StartChar: Mf
Encoding: 65586 -1 138
Width: 716
VWidth: 952
GlyphClass: 2
Flags: MW
LayerCount: 2
Back
Fore
SplineSet
480 16 m 1
 520 18 542 34 559 62 c 1
 513 106 481 175 444 229 c 1
 433 210 425 191 420 168 c 0
 417 154 412 139 412 124 c 0
 412 79 435 43 480 16 c 1
347 87 m 0
 347 136 363 183 382 216 c 1
 357 237 312 249 274 258 c 0
 261 261 252 262 246 262 c 0
 213 262 187 258 164 248 c 0
 155 244 145 237 134 230 c 1
 148 144 154 42 162 -50 c 0
 167 -103 171 -154 171 -205 c 1
 161 -228 145 -251 128 -268 c 0
 122 -274 118 -280 113 -285 c 1
 113 -243 108 -189 105 -140 c 0
 99 -42 88 62 78 154 c 0
 75 182 73 205 70 223 c 1
 110 300 l 2
 130 340 192 353 255 353 c 0
 277 353 306 345 325 338 c 0
 338 333 351 328 364 323 c 0
 377 318 387 312 395 306 c 1
 428 405 l 1
 470 331 506 267 546 206 c 0
 561 183 575 164 587 149 c 0
 606 125 622 107 649 98 c 0
 658 95 666 93 675 93 c 2
 716 93 l 1
 716 -1 l 1
 681 -1 l 2
 642 -1 624 15 599 31 c 1
 583 -38 528 -68 447 -72 c 1
 414 -53 387 -27 369 4 c 0
 355 28 347 54 347 87 c 0
EndSplineSet
Validated: 1
EndChar

StartChar: Mi
Encoding: 65587 -1 139
Width: 532
VWidth: 952
GlyphClass: 2
Flags: MW
LayerCount: 2
Back
Fore
SplineSet
464 138 m 1
 464 72 441 26 411 -10 c 1
 398 -10 l 2
 394 -10 389 -11 385 -11 c 0
 302 -11 243 15 194 53 c 1
 175 82 l 1
 137 38 79 -1 0 -1 c 0
 -13 -1 -34 4 -34 16 c 2
 -34 93 l 1
 1 93 l 2
 85 93 123 131 163 175 c 0
 203 218 240 268 291 299 c 0
 306 308 322 314 339 316 c 1
 403 276 447 222 464 138 c 1
217 133 m 1
 261 103 322 74 392 74 c 2
 407 74 l 1
 392 147 366 194 313 230 c 1
 281 219 257 188 238 164 c 0
 230 154 223 143 217 133 c 1
EndSplineSet
Validated: 1
EndChar

StartChar: Mm
Encoding: 65588 -1 140
Width: 628
VWidth: 952
GlyphClass: 2
Flags: MW
LayerCount: 2
Back
Fore
SplineSet
0 -1 m 0
 -13 -1 -34 4 -34 16 c 2
 -34 93 l 1
 16 93 l 2
 50 93 78 115 100 132 c 0
 126 152 151 180 174 201 c 0
 186 212 198 223 210 234 c 0
 234 256 260 274 292 288 c 0
 308 295 325 301 345 304 c 1
 353 297 362 286 372 272 c 0
 394 242 423 210 448 181 c 0
 462 165 478 151 494 138 c 0
 521 116 556 93 600 93 c 2
 629 93 l 1
 629 -1 l 1
 596 -1 l 2
 559 -1 526 14 502 30 c 0
 476 47 453 69 435 92 c 1
 425 33 401 -4 364 -34 c 1
 277 -22 210 0 164 53 c 1
 158 79 l 1
 132 55 106 36 74 20 c 0
 52 9 28 -1 0 -1 c 0
376 50 m 1
 376 90 375 118 364 146 c 0
 352 176 336 198 313 221 c 1
 267 211 231 173 206 140 c 1
 249 97 303 60 376 50 c 1
EndSplineSet
Validated: 1
EndChar

StartChar: Ns
Encoding: 65589 -1 141
Width: 736
VWidth: 952
GlyphClass: 2
Flags: MW
LayerCount: 2
Back
Fore
SplineSet
132 -11 m 0
 132 -101 208 -136 304 -136 c 0
 360 -136 419 -122 468 -108 c 0
 523 -93 582 -68 622 -40 c 1
 622 -15 615 11 609 36 c 0
 601 69 588 105 576 136 c 0
 570 152 564 169 556 184 c 0
 548 199 540 212 533 223 c 1
 605 320 l 1
 638 252 661 164 670 76 c 0
 673 48 675 23 675 -2 c 0
 674 -11 673 -21 670 -32 c 0
 667 -43 662 -53 658 -64 c 0
 650 -85 640 -109 632 -128 c 1
 605 -151 565 -169 528 -184 c 0
 458 -212 376 -235 282 -235 c 0
 184 -235 110 -204 76 -140 c 0
 65 -119 59 -94 59 -65 c 0
 59 3 81 63 104 115 c 0
 115 140 127 165 142 190 c 1
 188 166 l 1
 163 128 146 80 136 29 c 0
 133 14 132 1 132 -11 c 0
EndSplineSet
Validated: 1
EndChar

StartChar: Nf
Encoding: 65590 -1 142
Width: 793
VWidth: 952
GlyphClass: 2
Flags: MW
LayerCount: 2
Back
Fore
SplineSet
132 -11 m 0
 132 -102 206 -136 302 -136 c 0
 358 -136 417 -122 466 -108 c 0
 521 -93 580 -68 620 -40 c 1
 620 -3 613 24 602 52 c 0
 587 91 569 121 546 157 c 1
 559 180 576 206 590 230 c 0
 596 240 599 247 604 256 c 1
 619 221 634 193 646 172 c 0
 666 138 685 108 722 98 c 0
 736 94 753 93 774 93 c 2
 793 93 l 1
 793 -1 l 1
 771 -1 l 2
 731 -1 700 6 681 25 c 1
 681 -39 653 -87 630 -128 c 1
 603 -151 563 -169 526 -184 c 0
 456 -212 374 -235 280 -235 c 0
 157 -235 59 -188 59 -65 c 0
 59 3 81 63 104 115 c 0
 115 140 127 165 142 190 c 1
 188 166 l 1
 163 128 146 80 136 29 c 0
 133 14 132 1 132 -11 c 0
EndSplineSet
Validated: 1
EndChar

StartChar: Vs
Encoding: 65591 -1 143
Width: 526
VWidth: 952
GlyphClass: 2
Flags: MW
LayerCount: 2
Back
Fore
SplineSet
389 64 m 1
 364 53 326 44 292 44 c 0
 254 44 215 58 188 72 c 0
 177 78 167 83 158 90 c 1
 157 98 156 106 155 114 c 0
 154 122 154 129 154 138 c 0
 154 194 169 238 190 277 c 0
 215 323 252 359 303 381 c 1
 358 368 395 325 419 279 c 0
 442 234 458 174 458 110 c 0
 455 36 439 -17 408 -64 c 0
 396 -82 380 -99 361 -117 c 0
 313 -162 255 -200 188 -236 c 1
 134 -232 76 -223 32 -208 c 0
 17 -203 7 -198 0 -193 c 1
 116 -162 219 -125 300 -66 c 0
 343 -34 377 5 389 64 c 1
215 168 m 1
 237 149 259 135 298 135 c 0
 326 135 355 140 376 146 c 0
 383 148 387 150 390 152 c 0
 387 185 374 212 359 236 c 0
 344 260 318 286 284 288 c 1
 247 267 215 224 215 168 c 1
EndSplineSet
Validated: 1
EndChar

StartChar: Vf
Encoding: 65592 -1 144
Width: 613
VWidth: 952
GlyphClass: 2
Flags: MW
LayerCount: 2
Back
Fore
SplineSet
334 285 m 1
 296 263 265 222 265 165 c 0
 267 143 300 132 322 125 c 0
 354 115 394 107 431 101 c 1
 431 104 432 108 432 112 c 2
 432 122 l 2
 432 166 419 204 402 231 c 0
 386 256 365 278 334 285 c 1
613 -1 m 1
 581 -1 l 2
 569 -1 557 0 545 0 c 2
 510 0 l 2
 499 0 490 1 481 2 c 1
 464 -43 443 -79 408 -112 c 0
 388 -131 363 -150 334 -170 c 0
 305 -191 270 -213 229 -236 c 1
 175 -232 117 -222 74 -208 c 0
 59 -203 48 -198 41 -193 c 1
 100 -177 150 -161 192 -144 c 0
 265 -115 323 -86 370 -42 c 0
 388 -25 401 -7 410 10 c 1
 371 16 327 29 292 40 c 0
 260 50 225 65 208 87 c 1
 207 95 206 104 206 112 c 0
 206 120 205 128 205 136 c 0
 205 222 239 291 286 335 c 0
 305 353 327 367 354 378 c 1
 399 371 436 330 457 294 c 0
 480 255 500 194 500 135 c 2
 500 115 l 2
 500 108 499 102 498 96 c 1
 505 95 512 94 522 94 c 0
 532 94 542 94 552 94 c 0
 562 94 573 93 584 93 c 2
 613 93 l 1
 613 -1 l 1
EndSplineSet
Validated: 1
EndChar

StartChar: Hs
Encoding: 65593 -1 145
Width: 534
VWidth: 952
GlyphClass: 2
Flags: MW
LayerCount: 2
Back
Fore
SplineSet
126 184 m 0
 126 107 171 82 252 82 c 0
 287 82 320 95 346 108 c 0
 375 122 406 139 426 159 c 1
 426 171 420 185 408 201 c 0
 380 239 337 272 294 300 c 0
 269 316 244 330 219 341 c 1
 197 322 174 289 158 262 c 0
 145 241 126 211 126 184 c 0
229 -6 m 0
 127 -6 70 38 70 140 c 0
 70 176 82 206 94 236 c 0
 117 295 149 352 181 402 c 0
 192 419 203 435 214 448 c 1
 307 405 398 347 452 266 c 0
 468 242 475 219 476 195 c 1
 466 149 457 112 439 74 c 1
 413 57 382 37 350 23 c 0
 317 8 275 -6 229 -6 c 0
EndSplineSet
Validated: 1
EndChar

StartChar: Hf
Encoding: 65594 -1 146
Width: 570
VWidth: 952
GlyphClass: 2
Flags: MW
LayerCount: 2
Back
Fore
SplineSet
369 154 m 1
 360 185 356 222 349 256 c 0
 344 281 340 308 336 332 c 0
 334 343 332 352 331 360 c 1
 283 352 236 326 202 301 c 0
 177 283 151 262 136 236 c 0
 129 224 126 212 126 201 c 1
 143 166 210 154 261 154 c 2
 369 154 l 1
317 74 m 1
 217 74 119 74 70 123 c 1
 74 164 84 210 92 250 c 0
 95 265 99 277 102 286 c 0
 125 312 154 339 186 360 c 0
 224 385 268 407 319 420 c 1
 306 469 l 1
 320 499 337 525 353 555 c 1
 365 488 376 431 386 382 c 0
 402 302 413 234 436 173 c 0
 453 129 466 93 521 93 c 2
 570 93 l 1
 570 -1 l 1
 526 -1 l 2
 459 -1 421 31 396 76 c 0
 386 94 377 116 372 142 c 1
 317 74 l 1
EndSplineSet
Validated: 1
EndChar

StartChar: Hi
Encoding: 65595 -1 147
Width: 613
VWidth: 952
GlyphClass: 2
Flags: MW
LayerCount: 2
Back
Fore
SplineSet
220 130 m 1
 274 141 311 179 316 237 c 0
 316 278 300 322 284 350 c 0
 277 362 270 370 262 376 c 1
 219 376 184 357 162 334 c 0
 140 310 125 273 123 232 c 0
 123 175 171 146 220 130 c 1
349 306 m 1
 354 292 354 267 354 250 c 2
 354 235 l 2
 354 176 325 129 286 108 c 1
 326 90 378 76 426 67 c 0
 442 64 454 62 464 61 c 1
 472 66 478 78 484 87 c 0
 491 97 495 108 498 120 c 0
 498 128 495 139 488 154 c 0
 470 192 444 226 415 258 c 0
 398 277 379 295 358 311 c 1
 349 306 l 1
123 111 m 1
 88 129 74 167 74 218 c 0
 74 269 90 311 108 344 c 0
 125 375 153 405 187 416 c 1
 113 450 l 1
 133 556 l 1
 229 500 310 446 384 382 c 0
 434 339 476 297 508 247 c 0
 527 216 539 188 545 151 c 1
 542 127 528 101 516 78 c 0
 501 47 478 9 457 -16 c 1
 432 -13 402 -6 376 0 c 0
 328 12 276 24 234 40 c 0
 221 45 210 49 203 54 c 1
 163 31 115 13 63 3 c 0
 48 0 33 -1 20 -1 c 2
 0 -1 l 2
 -12 -1 -24 2 -30 8 c 0
 -32 10 -34 11 -34 13 c 2
 -34 93 l 1
 52 93 l 2
 85 93 105 96 123 111 c 1
EndSplineSet
Validated: 1
EndChar

StartChar: Hm
Encoding: 65596 -1 148
Width: 532
VWidth: 952
GlyphClass: 2
Flags: MW
LayerCount: 2
Back
Fore
SplineSet
347 182 m 1
 341 228 320 275 298 306 c 0
 278 335 247 362 206 367 c 1
 181 333 166 270 156 221 c 0
 152 202 151 186 151 173 c 0
 151 145 152 122 154 103 c 1
 178 103 204 112 225 120 c 0
 238 125 251 130 264 136 c 0
 277 142 290 146 301 152 c 0
 318 161 336 171 347 182 c 1
345 -75 m 1
 345 -117 349 -161 378 -173 c 1
 345 -250 l 1
 306 -230 272 -209 240 -184 c 0
 211 -161 189 -141 170 -108 c 0
 150 -72 136 -37 125 10 c 1
 94 5 64 -1 32 -1 c 2
 0 -1 l 2
 -13 -1 -34 4 -34 16 c 2
 -34 93 l 1
 62 93 l 2
 67 93 73 94 78 94 c 0
 83 94 88 94 93 94 c 0
 98 94 101 95 104 96 c 2
 104 121 l 2
 104 133 103 146 103 161 c 0
 103 254 124 341 152 408 c 0
 162 432 175 452 188 467 c 1
 272 461 325 418 356 358 c 0
 386 300 399 224 399 136 c 0
 396 131 389 126 380 119 c 0
 347 94 302 72 261 53 c 0
 235 41 206 30 179 23 c 1
 187 -5 200 -30 218 -53 c 0
 236 -76 256 -99 281 -123 c 1
 285 -59 318 -5 354 30 c 0
 388 62 438 93 499 93 c 2
 532 93 l 1
 532 -1 l 1
 500 -1 l 2
 424 -1 371 -24 345 -75 c 1
EndSplineSet
Validated: 1
EndChar

StartChar: Ys
Encoding: 65597 -1 149
Width: 875
VWidth: 952
GlyphClass: 2
Flags: MW
LayerCount: 2
Back
Fore
SplineSet
128 9 m 0
 128 -82 202 -116 298 -116 c 0
 402 -116 507 -100 594 -78 c 0
 629 -69 661 -57 690 -43 c 1
 690 -12 660 6 636 16 c 0
 624 21 609 25 592 28 c 0
 580 30 568 32 556 34 c 0
 517 41 481 56 461 82 c 1
 461 109 469 134 473 159 c 1
 500 231 534 283 586 319 c 0
 619 342 657 354 706 354 c 0
 764 354 793 303 814 265 c 1
 771 193 l 1
 753 203 l 1
 753 209 l 2
 753 231 727 245 711 252 c 0
 704 255 697 256 690 256 c 0
 599 256 548 218 519 152 c 1
 530 128 568 119 601 113 c 0
 657 103 703 89 728 54 c 0
 733 47 736 39 737 32 c 0
 737 -21 722 -78 708 -119 c 1
 630 -158 533 -183 433 -201 c 0
 384 -210 330 -215 274 -215 c 0
 151 -215 55 -168 55 -45 c 0
 55 -6 66 30 77 64 c 0
 93 114 116 162 143 207 c 1
 180 189 l 1
 156 152 139 101 132 50 c 0
 130 35 128 21 128 9 c 0
EndSplineSet
Validated: 1
EndChar

StartChar: Yf
Encoding: 65598 -1 150
Width: 817
VWidth: 952
GlyphClass: 2
Flags: MW
LayerCount: 2
Back
Fore
SplineSet
818 -1 m 1
 768 -1 733 9 699 22 c 0
 684 28 671 32 660 37 c 0
 649 42 637 44 625 44 c 0
 607 44 592 37 581 26 c 1
 592 18 l 2
 632 -7 681 -39 719 -66 c 0
 726 -71 730 -73 730 -72 c 1
 730 -84 716 -102 710 -114 c 0
 705 -124 700 -134 695 -144 c 0
 690 -154 685 -161 682 -167 c 1
 599 -190 514 -214 420 -228 c 0
 386 -233 350 -236 312 -236 c 0
 209 -236 128 -192 90 -126 c 0
 77 -103 70 -77 70 -48 c 0
 70 -21 77 11 92 48 c 0
 107 85 130 129 159 179 c 1
 196 161 l 1
 179 132 167 103 158 74 c 0
 149 45 144 18 144 -6 c 0
 144 -54 168 -82 199 -102 c 0
 233 -124 279 -136 335 -136 c 0
 442 -136 544 -117 638 -101 c 1
 605 -79 565 -54 532 -32 c 0
 526 -28 520 -24 517 -21 c 0
 526 17 538 63 556 93 c 1
 574 111 602 122 634 122 c 0
 663 122 685 115 710 108 c 0
 742 99 776 93 818 93 c 1
 818 -1 l 1
EndSplineSet
Validated: 1
EndChar

StartChar: LAs
Encoding: 65599 -1 151
Width: 704
VWidth: 952
GlyphClass: 2
Flags: MW
LayerCount: 2
Back
Fore
SplineSet
339 49 m 1
 339 114 324 175 310 230 c 0
 298 274 280 316 260 351 c 0
 250 368 239 381 228 391 c 1
 220 359 l 1
 193 355 l 1
 137 490 l 1
 139 501 142 510 144 518 c 0
 151 547 165 564 179 586 c 1
 256 499 316 412 356 305 c 0
 384 231 396 159 396 68 c 1
 441 85 486 106 522 132 c 0
 533 140 542 149 548 157 c 1
 548 225 544 294 540 360 c 0
 536 427 530 498 524 560 c 0
 519 612 514 664 507 708 c 1
 599 779 l 1
 646 598 l 1
 622 587 l 1
 590 617 l 1
 593 584 597 550 600 515 c 0
 609 414 611 308 611 202 c 0
 611 156 602 131 583 98 c 1
 536 54 477 5 408 -18 c 0
 384 -26 360 -31 336 -31 c 2
 200 -31 l 1
 178 -6 l 1
 339 49 l 1
EndSplineSet
Validated: 1
EndChar

StartChar: uniFEFB
Encoding: 65275 65275 152
Width: 628
VWidth: 952
GlyphClass: 3
LigCaretCntFixed: 1
Flags: MW
AnchorPoint: "Anchor-3" 461 -48 baselig 0
AnchorPoint: "Anchor-2" 439 794 baselig 0
AnchorPoint: "Anchor-3" 146 -107 baselig 1
AnchorPoint: "Anchor-2" 103 750 baselig 1
LayerCount: 2
Back
Fore
SplineSet
515 617 m 1
 527 487 536 343 536 202 c 0
 536 156 526 132 508 98 c 1
 478 70 437 38 399 14 c 0
 363 -8 314 -31 260 -31 c 2
 125 -31 l 1
 103 -6 l 1
 261 48 l 1
 254 126 l 2
 249 186 244 248 230 306 c 0
 211 386 184 456 140 518 c 1
 132 486 l 1
 109 486 l 1
 69 610 l 1
 78 647 87 670 104 696 c 0
 108 702 113 710 118 719 c 1
 188 611 246 511 282 381 c 0
 303 304 309 223 315 132 c 2
 320 68 l 1
 363 88 410 108 446 134 c 0
 457 142 466 149 473 157 c 1
 473 225 468 294 464 360 c 0
 460 427 454 498 448 560 c 0
 443 612 439 664 432 708 c 1
 523 779 l 1
 571 598 l 1
 546 587 l 1
 515 617 l 1
EndSplineSet
Validated: 1
Ligature2: "'rlig' Required Ligatures in Arabic lookup 2 subtable" uni0644.init uniFE8E
LCarets2: 1 300 
EndChar

StartChar: LAf
Encoding: 65600 -1 153
Width: 768
VWidth: 952
GlyphClass: 2
Flags: MW
LayerCount: 2
Back
Fore
SplineSet
569 171 m 1
 558 339 549 502 533 665 c 1
 601 770 l 1
 610 574 616 368 628 177 c 0
 631 115 676 93 740 93 c 2
 769 93 l 1
 769 -1 l 1
 740 -1 l 2
 677 -1 631 30 602 66 c 0
 591 80 583 96 580 113 c 1
 547 54 492 7 424 -18 c 0
 402 -26 380 -31 357 -31 c 2
 219 -31 l 1
 194 34 l 1
 360 56 l 1
 360 118 344 181 330 233 c 0
 314 292 286 356 247 391 c 1
 239 359 l 1
 212 355 l 1
 156 490 l 1
 163 531 180 556 198 586 c 1
 275 499 334 412 374 305 c 0
 401 231 415 158 415 68 c 1
 447 80 478 94 506 110 c 0
 532 125 554 147 569 171 c 1
EndSplineSet
Validated: 1
EndChar

StartChar: uniFEFC
Encoding: 65276 65276 154
Width: 673
VWidth: 952
GlyphClass: 3
LigCaretCntFixed: 1
Flags: MW
AnchorPoint: "Anchor-3" 461 -48 baselig 0
AnchorPoint: "Anchor-2" 439 794 baselig 0
AnchorPoint: "Anchor-3" 146 -107 baselig 1
AnchorPoint: "Anchor-2" 103 750 baselig 1
LayerCount: 2
Back
Fore
SplineSet
474 171 m 1
 463 341 454 500 438 665 c 1
 506 770 l 1
 507 748 507 722 508 693 c 0
 514 523 522 344 533 177 c 0
 536 115 582 93 646 93 c 2
 674 93 l 1
 674 -1 l 1
 646 -1 l 2
 583 -1 536 30 507 66 c 0
 496 80 489 96 485 113 c 1
 453 55 396 6 330 -18 c 0
 308 -26 285 -31 262 -31 c 2
 125 -31 l 1
 100 34 l 1
 262 49 l 1
 257 127 l 2
 251 285 209 416 140 517 c 1
 132 485 l 1
 113 478 l 1
 70 606 l 1
 79 643 89 666 106 692 c 0
 110 698 115 705 120 713 c 1
 175 630 217 559 253 472 c 0
 285 393 306 314 310 214 c 0
 311 188 313 161 315 132 c 2
 320 68 l 1
 364 89 414 108 448 139 c 0
 459 149 467 160 474 171 c 1
EndSplineSet
Validated: 1
Ligature2: "'rlig' Required Ligatures in Arabic lookup 2 subtable" uni0644.medi uniFE8E
LCarets2: 1 352 
EndChar

StartChar: D1
Encoding: 65601 -1 155
Width: 249
VWidth: 952
GlyphClass: 5
Flags: MW
LayerCount: 2
Back
Fore
SplineSet
184 506 m 1
 129 451 l 1
 123 451 l 1
 68 506 l 1
 68 512 l 1
 123 566 l 1
 129 566 l 1
 184 512 l 1
 184 506 l 1
EndSplineSet
Validated: 1
EndChar

StartChar: D2
Encoding: 65602 -1 156
Width: 311
VWidth: 952
GlyphClass: 5
Flags: MW
LayerCount: 2
Back
Fore
SplineSet
146 506 m 1
 92 451 l 1
 86 451 l 1
 31 506 l 1
 31 512 l 1
 86 566 l 1
 92 566 l 1
 146 512 l 1
 146 506 l 1
291 506 m 1
 236 451 l 1
 230 451 l 1
 176 506 l 1
 176 512 l 1
 230 566 l 1
 236 566 l 1
 291 512 l 1
 291 506 l 1
EndSplineSet
Validated: 1
EndChar

StartChar: D3
Encoding: 65603 -1 157
Width: 311
VWidth: 952
GlyphClass: 5
Flags: MW
LayerCount: 2
Back
Fore
SplineSet
304 469 m 1
 250 414 l 1
 244 414 l 1
 189 469 l 1
 189 474 l 1
 244 529 l 1
 250 529 l 1
 304 474 l 1
 304 469 l 1
123 469 m 1
 68 414 l 1
 62 414 l 1
 7 469 l 1
 7 474 l 1
 62 529 l 1
 68 529 l 1
 123 474 l 1
 123 469 l 1
213 577 m 1
 159 522 l 1
 153 522 l 1
 98 577 l 1
 98 583 l 1
 153 638 l 1
 159 638 l 1
 213 583 l 1
 213 577 l 1
EndSplineSet
Validated: 1
EndChar

StartChar: D1b
Encoding: 65604 -1 158
Width: 249
VWidth: 952
GlyphClass: 5
Flags: MW
LayerCount: 2
Back
Fore
SplineSet
184 -171 m 1
 129 -226 l 1
 123 -226 l 1
 68 -171 l 1
 68 -165 l 1
 123 -110 l 1
 129 -110 l 1
 184 -165 l 1
 184 -171 l 1
EndSplineSet
Validated: 1
EndChar

StartChar: D2b
Encoding: 65605 -1 159
Width: 311
VWidth: 952
GlyphClass: 5
Flags: MW
LayerCount: 2
Back
Fore
SplineSet
144 -181 m 1
 89 -236 l 1
 83 -236 l 1
 28 -181 l 1
 28 -175 l 1
 83 -121 l 1
 89 -121 l 1
 144 -175 l 1
 144 -181 l 1
288 -181 m 1
 233 -236 l 1
 228 -236 l 1
 173 -181 l 1
 173 -175 l 1
 228 -121 l 1
 233 -121 l 1
 288 -175 l 1
 288 -181 l 1
EndSplineSet
Validated: 1
EndChar

StartChar: D3b
Encoding: 65606 -1 160
Width: 311
VWidth: 952
GlyphClass: 5
Flags: MW
LayerCount: 2
Back
Fore
SplineSet
297 -150 m 1
 242 -204 l 1
 236 -204 l 1
 182 -150 l 1
 182 -144 l 1
 236 -89 l 1
 242 -89 l 1
 297 -144 l 1
 297 -150 l 1
115 -150 m 1
 61 -204 l 1
 55 -204 l 1
 0 -150 l 1
 0 -144 l 1
 55 -89 l 1
 61 -89 l 1
 115 -144 l 1
 115 -150 l 1
206 -258 m 1
 151 -313 l 1
 146 -313 l 1
 91 -258 l 1
 91 -252 l 1
 146 -197 l 1
 151 -197 l 1
 206 -252 l 1
 206 -258 l 1
EndSplineSet
Validated: 1
EndChar

StartChar: mA
Encoding: 65607 -1 161
Width: 298
VWidth: 952
GlyphClass: 5
Flags: MW
LayerCount: 2
Back
Fore
SplineSet
267 575 m 1
 259 594 251 607 228 610 c 0
 221 611 212 612 201 612 c 0
 153 612 126 573 109 542 c 0
 105 535 102 528 100 522 c 0
 98 516 96 513 96 511 c 0
 96 510 98 510 102 510 c 0
 131 510 161 519 186 525 c 0
 218 533 253 550 267 575 c 1
212 662 m 0
 262 662 297 649 297 600 c 0
 297 585 293 565 288 554 c 0
 284 547 276 532 270 529 c 0
 218 490 171 454 87 454 c 2
 68 454 l 2
 36 454 27 481 -3 481 c 0
 -21 481 -34 473 -46 465 c 1
 -48 473 -49 486 -51 494 c 0
 -52 498 -52 500 -53 499 c 1
 -50 503 -48 508 -45 512 c 0
 -34 526 -23 537 3 537 c 0
 20 537 33 512 48 508 c 0
 52 507 56 509 59 516 c 0
 84 577 116 631 175 654 c 0
 188 659 201 662 212 662 c 0
EndSplineSet
Validated: 1
EndChar

StartChar: mH
Encoding: 65608 -1 162
Width: 220
VWidth: 952
GlyphClass: 5
Flags: MW
LayerCount: 2
Back
Fore
SplineSet
-14 432 m 1
 -10 449 -6 463 0 481 c 1
 42 481 73 491 104 504 c 0
 116 509 130 514 145 521 c 1
 145 548 107 547 81 554 c 0
 68 558 55 564 45 572 c 0
 40 576 35 579 32 584 c 0
 33 589 33 595 34 602 c 0
 41 648 67 684 90 702 c 0
 111 718 137 725 167 725 c 0
 180 725 186 724 194 720 c 1
 188 702 183 685 177 668 c 1
 173 669 168 670 164 670 c 0
 160 670 156 671 153 671 c 0
 107 671 74 653 61 619 c 1
 73 598 110 590 136 584 c 0
 150 580 167 574 167 559 c 0
 167 532 161 503 153 483 c 1
 129 467 91 454 60 444 c 0
 38 437 17 431 -6 431 c 0
 -10 431 -12 432 -14 432 c 1
EndSplineSet
Validated: 1
EndChar

StartChar: uni064B
Encoding: 1611 1611 163
Width: 0
VWidth: 952
GlyphClass: 4
Flags: MW
AnchorPoint: "Anchor-4" 132 494 mark 0
AnchorPoint: "Anchor-2" 132 494 mark 0
AnchorPoint: "Anchor-0" 132 494 mark 0
LayerCount: 2
Back
Fore
SplineSet
245 559 m 1
 5 464 l 1
 5 509 l 1
 245 604 l 1
 245 559 l 1
245 687 m 1
 5 592 l 1
 5 637 l 1
 245 732 l 1
 245 687 l 1
EndSplineSet
Validated: 1
EndChar

StartChar: uni064C
Encoding: 1612 1612 164
Width: 0
VWidth: 952
GlyphClass: 4
Flags: MW
AnchorPoint: "Anchor-4" 117 413 mark 0
AnchorPoint: "Anchor-2" 117 413 mark 0
AnchorPoint: "Anchor-0" 117 413 mark 0
LayerCount: 2
Back
Fore
SplineSet
198 624 m 0
 198 655 186 675 163 684 c 1
 118 684 99 652 89 612 c 1
 99 602 111 594 126 588 c 0
 143 581 159 576 178 571 c 1
 186 584 198 607 198 624 c 0
208 561 m 1
 223 555 228 554 246 550 c 1
 246 512 l 1
 237 515 227 518 218 521 c 0
 209 524 200 527 191 530 c 1
 180 513 166 498 149 484 c 0
 102 445 46 414 -17 392 c 1
 -20 408 -26 419 -30 435 c 1
 -14 437 8 448 18 452 c 0
 19 456 19 459 19 462 c 2
 19 469 l 2
 19 508 -1 536 -41 536 c 0
 -48 536 -56 535 -63 533 c 1
 -69 549 -79 556 -86 571 c 1
 -74 575 -64 577 -49 577 c 0
 16 577 43 523 46 460 c 1
 55 463 65 469 76 476 c 0
 106 495 140 516 161 542 c 1
 118 553 75 559 54 594 c 1
 63 651 94 695 139 716 c 0
 154 723 169 726 186 727 c 1
 210 715 232 685 232 649 c 0
 232 619 226 597 216 578 c 0
 213 572 211 566 208 561 c 1
EndSplineSet
Validated: 1
EndChar

StartChar: uni064D
Encoding: 1613 1613 165
Width: 0
VWidth: 952
GlyphClass: 4
Flags: MW
AnchorPoint: "Anchor-5" 110 -55 mark 0
AnchorPoint: "Anchor-3" 110 -55 mark 0
AnchorPoint: "Anchor-1" 110 -55 mark 0
LayerCount: 2
Back
Fore
SplineSet
232 -212 m 1
 -8 -309 l 1
 -8 -263 l 1
 232 -167 l 1
 232 -212 l 1
232 -89 m 1
 -8 -185 l 1
 -8 -140 l 1
 232 -44 l 1
 232 -89 l 1
EndSplineSet
Validated: 1
EndChar

StartChar: uni064E
Encoding: 1614 1614 166
Width: 0
VWidth: 952
GlyphClass: 4
Flags: MW
AnchorPoint: "Anchor-4" 117 604 mark 0
AnchorPoint: "Anchor-2" 117 604 mark 0
AnchorPoint: "Anchor-0" 117 604 mark 0
LayerCount: 2
Back
Fore
SplineSet
232 681 m 1
 -8 584 l 1
 -8 629 l 1
 232 725 l 1
 232 681 l 1
EndSplineSet
Validated: 1
EndChar

StartChar: uni064F
Encoding: 1615 1615 167
Width: 0
VWidth: 952
GlyphClass: 4
Flags: MW
AnchorPoint: "Anchor-4" 125 399 mark 0
AnchorPoint: "Anchor-2" 125 399 mark 0
AnchorPoint: "Anchor-0" 125 399 mark 0
LayerCount: 2
Back
Fore
SplineSet
184 619 m 0
 184 650 172 669 149 679 c 1
 104 679 89 654 79 614 c 1
 102 591 135 582 169 570 c 1
 177 586 184 600 184 619 c 0
199 557 m 1
 211 552 228 544 243 542 c 1
 234 506 l 1
 213 513 195 520 178 530 c 1
 137 470 73 423 -8 394 c 1
 -8 444 l 1
 57 457 113 495 148 538 c 1
 118 545 92 560 69 574 c 0
 61 579 55 584 50 589 c 1
 53 672 91 719 171 724 c 1
 193 713 204 690 213 664 c 0
 216 655 217 647 217 638 c 0
 217 625 213 612 210 600 c 0
 206 585 203 570 199 557 c 1
EndSplineSet
Validated: 1
EndChar

StartChar: uni0650
Encoding: 1616 1616 168
Width: 0
VWidth: 952
GlyphClass: 4
Flags: MW
AnchorPoint: "Anchor-5" 132 -158 mark 0
AnchorPoint: "Anchor-3" 132 -158 mark 0
AnchorPoint: "Anchor-1" 132 -158 mark 0
LayerCount: 2
Back
Fore
SplineSet
232 -210 m 1
 -8 -305 l 1
 -8 -260 l 1
 232 -165 l 1
 232 -210 l 1
EndSplineSet
Validated: 1
EndChar

StartChar: uni0651
Encoding: 1617 1617 169
Width: 0
VWidth: 952
GlyphClass: 4
Flags: MW
AnchorPoint: "Anchor-4" 110 516 mark 0
AnchorPoint: "Anchor-2" 110 516 mark 0
AnchorPoint: "Anchor-0" 110 516 mark 0
LayerCount: 2
Back
Fore
SplineSet
216 688 m 0
 216 697 215 712 213 719 c 1
 244 726 l 1
 249 635 l 2
 249 583 226 540 174 540 c 0
 164 540 155 547 148 552 c 0
 135 562 125 575 120 595 c 1
 112 551 96 502 44 502 c 0
 -7 502 -24 556 -24 607 c 2
 -26 644 l 1
 1 651 l 1
 3 606 l 2
 3 574 12 540 44 540 c 0
 82 540 91 577 96 610 c 0
 98 622 99 634 99 645 c 2
 99 680 l 1
 125 689 l 1
 125 653 137 613 152 590 c 0
 158 581 167 577 176 577 c 0
 210 577 218 617 218 652 c 2
 218 669 l 2
 218 676 216 682 216 688 c 0
EndSplineSet
Validated: 1
EndChar

StartChar: uni0652
Encoding: 1618 1618 170
Width: 0
VWidth: 952
GlyphClass: 4
Flags: MW
AnchorPoint: "Anchor-4" 117 501 mark 0
AnchorPoint: "Anchor-2" 117 501 mark 0
AnchorPoint: "Anchor-0" 117 501 mark 0
LayerCount: 2
Back
Fore
SplineSet
37 587 m 0
 37 554 71 546 104 546 c 0
 133 546 161 559 174 575 c 1
 176 582 l 1
 172 619 148 651 122 668 c 0
 111 675 98 680 83 681 c 1
 53 662 37 633 37 587 c 0
204 591 m 0
 204 577 194 556 190 542 c 1
 168 522 137 498 98 498 c 0
 57 498 28 524 12 551 c 0
 6 561 3 571 3 580 c 0
 3 654 34 699 83 727 c 1
 139 714 178 683 196 633 c 0
 201 619 204 605 204 591 c 0
EndSplineSet
Validated: 1
EndChar

StartChar: uni0653
Encoding: 1619 1619 171
Width: 0
VWidth: 952
GlyphClass: 4
Flags: MW
AnchorPoint: "Anchor-4" 125 728 mark 0
AnchorPoint: "Anchor-2" 125 728 mark 0
AnchorPoint: "Anchor-0" 125 728 mark 0
LayerCount: 2
Back
Fore
SplineSet
-14 820 m 1
 20 813 67 808 111 808 c 0
 173 808 229 830 270 852 c 0
 285 860 297 866 306 872 c 1
 306 810 l 1
 255 769 188 737 95 737 c 0
 67 737 36 737 17 741 c 1
 8 726 1 703 -1 682 c 1
 -24 682 l 2
 -31 682 -36 684 -39 685 c 0
 -39 724 -33 763 -24 794 c 0
 -21 805 -18 813 -14 820 c 1
EndSplineSet
Validated: 1
EndChar

StartChar: uni0654
Encoding: 1620 1620 172
Width: 0
VWidth: 952
GlyphClass: 4
Flags: MW
AnchorPoint: "Anchor-4" 110 531 mark 0
AnchorPoint: "Anchor-2" 110 531 mark 0
AnchorPoint: "Anchor-0" 110 531 mark 0
LayerCount: 2
Back
Fore
SplineSet
49 681 m 1
 62 653 97 627 136 625 c 1
 168 634 211 643 244 649 c 1
 224 581 l 1
 189 581 146 568 114 558 c 0
 73 545 21 526 -13 506 c 1
 -13 556 l 1
 11 568 39 578 69 587 c 1
 69 590 l 1
 32 602 1 632 1 677 c 1
 25 713 46 738 76 760 c 0
 95 774 113 783 141 783 c 0
 176 783 201 757 216 734 c 1
 170 699 l 1
 155 714 139 728 117 728 c 0
 109 728 99 724 86 716 c 0
 73 708 60 696 49 681 c 1
EndSplineSet
Validated: 1
EndChar

StartChar: uni0655
Encoding: 1621 1621 173
Width: 0
VWidth: 952
GlyphClass: 4
Flags: MW
AnchorPoint: "Anchor-5" 110 -92 mark 0
AnchorPoint: "Anchor-3" 110 -92 mark 0
AnchorPoint: "Anchor-1" 110 -92 mark 0
LayerCount: 2
Back
Fore
SplineSet
42 -183 m 1
 56 -212 89 -236 129 -238 c 1
 161 -229 203 -221 237 -215 c 1
 217 -282 l 1
 182 -282 142 -294 108 -304 c 0
 64 -317 14 -336 -20 -358 c 1
 -20 -307 l 1
 3 -295 33 -285 62 -276 c 1
 62 -274 l 1
 25 -262 -5 -233 -5 -187 c 1
 9 -166 22 -150 34 -136 c 0
 59 -107 85 -81 134 -81 c 0
 170 -81 194 -105 209 -129 c 1
 164 -164 l 1
 149 -149 132 -135 110 -135 c 0
 102 -135 91 -139 78 -147 c 0
 65 -155 53 -167 42 -183 c 1
EndSplineSet
Validated: 1
EndChar

StartChar: uni0656
Encoding: 1622 1622 174
Width: 0
VWidth: 952
GlyphClass: 4
Flags: MW
AnchorPoint: "Anchor-5" 117 -92 mark 0
AnchorPoint: "Anchor-3" 117 -92 mark 0
AnchorPoint: "Anchor-1" 117 -92 mark 0
LayerCount: 2
Back
Fore
SplineSet
164 -256 m 0
 164 -269 163 -287 159 -298 c 1
 132 -298 l 1
 132 -240 121 -198 101 -161 c 0
 95 -150 89 -139 83 -128 c 1
 122 -92 l 1
 149 -132 165 -178 165 -244 c 0
 165 -247 164 -251 164 -256 c 0
EndSplineSet
Validated: 1
EndChar

StartChar: uni0670
Encoding: 1648 1648 175
Width: 0
VWidth: 952
GlyphClass: 4
Flags: MW
AnchorPoint: "Anchor-4" 110 531 mark 0
AnchorPoint: "Anchor-2" 110 531 mark 0
AnchorPoint: "Anchor-0" 110 531 mark 0
LayerCount: 2
Back
Fore
SplineSet
141 580 m 0
 141 563 135 544 135 527 c 1
 107 527 l 1
 107 604 88 651 58 697 c 1
 97 732 l 1
 123 693 141 646 141 580 c 0
EndSplineSet
Validated: 1
EndChar

StartChar: uniFD3E
Encoding: 64830 64830 176
Width: 771
VWidth: 952
GlyphClass: 2
Flags: MW
LayerCount: 2
Back
Fore
SplineSet
379 140 m 1
 489 251 l 1
 379 362 l 1
 268 251 l 1
 379 140 l 1
253 8 m 1
 328 -140 465 -244 636 -304 c 1
 639 -304 l 1
 564 -222 502 -124 459 -11 c 1
 379 -90 l 1
 280 8 l 1
 253 8 l 1
459 510 m 1
 502 624 565 720 639 804 c 1
 636 804 l 1
 466 747 328 642 253 492 c 1
 280 492 l 1
 379 590 l 1
 459 510 l 1
379 90 m 0
 330 90 291 113 266 138 c 0
 241 163 218 202 218 251 c 0
 218 300 241 339 266 364 c 0
 291 389 331 411 379 411 c 0
 453 411 504 366 527 314 c 0
 536 294 540 273 540 251 c 0
 540 202 517 163 492 138 c 0
 467 113 428 90 379 90 c 0
572 56 m 1
 572 171 l 1
 651 250 l 1
 572 329 l 1
 572 443 l 1
 458 443 l 1
 379 522 l 1
 300 443 l 1
 186 443 l 1
 186 329 l 1
 106 250 l 1
 186 171 l 1
 186 56 l 1
 300 56 l 1
 379 -23 l 1
 458 56 l 1
 572 56 l 1
627 -351 m 1
 525 -318 436 -267 364 -205 c 0
 296 -146 240 -76 201 8 c 1
 137 8 l 1
 137 151 l 1
 39 250 l 1
 137 348 l 1
 137 492 l 1
 201 492 l 1
 239 576 295 647 364 704 c 0
 438 765 524 817 627 851 c 1
 752 851 l 1
 725 825 700 798 676 770 c 0
 629 715 588 653 552 589 c 0
 534 557 519 525 506 492 c 1
 621 492 l 1
 621 348 l 1
 719 250 l 1
 621 151 l 1
 621 8 l 1
 506 8 l 1
 533 -61 570 -125 610 -182 c 0
 653 -243 700 -299 752 -351 c 1
 627 -351 l 1
EndSplineSet
Validated: 1
EndChar

StartChar: uniFD3F
Encoding: 64831 64831 177
Width: 771
VWidth: 952
GlyphClass: 2
Flags: MW
LayerCount: 2
Back
Fore
SplineSet
504 251 m 1
 393 362 l 1
 283 251 l 1
 393 140 l 1
 504 251 l 1
492 8 m 1
 393 -90 l 1
 313 -11 l 1
 270 -124 208 -222 133 -304 c 1
 136 -304 l 1
 308 -244 444 -140 519 8 c 1
 492 8 l 1
133 804 m 1
 207 720 270 624 313 510 c 1
 393 590 l 1
 492 492 l 1
 519 492 l 1
 443 644 306 744 136 804 c 1
 133 804 l 1
554 251 m 0
 554 202 531 163 506 138 c 0
 481 113 442 90 393 90 c 0
 344 90 305 113 280 138 c 0
 255 163 232 202 232 251 c 0
 232 300 255 339 280 364 c 0
 305 389 345 411 393 411 c 0
 467 411 518 366 541 314 c 0
 550 294 554 273 554 251 c 0
586 56 m 1
 586 171 l 1
 666 250 l 1
 586 329 l 1
 586 443 l 1
 472 443 l 1
 393 522 l 1
 313 443 l 1
 200 443 l 1
 200 329 l 1
 121 250 l 1
 200 171 l 1
 200 56 l 1
 313 56 l 1
 393 -23 l 1
 472 56 l 1
 586 56 l 1
635 8 m 1
 571 8 l 1
 513 -122 411 -219 289 -288 c 0
 245 -313 197 -334 145 -351 c 1
 20 -351 l 1
 47 -325 72 -298 96 -270 c 0
 120 -242 141 -212 162 -182 c 0
 202 -125 239 -61 266 8 c 1
 151 8 l 1
 151 151 l 1
 53 250 l 1
 151 348 l 1
 151 492 l 1
 266 492 l 1
 239 561 202 625 162 682 c 0
 119 743 72 799 20 851 c 1
 145 851 l 1
 248 817 334 765 408 704 c 0
 476 647 533 575 571 492 c 1
 635 492 l 1
 635 348 l 1
 733 250 l 1
 635 151 l 1
 635 8 l 1
EndSplineSet
Validated: 1
EndChar

StartChar: uniFDFC
Encoding: 65020 65020 178
Width: 1207
VWidth: 952
GlyphClass: 2
Flags: MW
LayerCount: 2
Back
Fore
SplineSet
656 -136 m 1
 591 -72 l 1
 651 -4 l 1
 715 -69 l 1
 656 -136 l 1
791 -131 m 1
 726 -67 l 1
 787 2 l 1
 850 -63 l 1
 791 -131 l 1
1048 333 m 1
 1079 281 1106 216 1126 154 c 0
 1132 135 1135 120 1137 109 c 0
 1132 42 1102 -13 1070 -60 c 0
 1030 -119 980 -179 933 -235 c 1
 891 -232 854 -221 824 -206 c 0
 814 -201 806 -197 800 -192 c 1
 869 -153 938 -107 994 -60 c 0
 1020 -38 1041 -18 1058 2 c 0
 1075 22 1085 41 1088 58 c 1
 1085 85 1074 111 1064 135 c 0
 1052 165 1032 195 1011 218 c 1
 1048 333 l 1
686 259 m 2
 686 185 703 143 775 143 c 0
 824 143 860 152 882 177 c 0
 888 184 893 193 898 202 c 1
 893 233 878 265 865 290 c 0
 860 300 854 309 849 315 c 1
 896 422 l 1
 909 398 921 359 930 328 c 0
 938 299 945 262 947 230 c 1
 937 164 906 100 860 68 c 0
 844 57 827 51 808 51 c 2
 764 51 l 2
 702 51 672 68 652 112 c 0
 627 166 627 242 627 328 c 2
 627 526 l 2
 627 544 626 561 626 576 c 0
 626 619 621 655 612 688 c 1
 677 767 l 1
 684 728 686 695 686 645 c 2
 686 259 l 2
512 620 m 1
 520 482 524 331 524 186 c 0
 524 155 525 127 525 100 c 2
 525 33 l 1
 516 -16 504 -67 491 -112 c 1
 439 -180 344 -216 229 -216 c 0
 150 -216 104 -179 82 -120 c 0
 74 -99 70 -75 70 -47 c 0
 70 18 86 81 104 134 c 0
 112 158 121 184 132 209 c 1
 165 185 l 1
 143 135 124 78 124 8 c 0
 124 -72 167 -118 246 -118 c 0
 351 -118 428 -83 477 -24 c 1
 477 166 468 358 458 538 c 0
 455 593 450 646 440 684 c 1
 496 762 l 1
 501 724 517 681 529 646 c 0
 534 632 540 614 546 603 c 1
 531 609 523 611 512 620 c 1
EndSplineSet
Validated: 1
EndChar

StartChar: mG
Encoding: 65609 -1 179
Width: 267
VWidth: 952
GlyphClass: 5
Flags: MW
LayerCount: 2
Back
Fore
SplineSet
280 609 m 1
 257 604 227 592 202 582 c 0
 125 552 41 517 -33 485 c 1
 -24 530 l 1
 38 562 106 590 173 616 c 0
 209 630 244 644 279 654 c 0
 293 658 304 661 313 662 c 1
 280 609 l 1
EndSplineSet
Validated: 1
EndChar

StartChar: uniFB92
Encoding: 64402 64402 180
Width: 1078
VWidth: 952
GlyphClass: 2
Flags: MW
AnchorPoint: "Anchor-1" 146 -102 basechar 0
AnchorPoint: "Anchor-0" 220 562 basechar 0
LayerCount: 2
Back
Fore
SplineSet
1027 728 m 1
 1017 726 1004 722 986 716 c 0
 917 693 844 667 779 638 c 0
 735 619 687 598 649 578 c 1
 660 629 l 1
 698 649 746 670 790 688 c 0
 815 698 840 710 865 720 c 0
 909 738 953 754 996 768 c 0
 1014 774 1028 777 1038 779 c 1
 1027 728 l 1
1003 570 m 1
 970 565 933 550 899 539 c 0
 857 525 811 508 772 490 c 0
 752 481 733 474 716 466 c 0
 699 458 685 451 674 446 c 1
 742 416 796 384 843 342 c 0
 874 314 899 281 909 239 c 1
 891 107 l 1
 860 68 807 41 752 24 c 0
 647 -9 520 -19 384 -19 c 0
 282 -19 200 -5 142 32 c 0
 99 59 70 98 70 161 c 0
 70 232 106 298 136 349 c 1
 182 326 l 1
 166 300 153 268 146 236 c 0
 144 227 144 220 144 213 c 0
 144 164 172 136 208 116 c 0
 230 104 258 96 292 90 c 0
 326 84 368 80 415 80 c 0
 524 80 623 87 708 105 c 0
 746 113 777 123 802 134 c 0
 827 145 844 157 854 170 c 1
 853 185 848 201 841 218 c 0
 834 235 821 253 804 271 c 0
 760 318 701 350 629 382 c 1
 642 509 l 1
 711 540 787 578 860 606 c 0
 922 630 983 656 1048 671 c 1
 1003 570 l 1
EndSplineSet
Validated: 1
EndChar

StartChar: uni06AF.fina
Encoding: 64403 64403 181
Width: 1141
VWidth: 952
GlyphClass: 2
Flags: MW
AnchorPoint: "Anchor-1" 146 -102 basechar 0
AnchorPoint: "Anchor-0" 220 562 basechar 0
LayerCount: 2
Back
Fore
SplineSet
1027 728 m 1
 1017 726 1004 722 986 716 c 0
 917 693 844 667 779 638 c 0
 735 619 687 598 649 578 c 1
 660 629 l 1
 698 649 746 670 790 688 c 0
 815 698 840 710 865 720 c 0
 909 738 953 754 996 768 c 0
 1014 774 1028 777 1038 779 c 1
 1027 728 l 1
889 222 m 1
 892 207 895 190 895 173 c 0
 895 163 894 152 894 140 c 0
 894 128 893 116 891 107 c 1
 860 68 807 41 752 24 c 0
 647 -9 520 -19 384 -19 c 0
 282 -19 200 -5 142 32 c 0
 99 59 70 98 70 161 c 0
 70 232 106 298 136 349 c 1
 182 326 l 1
 166 300 153 268 146 236 c 0
 144 227 144 220 144 213 c 0
 144 164 172 136 208 116 c 0
 230 104 258 96 292 90 c 0
 326 84 368 80 415 80 c 0
 523 80 620 87 704 105 c 0
 763 118 820 134 847 169 c 1
 846 184 841 200 834 217 c 0
 815 264 778 295 734 326 c 0
 707 345 672 363 629 382 c 1
 642 509 l 1
 711 540 787 578 860 606 c 0
 922 630 983 656 1048 671 c 1
 1003 570 l 1
 970 565 933 550 899 539 c 0
 837 518 774 490 716 466 c 0
 699 459 685 452 674 446 c 1
 695 435 716 425 736 414 c 0
 801 378 859 335 915 287 c 0
 960 249 990 201 1022 153 c 0
 1043 121 1065 93 1116 93 c 2
 1142 93 l 1
 1142 -1 l 1
 1117 -1 l 2
 1069 -1 1038 20 1014 46 c 0
 977 86 952 143 922 190 c 0
 913 204 903 215 892 224 c 1
 889 222 l 1
EndSplineSet
Validated: 1
EndChar

StartChar: uni06AF.init
Encoding: 64404 64404 182
Width: 498
VWidth: 952
GlyphClass: 2
Flags: MW
AnchorPoint: "Anchor-1" 146 -102 basechar 0
AnchorPoint: "Anchor-0" 132 706 basechar 0
LayerCount: 2
Back
Fore
SplineSet
440 728 m 1
 409 722 371 708 338 696 c 0
 266 670 189 637 121 607 c 0
 98 597 79 587 62 578 c 1
 73 629 l 1
 111 649 159 670 203 688 c 0
 228 698 253 710 278 720 c 0
 322 738 367 754 410 768 c 0
 428 774 442 777 451 779 c 1
 440 728 l 1
49 93 m 2
 151 93 226 115 268 170 c 1
 267 185 262 201 254 218 c 0
 232 265 195 294 148 326 c 0
 120 345 85 363 42 382 c 1
 55 509 l 1
 124 540 200 578 273 606 c 0
 299 616 324 625 348 634 c 0
 387 649 422 662 461 671 c 1
 416 570 l 1
 383 565 346 550 312 539 c 0
 234 513 157 478 87 446 c 1
 154 417 210 384 256 342 c 0
 287 314 312 281 322 239 c 1
 304 107 l 1
 284 86 264 70 244 56 c 0
 188 17 122 -1 28 -1 c 2
 0 -1 l 2
 -13 -1 -34 4 -34 16 c 2
 -34 93 l 1
 49 93 l 2
EndSplineSet
Validated: 1
EndChar

StartChar: uni06AF.medi
Encoding: 64405 64405 183
Width: 562
VWidth: 952
GlyphClass: 2
Flags: MW
AnchorPoint: "Anchor-1" 146 -102 basechar 0
AnchorPoint: "Anchor-0" 132 706 basechar 0
LayerCount: 2
Back
Fore
SplineSet
448 728 m 1
 417 722 379 708 346 696 c 0
 274 670 198 637 129 607 c 0
 106 597 86 587 69 578 c 1
 80 629 l 1
 118 649 166 670 210 688 c 2
 286 720 l 2
 341 742 399 766 458 779 c 1
 448 728 l 1
310 222 m 1
 313 207 315 189 315 173 c 0
 315 163 314 152 314 140 c 0
 314 128 313 116 311 107 c 1
 292 86 271 70 250 56 c 0
 192 18 124 -1 28 -1 c 2
 0 -1 l 2
 -13 -1 -34 4 -34 16 c 2
 -34 93 l 1
 49 93 l 2
 152 93 225 113 267 169 c 1
 264 211 245 242 220 270 c 0
 178 317 120 351 49 382 c 1
 62 509 l 1
 106 529 156 553 204 573 c 0
 230 584 255 596 281 606 c 0
 307 616 332 625 355 634 c 0
 392 648 431 662 468 671 c 1
 423 570 l 1
 390 565 353 550 320 539 c 0
 278 525 231 508 192 490 c 0
 172 481 153 474 136 466 c 0
 119 458 105 451 94 446 c 1
 137 423 176 404 216 378 c 0
 258 351 296 320 335 287 c 0
 381 248 411 202 444 153 c 0
 465 121 484 93 536 93 c 2
 562 93 l 1
 562 -1 l 1
 538 -1 l 2
 466 -1 427 46 400 92 c 0
 381 124 361 160 342 190 c 0
 333 204 323 215 312 224 c 1
 310 222 l 1
EndSplineSet
Validated: 1
EndChar

StartChar: uni0633_uni06CC.isol
Encoding: 65636 -1 406
Width: 1528
VWidth: 952
GlyphClass: 3
LigCaretCntFixed: 1
Flags: MW
AnchorPoint: "Anchor-3" 974 -129 baselig 0
AnchorPoint: "Anchor-2" 923 589 baselig 0
AnchorPoint: "Anchor-3" 205 -275 baselig 1
AnchorPoint: "Anchor-2" 249 450 baselig 1
LayerCount: 2
Back
Fore
SplineSet
128 9 m 0
 128 -82 202 -116 298 -116 c 0
 432 -116 544 -91 637 -46 c 1
 636 -39 636 -33 636 -27 c 0
 636 10 601 10 572 20 c 0
 541 30 523 46 504 70 c 1
 507 93 511 117 516 138 c 0
 550 218 610 275 698 302 c 0
 727 311 758 315 792 315 c 0
 830 315 850 300 870 280 c 0
 890 260 902 231 916 204 c 0
 941 155 965 93 1037 93 c 0
 1116 93 1139 178 1142 255 c 1
 1193 252 l 2
 1193 248 1192 243 1192 236 c 2
 1192 177 l 2
 1192 137 1217 113 1246 100 c 0
 1257 95 1269 93 1282 93 c 0
 1331 93 1365 99 1387 125 c 0
 1393 132 1398 141 1403 150 c 1
 1401 180 1386 209 1374 232 c 0
 1363 253 1346 278 1332 292 c 1
 1386 399 l 1
 1408 368 1424 328 1436 287 c 0
 1446 253 1456 217 1460 179 c 1
 1445 100 1418 41 1354 12 c 0
 1334 3 1312 -1 1287 -1 c 0
 1257 -1 1230 11 1209 22 c 0
 1185 35 1165 56 1159 86 c 1
 1157 86 l 1
 1142 37 1105 -1 1042 -1 c 0
 974 -1 934 24 908 66 c 0
 892 92 878 118 864 144 c 0
 843 182 816 211 757 211 c 0
 731 211 705 205 682 200 c 0
 642 191 604 175 578 152 c 0
 570 145 565 138 562 131 c 1
 568 107 586 104 611 97 c 0
 652 85 678 61 684 16 c 1
 684 -34 668 -83 655 -122 c 1
 579 -163 486 -193 384 -208 c 0
 349 -213 312 -215 274 -215 c 0
 151 -215 55 -168 55 -45 c 0
 55 -6 66 30 77 64 c 0
 93 114 116 162 143 207 c 1
 180 189 l 1
 156 152 139 101 132 50 c 0
 130 35 128 21 128 9 c 0
EndSplineSet
Validated: 1
Ligature2: "'liga' Standard Ligatures in Arabic lookup 7 subtable" uni0633.init uni0649.fina
Ligature2: "'liga' Standard Ligatures in Arabic lookup 7 subtable" uni0633.init uni06CC.fina
LCarets2: 1 813 
EndChar

StartChar: uni0633_uni06CC.fina
Encoding: 65637 -1 407
Width: 1583
VWidth: 952
GlyphClass: 3
LigCaretCntFixed: 1
Flags: MW
AnchorPoint: "Anchor-3" 974 -129 baselig 0
AnchorPoint: "Anchor-2" 923 589 baselig 0
AnchorPoint: "Anchor-3" 205 -275 baselig 1
AnchorPoint: "Anchor-2" 249 450 baselig 1
LayerCount: 2
Back
Fore
SplineSet
128 9 m 0
 128 -82 202 -116 298 -116 c 0
 432 -116 544 -91 637 -46 c 1
 636 -39 636 -33 636 -27 c 0
 636 10 601 10 572 20 c 0
 541 30 523 46 504 70 c 1
 507 93 511 117 516 138 c 0
 550 218 610 275 698 302 c 0
 727 311 758 315 792 315 c 0
 830 315 850 300 870 280 c 0
 890 260 902 231 916 204 c 0
 941 155 965 93 1037 93 c 0
 1116 93 1139 178 1142 255 c 1
 1193 252 l 2
 1193 248 1192 243 1192 236 c 2
 1192 177 l 2
 1192 137 1217 113 1246 100 c 0
 1257 95 1269 93 1282 93 c 0
 1321 93 1344 115 1360 140 c 0
 1378 168 1385 210 1387 255 c 1
 1438 252 l 1
 1438 214 l 2
 1438 206 1437 199 1437 192 c 2
 1437 177 l 2
 1437 139 1463 112 1490 100 c 0
 1501 95 1514 93 1527 93 c 2
 1583 93 l 1
 1583 -1 l 1
 1532 -1 l 2
 1486 -1 1444 22 1422 49 c 0
 1413 60 1407 72 1404 86 c 1
 1402 86 l 1
 1387 37 1350 -1 1287 -1 c 0
 1257 -1 1230 11 1209 22 c 0
 1185 35 1165 56 1159 86 c 1
 1157 86 l 1
 1142 37 1105 -1 1042 -1 c 0
 974 -1 934 24 908 66 c 0
 892 92 878 118 864 144 c 0
 843 182 816 211 757 211 c 0
 731 211 705 205 682 200 c 0
 642 191 604 175 578 152 c 0
 570 145 565 138 562 131 c 1
 568 107 586 104 611 97 c 0
 652 85 678 61 684 16 c 1
 684 -34 668 -83 655 -122 c 1
 579 -163 486 -193 384 -208 c 0
 349 -213 312 -215 274 -215 c 0
 151 -215 55 -168 55 -45 c 0
 55 -6 66 30 77 64 c 0
 93 114 116 162 143 207 c 1
 180 189 l 1
 156 152 139 101 132 50 c 0
 130 35 128 21 128 9 c 0
EndSplineSet
Validated: 1
Ligature2: "'liga' Standard Ligatures in Arabic lookup 7 subtable" uni0633.medi uni0649.fina
Ligature2: "'liga' Standard Ligatures in Arabic lookup 7 subtable" uni0633.medi uni06CC.fina
LCarets2: 1 872 
EndChar

StartChar: uni0635_uni06CC.isol
Encoding: 65638 -1 408
Width: 1620
VWidth: 952
GlyphClass: 3
LigCaretCntFixed: 1
Flags: MW
AnchorPoint: "Anchor-3" 974 -129 baselig 0
AnchorPoint: "Anchor-2" 923 589 baselig 0
AnchorPoint: "Anchor-3" 205 -275 baselig 1
AnchorPoint: "Anchor-2" 249 450 baselig 1
LayerCount: 2
Back
Fore
SplineSet
128 9 m 0
 128 -82 202 -116 298 -116 c 0
 432 -116 544 -91 637 -46 c 1
 636 -39 636 -33 636 -27 c 0
 636 10 601 10 572 20 c 0
 541 30 523 46 504 70 c 1
 507 93 511 117 516 138 c 0
 550 218 610 275 698 302 c 0
 727 311 758 315 792 315 c 0
 830 315 850 300 870 280 c 0
 890 260 902 231 916 204 c 0
 941 155 965 93 1037 93 c 1
 1090 161 1139 218 1196 270 c 0
 1243 312 1285 348 1352 362 c 0
 1366 365 1378 366 1390 366 c 0
 1465 366 1516 314 1539 260 c 0
 1547 241 1551 221 1552 202 c 1
 1494 100 1406 32 1271 10 c 0
 1229 3 1183 -1 1133 -1 c 2
 1042 -1 l 2
 974 -1 934 24 908 66 c 0
 892 92 878 118 864 144 c 0
 843 182 816 211 757 211 c 0
 731 211 705 205 682 200 c 0
 642 191 604 175 578 152 c 0
 570 145 565 138 562 131 c 1
 568 107 586 104 611 97 c 0
 652 85 678 61 684 16 c 1
 684 -34 668 -83 655 -122 c 1
 579 -163 486 -193 384 -208 c 0
 349 -213 312 -215 274 -215 c 0
 151 -215 55 -168 55 -45 c 0
 55 -6 66 30 77 64 c 0
 93 114 116 162 143 207 c 1
 180 189 l 1
 156 152 139 101 132 50 c 0
 130 35 128 21 128 9 c 0
1206 93 m 2
 1293 93 1371 109 1430 137 c 0
 1449 146 1464 155 1475 165 c 1
 1475 216 1436 252 1401 270 c 0
 1387 277 1372 281 1357 281 c 0
 1319 281 1278 266 1234 235 c 0
 1190 204 1143 157 1093 93 c 1
 1206 93 l 2
EndSplineSet
Validated: 1
Ligature2: "'liga' Standard Ligatures in Arabic lookup 7 subtable" uni0635.init uni06CC.fina
LCarets2: 1 916 
EndChar

StartChar: uni0635_uni06CC.fina
Encoding: 65639 -1 409
Width: 1645
VWidth: 952
GlyphClass: 3
LigCaretCntFixed: 1
Flags: MW
AnchorPoint: "Anchor-3" 974 -129 baselig 0
AnchorPoint: "Anchor-2" 923 589 baselig 0
AnchorPoint: "Anchor-3" 205 -275 baselig 1
AnchorPoint: "Anchor-2" 249 450 baselig 1
LayerCount: 2
Back
Fore
SplineSet
1469 101 m 1
 1487 95 1502 93 1523 93 c 2
 1646 93 l 1
 1646 -1 l 1
 1550 -1 l 2
 1521 -1 1492 1 1465 6 c 0
 1430 12 1392 22 1361 35 c 1
 1297 9 1222 -1 1133 -1 c 2
 1042 -1 l 2
 974 -1 934 24 908 66 c 0
 892 92 878 118 864 144 c 0
 843 182 816 211 757 211 c 0
 731 211 705 205 682 200 c 0
 642 191 604 175 578 152 c 0
 570 145 565 138 562 131 c 1
 568 107 586 104 611 97 c 0
 652 85 678 61 684 16 c 1
 684 -34 668 -83 655 -122 c 1
 579 -163 486 -193 384 -208 c 0
 349 -213 312 -215 274 -215 c 0
 151 -215 55 -168 55 -45 c 0
 55 -6 66 30 77 64 c 0
 93 114 116 162 143 207 c 1
 180 189 l 1
 156 152 139 101 132 50 c 0
 130 35 128 21 128 9 c 0
 128 -82 202 -116 298 -116 c 0
 432 -116 544 -91 637 -46 c 1
 636 -39 636 -33 636 -27 c 0
 636 10 601 10 572 20 c 0
 541 30 523 46 504 70 c 1
 507 93 511 117 516 138 c 0
 550 218 610 275 698 302 c 0
 727 311 758 315 792 315 c 0
 830 315 850 300 870 280 c 0
 890 260 902 231 916 204 c 0
 941 155 965 93 1037 93 c 1
 1090 161 1138 219 1195 270 c 0
 1217 290 1237 306 1256 318 c 0
 1296 343 1331 366 1390 366 c 0
 1466 366 1516 314 1539 260 c 0
 1547 241 1551 221 1552 202 c 1
 1531 158 1504 129 1469 101 c 1
1206 93 m 2
 1293 93 1371 109 1430 137 c 0
 1449 146 1464 155 1475 165 c 1
 1475 216 1436 252 1401 270 c 0
 1387 277 1372 281 1357 281 c 0
 1318 281 1277 266 1234 235 c 0
 1191 204 1144 157 1093 93 c 1
 1206 93 l 2
EndSplineSet
Validated: 1
Ligature2: "'liga' Standard Ligatures in Arabic lookup 7 subtable" uni0635.medi uni06CC.fina
LCarets2: 1 945 
EndChar

StartChar: uni0645_uni06CC.isol
Encoding: 65644 -1 414
Width: 1264
VWidth: 952
GlyphClass: 3
LigCaretCntFixed: 1
Flags: MW
AnchorPoint: "Anchor-3" 894 -143 baselig 0
AnchorPoint: "Anchor-2" 791 538 baselig 0
AnchorPoint: "Anchor-3" 227 -290 baselig 1
AnchorPoint: "Anchor-2" 227 369 baselig 1
LayerCount: 2
Back
Fore
SplineSet
1071 325 m 1
 1135 285 1179 230 1196 147 c 1
 1196 97 1180 53 1160 23 c 0
 1154 14 1147 6 1142 -1 c 1
 1137 -1 1133 -2 1129 -2 c 2
 1116 -2 l 2
 1033 -2 976 25 926 62 c 1
 907 91 l 1
 882 60 848 39 794 39 c 0
 749 39 712 63 667 63 c 0
 634 63 609 45 594 26 c 1
 607 20 l 2
 642 5 684 -19 720 -36 c 0
 728 -40 764 -56 764 -56 c 1
 764 -67 753 -84 748 -95 c 0
 741 -110 730 -127 725 -144 c 1
 689 -162 645 -178 602 -191 c 0
 554 -205 502 -220 448 -228 c 0
 399 -235 344 -242 290 -242 c 0
 189 -242 120 -212 86 -146 c 0
 75 -125 70 -100 70 -71 c 0
 70 -33 82 2 93 37 c 0
 109 87 132 135 159 180 c 1
 196 162 l 1
 179 135 167 101 157 68 c 0
 149 42 144 12 144 -18 c 0
 144 -109 217 -143 313 -143 c 0
 405 -143 494 -130 572 -112 c 0
 603 -105 633 -97 661 -87 c 1
 645 -77 617 -69 596 -60 c 0
 576 -51 548 -39 532 -29 c 1
 536 9 547 56 558 89 c 0
 562 101 564 110 567 115 c 0
 589 139 615 152 653 152 c 0
 705 152 739 127 790 127 c 0
 831 127 860 153 884 176 c 0
 929 218 969 271 1020 306 c 0
 1036 317 1053 323 1071 325 c 1
948 142 m 1
 993 112 1053 83 1124 83 c 2
 1138 83 l 1
 1127 137 1114 176 1082 208 c 0
 1072 218 1059 229 1044 240 c 1
 1024 233 1008 216 993 201 c 0
 975 183 962 164 948 142 c 1
EndSplineSet
Validated: 1
Ligature2: "'liga' Standard Ligatures in Arabic lookup 7 subtable" uni0645.init uni06CC.fina
LCarets2: 1 476 
EndChar

StartChar: uni0645_uni06CC.fina
Encoding: 65645 -1 415
Width: 1346
VWidth: 952
GlyphClass: 3
LigCaretCntFixed: 1
Flags: MW
AnchorPoint: "Anchor-3" 894 -143 baselig 0
AnchorPoint: "Anchor-2" 791 538 baselig 0
AnchorPoint: "Anchor-3" 227 -290 baselig 1
AnchorPoint: "Anchor-2" 227 369 baselig 1
LayerCount: 2
Back
Fore
SplineSet
653 152 m 0
 703 152 741 139 790 139 c 0
 807 139 824 144 840 156 c 0
 866 176 902 209 927 234 c 0
 949 256 978 274 1009 288 c 0
 1024 295 1042 301 1062 304 c 1
 1070 297 1079 286 1090 272 c 0
 1113 242 1140 210 1166 181 c 0
 1192 151 1225 123 1262 106 c 0
 1280 98 1298 93 1317 93 c 2
 1347 93 l 1
 1347 -1 l 1
 1313 -1 l 2
 1276 -1 1244 14 1220 30 c 0
 1193 47 1172 70 1152 92 c 1
 1142 34 1118 -4 1082 -34 c 1
 1017 -25 964 -12 921 18 c 0
 907 28 894 39 881 53 c 1
 876 79 l 1
 860 60 833 46 801 46 c 0
 778 46 753 52 732 55 c 0
 713 58 686 63 667 63 c 0
 634 63 609 45 594 26 c 1
 607 20 l 2
 642 5 684 -19 720 -36 c 0
 728 -40 764 -56 764 -56 c 1
 764 -67 753 -84 748 -95 c 0
 741 -110 730 -127 725 -144 c 1
 689 -162 645 -178 602 -191 c 0
 554 -205 502 -220 448 -228 c 0
 399 -235 344 -242 290 -242 c 0
 189 -242 120 -212 86 -146 c 0
 75 -125 70 -100 70 -71 c 0
 70 -33 82 2 93 37 c 0
 109 87 132 135 159 180 c 1
 196 162 l 1
 179 135 167 101 157 68 c 0
 149 42 144 12 144 -18 c 0
 144 -109 217 -143 313 -143 c 0
 405 -143 494 -130 572 -112 c 0
 603 -105 633 -97 661 -87 c 1
 645 -77 617 -69 596 -60 c 0
 576 -51 548 -39 532 -29 c 1
 536 9 547 56 558 89 c 0
 562 101 564 110 567 115 c 0
 589 139 615 152 653 152 c 0
1094 50 m 1
 1094 88 1091 117 1082 146 c 0
 1078 159 1070 172 1062 184 c 0
 1054 196 1044 208 1031 221 c 1
 985 211 948 173 923 140 c 1
 966 97 1022 60 1094 50 c 1
EndSplineSet
Validated: 1
Ligature2: "'liga' Standard Ligatures in Arabic lookup 7 subtable" uni0645.medi uni06CC.fina
LCarets2: 1 579 
EndChar

StartChar: uni0649_uni06CC.tight.fina
Encoding: 65646 -1 416
Width: 1056
VWidth: 952
GlyphClass: 3
LigCaretCntFixed: 1
Flags: MW
AnchorPoint: "Anchor-3" 820 -158 baselig 0
AnchorPoint: "Anchor-2" 710 531 baselig 0
AnchorPoint: "Anchor-3" 205 -275 baselig 1
AnchorPoint: "Anchor-2" 249 450 baselig 1
LayerCount: 2
Back
Fore
SplineSet
128 9 m 0
 128 -82 202 -116 298 -116 c 0
 432 -116 544 -91 637 -46 c 1
 636 -39 636 -33 636 -27 c 0
 636 10 601 10 572 20 c 0
 541 30 523 46 504 70 c 1
 507 93 511 117 516 138 c 0
 558 237 631 315 771 315 c 0
 809 315 828 300 846 280 c 0
 883 239 892 169 929 128 c 0
 947 108 965 93 1002 93 c 2
 1056 93 l 1
 1056 -1 l 1
 1006 -1 l 2
 939 -1 900 24 877 66 c 0
 870 79 864 92 858 105 c 0
 852 118 846 131 840 144 c 0
 822 183 794 211 737 211 c 0
 677 211 623 189 588 162 c 0
 575 152 567 142 562 131 c 1
 568 107 586 104 611 97 c 0
 652 85 678 61 684 16 c 1
 684 -34 668 -83 655 -122 c 1
 579 -163 486 -193 384 -208 c 0
 349 -213 312 -215 274 -215 c 0
 151 -215 55 -168 55 -45 c 0
 55 -6 66 30 77 64 c 0
 93 114 116 162 143 207 c 1
 180 189 l 1
 156 152 139 101 132 50 c 0
 130 35 128 21 128 9 c 0
EndSplineSet
Validated: 1
Ligature2: "'liga' Standard Ligatures in Arabic lookup 7 subtable" uni0649.medi uni06CC.fina
LCarets2: 1 366 
EndChar

StartChar: uni0644_uni06CC.isol
Encoding: 65650 -1 420
Width: 1030
VWidth: 952
GlyphClass: 3
LigCaretCntFixed: 1
Flags: MW
AnchorPoint: "Anchor-3" 850 -143 baselig 0
AnchorPoint: "Anchor-2" 806 846 baselig 0
AnchorPoint: "Anchor-3" 227 -290 baselig 1
AnchorPoint: "Anchor-2" 227 369 baselig 1
LayerCount: 2
Back
Fore
SplineSet
652 153 m 0
 694 153 729 140 770 140 c 0
 806 140 833 154 854 169 c 0
 861 174 867 179 871 184 c 1
 871 347 868 500 840 628 c 0
 834 656 829 677 822 692 c 1
 820 692 l 1
 886 770 l 1
 969 603 l 1
 947 588 l 1
 911 611 l 1
 918 529 923 437 926 352 c 0
 928 306 929 256 929 212 c 0
 929 172 908 136 889 111 c 0
 864 78 827 46 771 46 c 0
 764 46 756 47 747 49 c 0
 738 51 729 53 720 55 c 0
 704 58 683 63 667 63 c 0
 634 63 609 45 594 26 c 1
 607 20 l 2
 642 5 684 -19 720 -36 c 0
 728 -40 764 -56 764 -56 c 1
 764 -67 753 -84 748 -95 c 0
 741 -110 730 -127 725 -144 c 1
 689 -162 645 -178 602 -191 c 0
 554 -205 502 -220 448 -228 c 0
 399 -235 344 -242 290 -242 c 0
 189 -242 120 -212 86 -146 c 0
 75 -125 70 -100 70 -71 c 0
 70 -33 82 2 93 37 c 0
 109 87 132 135 159 180 c 1
 196 162 l 1
 179 135 167 101 157 68 c 0
 149 42 144 12 144 -18 c 0
 144 -109 217 -143 313 -143 c 0
 405 -143 494 -130 572 -112 c 0
 603 -105 633 -97 661 -87 c 1
 645 -77 617 -69 596 -60 c 0
 576 -51 548 -39 532 -29 c 1
 536 9 547 56 558 89 c 0
 562 101 564 110 567 115 c 0
 590 139 613 153 652 153 c 0
EndSplineSet
Validated: 1
Ligature2: "'liga' Standard Ligatures in Arabic lookup 7 subtable" uni0644.init uni06CC.fina
LCarets2: 1 308 
EndChar

StartChar: uni0644_uni06CC.fina
Encoding: 65651 -1 421
Width: 1056
VWidth: 952
GlyphClass: 3
LigCaretCntFixed: 1
Flags: MW
AnchorPoint: "Anchor-3" 842 -173 baselig 0
AnchorPoint: "Anchor-2" 784 838 baselig 0
AnchorPoint: "Anchor-3" 227 -290 baselig 1
AnchorPoint: "Anchor-2" 227 369 baselig 1
LayerCount: 2
Back
Fore
SplineSet
748 153 m 2
 788 153 818 171 835 195 c 1
 829 281 826 355 819 436 c 0
 816 473 813 510 810 547 c 0
 807 584 804 623 801 665 c 1
 869 770 l 1
 873 683 873 585 878 495 c 0
 884 392 886 277 896 177 c 0
 899 118 921 93 983 93 c 2
 1056 93 l 1
 1056 -1 l 1
 983 -1 l 2
 927 -1 889 39 868 78 c 0
 858 96 852 118 848 143 c 1
 843 129 838 116 830 106 c 0
 816 88 798 73 777 64 c 0
 768 60 759 59 750 59 c 0
 721 59 697 63 667 63 c 0
 634 63 609 45 594 26 c 1
 607 20 l 2
 642 5 684 -19 720 -36 c 0
 728 -40 764 -56 764 -56 c 1
 764 -67 753 -84 748 -95 c 0
 741 -110 730 -127 725 -144 c 1
 689 -162 645 -178 602 -191 c 0
 554 -205 502 -220 448 -228 c 0
 399 -235 344 -242 290 -242 c 0
 189 -242 120 -212 86 -146 c 0
 75 -125 70 -100 70 -71 c 0
 70 -33 82 2 93 37 c 0
 109 87 132 135 159 180 c 1
 196 162 l 1
 179 135 167 101 157 68 c 0
 149 42 144 12 144 -18 c 0
 144 -109 217 -143 313 -143 c 0
 405 -143 494 -130 572 -112 c 0
 603 -105 633 -97 661 -87 c 1
 645 -77 617 -69 596 -60 c 0
 576 -51 548 -39 532 -29 c 1
 536 9 547 56 558 89 c 0
 562 101 564 110 567 115 c 0
 590 139 613 153 652 153 c 2
 748 153 l 2
EndSplineSet
Validated: 1
Ligature2: "'liga' Standard Ligatures in Arabic lookup 7 subtable" uni0644.medi uni06CC.fina
LCarets2: 1 330 
EndChar

StartChar: uni0649_uni06CC.fina
Encoding: 65653 -1 424
Width: 1095
VWidth: 952
GlyphClass: 3
LigCaretCntFixed: 1
Flags: MW
AnchorPoint: "Anchor-3" 806 -143 baselig 0
AnchorPoint: "Anchor-2" 725 531 baselig 0
AnchorPoint: "Anchor-3" 205 -275 baselig 1
AnchorPoint: "Anchor-2" 249 450 baselig 1
LayerCount: 2
Back
Fore
SplineSet
128 9 m 0
 128 -82 202 -116 298 -116 c 0
 432 -116 544 -91 637 -46 c 1
 636 -39 636 -33 636 -27 c 0
 636 10 601 10 572 20 c 0
 541 30 523 46 504 70 c 1
 507 93 511 117 516 138 c 0
 539 193 575 236 624 266 c 0
 675 298 743 315 825 315 c 0
 863 315 884 300 904 280 c 0
 924 260 936 231 950 204 c 0
 975 155 998 93 1071 93 c 2
 1095 93 l 1
 1095 -1 l 1
 1056 -1 l 2
 931 -1 933 113 874 178 c 0
 856 198 829 211 791 211 c 0
 712 211 639 193 592 162 c 0
 577 152 567 142 562 131 c 1
 568 107 586 104 611 97 c 0
 652 85 678 61 684 16 c 1
 684 -34 668 -83 655 -122 c 1
 579 -163 486 -193 384 -208 c 0
 349 -213 312 -215 274 -215 c 0
 151 -215 55 -168 55 -45 c 0
 55 -6 66 30 77 64 c 0
 93 114 116 162 143 207 c 1
 180 189 l 1
 156 152 139 101 132 50 c 0
 130 35 128 21 128 9 c 0
EndSplineSet
Validated: 1
Ligature2: "'liga' Standard Ligatures in Arabic lookup 7 subtable" uni0649.medi uni06CC.fina
LCarets2: 1 425 
EndChar

StartChar: uni0649_uni06CC.isol
Encoding: 65656 -1 427
Width: 1152
VWidth: 952
GlyphClass: 3
LigCaretCntFixed: 1
Flags: MW
AnchorPoint: "Anchor-3" 886 -173 baselig 0
AnchorPoint: "Anchor-2" 791 538 baselig 0
AnchorPoint: "Anchor-3" 227 -290 baselig 1
AnchorPoint: "Anchor-2" 227 369 baselig 1
LayerCount: 2
Back
Fore
SplineSet
935 110 m 0
 986 110 1009 138 1027 170 c 1
 1023 216 999 256 977 286 c 0
 969 297 962 305 956 311 c 1
 1011 419 l 1
 1050 363 1075 282 1084 198 c 1
 1074 137 1042 80 1006 44 c 0
 989 27 966 12 935 12 c 0
 880 12 827 28 778 38 c 0
 744 45 710 55 679 60 c 0
 666 62 657 63 651 63 c 0
 618 63 593 45 578 26 c 1
 591 20 l 2
 628 4 668 -19 705 -36 c 0
 718 -42 728 -47 736 -51 c 0
 744 -55 749 -57 749 -56 c 1
 749 -68 737 -83 732 -95 c 0
 725 -110 713 -129 709 -144 c 1
 652 -172 582 -196 512 -212 c 0
 441 -228 360 -242 274 -242 c 0
 150 -242 55 -195 55 -71 c 0
 55 -32 66 2 77 37 c 0
 93 87 116 135 143 180 c 1
 180 162 l 1
 163 136 150 101 142 68 c 0
 135 41 128 11 128 -18 c 0
 128 -110 201 -143 298 -143 c 0
 390 -143 478 -129 556 -112 c 0
 588 -105 618 -97 646 -87 c 1
 641 -84 632 -81 620 -76 c 0
 588 -63 544 -46 516 -29 c 1
 520 9 533 54 542 89 c 0
 545 101 549 110 552 115 c 0
 574 139 599 152 638 152 c 0
 666 152 697 147 726 142 c 0
 780 133 839 121 894 114 c 0
 910 112 924 110 935 110 c 0
EndSplineSet
Validated: 1
Ligature2: "'liga' Standard Ligatures in Arabic lookup 7 subtable" uni0649.init uni06CC.fina
LCarets2: 1 366 
EndChar

StartChar: period.fa
Encoding: 65664 -1 435
Width: 317
VWidth: 952
GlyphClass: 2
Flags: MW
LayerCount: 2
Back
Fore
SplineSet
159 -15 m 0
 119 -15 94 10 94 50 c 0
 94 80 111 100 132 110 c 0
 140 114 149 115 159 115 c 0
 196 115 224 86 224 50 c 0
 224 11 198 -15 159 -15 c 0
EndSplineSet
Validated: 1
EndChar

StartChar: uni060C.fa
Encoding: 65665 -1 436
Width: 336
VWidth: 952
GlyphClass: 2
Flags: MW
LayerCount: 2
Back
Fore
SplineSet
136 105 m 0
 144 111 157 118 169 118 c 0
 207 118 236 88 236 50 c 0
 236 12 207 -15 169 -15 c 0
 130 -15 105 10 92 39 c 0
 86 52 84 67 84 85 c 0
 84 120 93 152 112 181 c 0
 131 210 161 237 202 264 c 1
 215 258 229 248 242 242 c 1
 204 221 177 200 160 180 c 0
 143 160 135 139 134 120 c 2
 134 112 l 2
 134 109 135 106 136 105 c 0
EndSplineSet
Validated: 1
EndChar

StartChar: uni061B.fa
Encoding: 65666 -1 437
Width: 336
VWidth: 952
GlyphClass: 2
Flags: MW
LayerCount: 2
Back
Fore
SplineSet
136 353 m 1
 144 359 156 365 169 365 c 0
 208 365 236 337 236 298 c 0
 236 260 207 233 169 233 c 0
 129 233 107 258 94 287 c 0
 88 300 85 315 85 333 c 0
 85 368 95 400 114 429 c 0
 133 458 162 485 203 512 c 1
 216 506 230 496 243 490 c 1
 205 469 178 448 161 427 c 0
 144 406 136 386 135 367 c 0
 135 364 136 362 136 359 c 2
 136 353 l 1
169 115 m 0
 206 115 234 86 234 50 c 0
 234 11 207 -15 169 -15 c 0
 131 -15 104 11 104 50 c 0
 104 86 132 115 169 115 c 0
EndSplineSet
Validated: 1
EndChar

StartChar: colon.fa
Encoding: 65667 -1 438
Width: 336
VWidth: 952
GlyphClass: 2
Flags: MW
LayerCount: 2
Back
Fore
SplineSet
171 115 m 0
 208 115 236 87 236 50 c 0
 236 11 210 -15 171 -15 c 0
 131 -15 106 10 106 50 c 0
 106 89 132 115 171 115 c 0
171 385 m 0
 208 385 236 357 236 320 c 0
 236 281 210 255 171 255 c 0
 131 255 106 280 106 320 c 0
 106 359 132 385 171 385 c 0
EndSplineSet
Validated: 1
EndChar

StartChar: uni061F.fa
Encoding: 65670 -1 441
Width: 536
VWidth: 952
GlyphClass: 2
Flags: MW
LayerCount: 2
Back
Fore
SplineSet
376 50 m 0
 376 15 347 -15 312 -15 c 0
 273 -15 247 12 247 50 c 0
 247 86 275 115 312 115 c 0
 348 115 376 85 376 50 c 0
395 656 m 1
 366 668 329 677 289 677 c 0
 238 677 202 654 186 619 c 0
 181 608 178 596 178 585 c 0
 178 544 207 519 231 498 c 0
 246 485 262 472 280 459 c 0
 314 435 346 409 368 376 c 0
 378 361 383 345 383 327 c 0
 383 288 357 254 333 234 c 1
 262 271 l 1
 274 279 286 292 294 304 c 0
 300 313 310 324 310 336 c 0
 310 349 304 362 294 373 c 0
 256 415 198 447 158 490 c 0
 130 520 104 558 104 613 c 0
 104 665 127 700 157 726 c 0
 188 753 235 773 291 773 c 0
 342 773 391 761 432 749 c 1
 395 656 l 1
EndSplineSet
Validated: 1
EndChar

StartChar: exclam.fa
Encoding: 65671 -1 442
Width: 401
VWidth: 952
GlyphClass: 2
Flags: MW
LayerCount: 2
Back
Fore
SplineSet
231 204 m 1
 171 204 l 1
 141 728 l 1
 266 728 l 1
 231 204 l 1
136 50 m 0
 136 91 159 115 201 115 c 0
 239 115 266 89 266 50 c 0
 266 13 238 -15 201 -15 c 0
 179 -15 165 -7 154 4 c 0
 143 15 136 28 136 50 c 0
EndSplineSet
Validated: 1
EndChar

StartChar: uni066D
Encoding: 1645 1645 450
Width: 625
VWidth: 952
GlyphClass: 2
Flags: MW
LayerCount: 2
Back
Fore
SplineSet
511 381 m 0
 542 381 564 358 564 327 c 0
 564 296 544 279 516 273 c 2
 356 248 l 1
 471 134 l 2
 483 122 489 109 489 94 c 0
 489 63 466 40 435 40 c 0
 410 40 395 53 386 72 c 2
 312 216 l 1
 239 72 l 2
 231 54 214 40 190 40 c 0
 159 40 136 63 136 94 c 0
 136 109 142 122 154 134 c 2
 268 248 l 1
 109 273 l 2
 107 273 106 274 104 274 c 0
 90 274 78 286 71 295 c 0
 64 304 61 315 61 327 c 0
 61 359 82 381 114 381 c 0
 127 381 133 380 142 374 c 2
 285 300 l 1
 260 460 l 2
 260 463 258 468 258 471 c 0
 258 497 274 511 292 520 c 0
 298 523 304 525 312 525 c 0
 341 525 367 500 367 471 c 0
 367 470 366 468 366 466 c 0
 366 464 366 461 365 460 c 2
 340 300 l 1
 483 374 l 2
 492 379 502 381 511 381 c 0
EndSplineSet
Validated: 1
EndChar

StartChar: kashida1
Encoding: 65674 -1 451
Width: 109
VWidth: 952
GlyphClass: 2
Flags: MW
LayerCount: 2
Back
Fore
SplineSet
109 -1 m 1
 0 -1 l 1
 0 93 l 1
 109 93 l 1
 109 -1 l 1
EndSplineSet
Validated: 1
EndChar

StartChar: kashida2
Encoding: 65675 -1 452
Width: 234
VWidth: 952
GlyphClass: 2
Flags: MW
LayerCount: 2
Back
Fore
SplineSet
234 -1 m 1
 0 -1 l 1
 0 93 l 1
 234 93 l 1
 234 -1 l 1
EndSplineSet
Validated: 1
EndChar

StartChar: uni06A9_uni06CC.isol
Encoding: 65676 -1 453
Width: 1315
VWidth: 952
GlyphClass: 3
LigCaretCntFixed: 1
Flags: MW
AnchorPoint: "Anchor-3" 930 -180 baselig 0
AnchorPoint: "Anchor-2" 725 604 baselig 0
AnchorPoint: "Anchor-3" 410 -282 baselig 1
AnchorPoint: "Anchor-2" 278 406 baselig 1
LayerCount: 2
Back
Fore
SplineSet
938 112 m 0
 1009 112 1056 138 1085 180 c 1
 1083 222 1065 251 1040 278 c 0
 995 326 938 357 865 393 c 1
 865 413 870 439 872 460 c 0
 874 479 875 498 878 514 c 0
 879 520 879 523 879 524 c 0
 942 569 1016 612 1086 653 c 0
 1133 680 1181 704 1229 727 c 0
 1250 737 1269 744 1284 749 c 1
 1253 591 l 1
 1233 596 l 2
 1233 600 1232 604 1232 608 c 0
 1232 618 1231 633 1222 633 c 0
 1166 609 1111 577 1057 549 c 0
 1019 529 982 506 948 485 c 0
 933 476 922 467 913 460 c 1
 986 422 1042 386 1080 352 c 0
 1118 318 1142 284 1150 250 c 1
 1145 206 1140 158 1131 118 c 1
 1078 61 1012 21 912 21 c 0
 881 21 850 27 822 32 c 0
 779 40 734 52 692 60 c 0
 681 62 672 63 667 63 c 0
 634 63 609 45 594 26 c 1
 607 20 l 2
 642 5 684 -19 720 -36 c 0
 728 -40 764 -56 764 -56 c 1
 764 -67 753 -84 748 -95 c 0
 741 -110 730 -127 725 -144 c 1
 689 -162 645 -178 602 -191 c 0
 554 -205 502 -220 448 -228 c 0
 399 -235 344 -242 290 -242 c 0
 189 -242 120 -212 86 -146 c 0
 75 -125 70 -100 70 -71 c 0
 70 -33 82 2 93 37 c 0
 109 87 132 135 159 180 c 1
 196 162 l 1
 179 135 167 101 157 68 c 0
 149 42 144 12 144 -18 c 0
 144 -109 217 -143 313 -143 c 0
 405 -143 494 -130 572 -112 c 0
 603 -105 633 -97 661 -87 c 1
 645 -77 617 -69 596 -60 c 0
 576 -51 548 -39 532 -29 c 1
 536 9 547 56 558 89 c 0
 562 101 564 110 567 115 c 0
 589 139 615 152 653 152 c 0
 721 152 786 132 848 122 c 0
 878 117 908 112 938 112 c 0
EndSplineSet
Validated: 1
Ligature2: "'liga' Standard Ligatures in Arabic lookup 7 subtable" uni06A9.init uni06CC.fina
LCarets2: 1 513 
EndChar

StartChar: uni06A9_uni06CC.fina
Encoding: 65677 -1 454
Width: 1377
VWidth: 952
GlyphClass: 3
LigCaretCntFixed: 1
Flags: MW
AnchorPoint: "Anchor-3" 930 -180 baselig 0
AnchorPoint: "Anchor-2" 725 604 baselig 0
AnchorPoint: "Anchor-3" 410 -282 baselig 1
AnchorPoint: "Anchor-2" 278 406 baselig 1
LayerCount: 2
Back
Fore
SplineSet
938 112 m 0
 1008 112 1055 138 1084 179 c 1
 1081 223 1064 252 1038 280 c 0
 1022 297 999 314 971 332 c 0
 943 350 907 371 863 392 c 1
 867 436 872 480 876 524 c 1
 961 584 1063 641 1158 693 c 0
 1182 706 1206 716 1227 726 c 0
 1248 736 1267 744 1282 749 c 1
 1250 591 l 1
 1230 595 l 1
 1230 608 l 2
 1230 617 1228 633 1220 633 c 0
 1165 610 1106 577 1054 548 c 0
 1005 521 952 492 911 460 c 1
 975 426 1033 391 1090 349 c 0
 1126 322 1169 282 1196 246 c 0
 1219 216 1238 186 1257 156 c 0
 1277 123 1301 93 1352 93 c 2
 1377 93 l 1
 1377 -1 l 1
 1353 -1 l 2
 1305 -1 1274 22 1250 48 c 0
 1224 76 1205 115 1186 150 c 0
 1170 181 1152 214 1127 234 c 1
 1125 232 l 1
 1127 223 1128 215 1128 206 c 0
 1128 197 1129 190 1129 183 c 0
 1129 164 1125 134 1121 117 c 1
 1069 62 1010 21 912 21 c 0
 881 21 850 27 822 32 c 0
 779 40 734 52 692 60 c 0
 681 62 672 63 667 63 c 0
 634 63 609 45 594 26 c 1
 607 20 l 2
 642 5 684 -19 720 -36 c 0
 728 -40 764 -56 764 -56 c 1
 764 -67 753 -84 748 -95 c 0
 741 -110 730 -127 725 -144 c 1
 689 -162 645 -178 602 -191 c 0
 554 -205 502 -220 448 -228 c 0
 399 -235 344 -242 290 -242 c 0
 189 -242 120 -212 86 -146 c 0
 75 -125 70 -100 70 -71 c 0
 70 -33 82 2 93 37 c 0
 109 87 132 135 159 180 c 1
 196 162 l 1
 179 135 167 101 157 68 c 0
 149 42 144 12 144 -18 c 0
 144 -109 217 -143 313 -143 c 0
 405 -143 494 -130 572 -112 c 0
 603 -105 633 -97 661 -87 c 1
 645 -77 617 -69 596 -60 c 0
 576 -51 548 -39 532 -29 c 1
 536 9 547 56 558 89 c 0
 562 101 564 110 567 115 c 0
 589 139 615 152 653 152 c 0
 721 152 786 132 848 122 c 0
 878 117 908 112 938 112 c 0
EndSplineSet
Validated: 1
Ligature2: "'liga' Standard Ligatures in Arabic lookup 7 subtable" uni06A9.medi uni06CC.fina
LCarets2: 1 571 
EndChar

StartChar: uni06AF_uni06CC.isol
Encoding: 65678 -1 455
Width: 1315
VWidth: 952
GlyphClass: 3
LigCaretCntFixed: 1
Flags: MW
AnchorPoint: "Anchor-3" 930 -180 baselig 0
AnchorPoint: "Anchor-2" 725 604 baselig 0
AnchorPoint: "Anchor-3" 410 -282 baselig 1
AnchorPoint: "Anchor-2" 278 406 baselig 1
LayerCount: 2
Back
Fore
SplineSet
1258 728 m 1
 1227 722 1189 708 1156 696 c 0
 1084 670 1007 637 939 607 c 0
 916 597 897 587 880 578 c 1
 891 629 l 1
 929 649 977 670 1021 688 c 0
 1046 698 1071 710 1096 720 c 0
 1140 738 1185 754 1228 768 c 0
 1246 774 1259 777 1269 779 c 1
 1258 728 l 1
938 112 m 0
 1007 112 1055 132 1085 170 c 1
 1084 185 1079 201 1072 218 c 0
 1065 235 1052 253 1035 271 c 0
 1018 289 994 307 966 326 c 0
 938 345 903 363 860 382 c 1
 873 509 l 1
 942 540 1018 578 1091 606 c 0
 1117 616 1142 625 1166 634 c 0
 1205 649 1240 662 1279 671 c 1
 1234 570 l 1
 1201 565 1164 550 1130 539 c 0
 1088 525 1042 508 1003 490 c 0
 983 481 964 474 947 466 c 0
 930 458 916 451 905 446 c 1
 972 417 1028 384 1074 342 c 0
 1105 314 1130 281 1140 239 c 1
 1122 107 l 1
 1075 57 1006 21 912 21 c 0
 881 21 850 27 822 32 c 0
 779 40 734 52 692 60 c 0
 681 62 672 63 667 63 c 0
 634 63 609 45 594 26 c 1
 607 20 l 2
 642 5 684 -19 720 -36 c 0
 728 -40 764 -56 764 -56 c 1
 764 -67 753 -84 748 -95 c 0
 741 -110 730 -127 725 -144 c 1
 689 -162 645 -178 602 -191 c 0
 554 -205 502 -220 448 -228 c 0
 399 -235 344 -242 290 -242 c 0
 189 -242 120 -212 86 -146 c 0
 75 -125 70 -100 70 -71 c 0
 70 -33 82 2 93 37 c 0
 109 87 132 135 159 180 c 1
 196 162 l 1
 179 135 167 101 157 68 c 0
 149 42 144 12 144 -18 c 0
 144 -109 217 -143 313 -143 c 0
 405 -143 494 -130 572 -112 c 0
 603 -105 633 -97 661 -87 c 1
 645 -77 617 -69 596 -60 c 0
 576 -51 548 -39 532 -29 c 1
 536 9 547 56 558 89 c 0
 562 101 564 110 567 115 c 0
 589 139 615 152 653 152 c 0
 721 152 786 132 848 122 c 0
 878 117 908 112 938 112 c 0
EndSplineSet
Validated: 1
Ligature2: "'liga' Standard Ligatures in Arabic lookup 7 subtable" uni06AF.init uni06CC.fina
LCarets2: 1 498 
EndChar

StartChar: uni06AF_uni06CC.fina
Encoding: 65679 -1 456
Width: 1377
VWidth: 952
GlyphClass: 3
LigCaretCntFixed: 1
Flags: MW
AnchorPoint: "Anchor-3" 930 -180 baselig 0
AnchorPoint: "Anchor-2" 725 604 baselig 0
AnchorPoint: "Anchor-3" 410 -282 baselig 1
AnchorPoint: "Anchor-2" 278 406 baselig 1
LayerCount: 2
Back
Fore
SplineSet
1263 728 m 1
 1253 726 1240 722 1222 716 c 0
 1153 693 1080 667 1015 638 c 0
 971 619 923 598 885 578 c 1
 896 629 l 1
 934 649 982 670 1026 688 c 0
 1051 698 1076 710 1101 720 c 0
 1145 738 1189 754 1232 768 c 0
 1250 774 1264 777 1274 779 c 1
 1263 728 l 1
1125 222 m 1
 1128 207 1131 190 1131 173 c 0
 1131 163 1130 152 1130 140 c 0
 1130 128 1129 116 1126 107 c 1
 1072 52 1011 21 912 21 c 0
 881 21 850 27 822 32 c 0
 779 40 734 52 692 60 c 0
 681 62 672 63 667 63 c 0
 634 63 609 45 594 26 c 1
 607 20 l 2
 642 5 684 -19 720 -36 c 0
 728 -40 764 -56 764 -56 c 1
 764 -67 753 -84 748 -95 c 0
 741 -110 730 -127 725 -144 c 1
 689 -162 645 -178 602 -191 c 0
 554 -205 502 -220 448 -228 c 0
 399 -235 344 -242 290 -242 c 0
 189 -242 120 -212 86 -146 c 0
 75 -125 70 -100 70 -71 c 0
 70 -33 82 2 93 37 c 0
 109 87 132 135 159 180 c 1
 196 162 l 1
 179 135 167 101 157 68 c 0
 149 42 144 12 144 -18 c 0
 144 -109 217 -143 313 -143 c 0
 405 -143 494 -130 572 -112 c 0
 603 -105 633 -97 661 -87 c 1
 645 -77 617 -69 596 -60 c 0
 576 -51 548 -39 532 -29 c 1
 536 9 547 56 558 89 c 0
 562 101 564 110 567 115 c 0
 589 139 615 152 653 152 c 0
 721 152 786 132 848 122 c 0
 878 117 908 112 938 112 c 0
 1009 112 1052 130 1083 169 c 1
 1082 184 1077 200 1070 217 c 0
 1051 264 1014 295 970 326 c 0
 943 345 908 363 865 382 c 1
 877 509 l 1
 946 540 1022 578 1096 606 c 0
 1158 630 1219 656 1284 671 c 1
 1239 570 l 1
 1206 565 1169 550 1135 539 c 0
 1093 525 1047 508 1008 490 c 0
 988 481 969 474 952 466 c 0
 935 458 921 451 910 446 c 1
 931 435 952 425 972 414 c 0
 1037 378 1095 335 1151 287 c 0
 1196 249 1226 201 1258 153 c 0
 1279 121 1301 93 1352 93 c 2
 1377 93 l 1
 1377 -1 l 1
 1353 -1 l 2
 1305 -1 1274 20 1250 46 c 0
 1213 86 1188 143 1158 190 c 0
 1149 204 1138 215 1127 224 c 1
 1125 222 l 1
EndSplineSet
Validated: 1
Ligature2: "'liga' Standard Ligatures in Arabic lookup 7 subtable" uni06AF.medi uni06CC.fina
LCarets2: 1 571 
EndChar

StartChar: D3bs
Encoding: 65682 -1 459
Width: 311
VWidth: 952
GlyphClass: 5
Flags: MW
LayerCount: 2
Back
Fore
SplineSet
285 -156 m 1
 230 -211 l 1
 224 -211 l 1
 169 -156 l 1
 169 -150 l 1
 224 -95 l 1
 230 -95 l 1
 285 -150 l 1
 285 -156 l 1
127 -156 m 1
 73 -211 l 1
 67 -211 l 1
 12 -156 l 1
 12 -150 l 1
 67 -95 l 1
 73 -95 l 1
 127 -150 l 1
 127 -156 l 1
206 -249 m 1
 151 -303 l 1
 146 -303 l 1
 91 -249 l 1
 91 -243 l 1
 146 -188 l 1
 151 -188 l 1
 206 -243 l 1
 206 -249 l 1
EndSplineSet
Validated: 1
EndChar
